<svg width="50" height="50" viewBox="0 0 50 50" fill="none" xmlns="http://www.w3.org/2000/svg">
<path d="M25 50C38.8071 50 50 38.8071 50 25C50 11.1929 38.8071 0 25 0C11.1929 0 0 11.1929 0 25C0 38.8071 11.1929 50 25 50Z" fill="#012C52"/>
<path d="M36.7851 36.7851C39.8889 33.6813 41.6666 29.4782 41.6666 25C41.6666 15.7952 34.2047 8.33331 25 8.33331V13.3333C31.4433 13.3333 36.6666 18.5567 36.6666 25C36.6666 28.1385 35.425 31.0741 33.2496 33.2496L36.7851 36.7851ZM13.2149 13.2149C10.1111 16.3187 8.33331 20.5217 8.33331 25C8.33331 34.2047 15.7952 41.6666 25 41.6666V36.6666C18.5567 36.6666 13.3333 31.4433 13.3333 25C13.3333 21.8614 14.575 18.9258 16.7504 16.7504L13.2149 13.2149Z" fill="#F5F5F5"/>
<path fill-rule="evenodd" clip-rule="evenodd" d="M16.6666 11.25L27.5 5V17.5L16.6666 11.25Z" fill="#F5F5F5"/>
<path fill-rule="evenodd" clip-rule="evenodd" d="M33.3333 38.75L22.5 45V32.5L33.3333 38.75Z" fill="#F5F5F5"/>
</svg>
