<svg width="50" height="63" viewBox="0 0 50 63" fill="none" xmlns="http://www.w3.org/2000/svg">
<path fill-rule="evenodd" clip-rule="evenodd" d="M0 7.95455L25 0L50 7.95455V35.2323C50 40.8779 46.2166 48.0341 41.5536 51.2135L25 62.5L8.44643 51.2135C3.78159 48.0329 0 40.8751 0 35.2323V7.95455Z" fill="#FFAF40"/>
<path fill-rule="evenodd" clip-rule="evenodd" d="M5.68182 13.0371L25 6.81812L44.3182 13.0371V32.1218C44.3182 37.7736 40.5476 44.9564 35.9011 48.1617L25 55.6817L14.0989 48.1617C9.45026 44.9549 5.68182 37.7743 5.68182 32.1218V13.0371Z" fill="#012C52"/>
<path fill-rule="evenodd" clip-rule="evenodd" d="M7.95459 15.9091L3.133 17.3216L4.5455 12.5001L3.133 7.67847L7.95459 9.09097L12.7762 7.67847L11.3637 12.5001L12.7762 17.3216L7.95459 15.9091Z" fill="white"/>
</svg>
