<svg width="54" height="54" viewBox="0 0 54 54" fill="none" xmlns="http://www.w3.org/2000/svg">
<path fill-rule="evenodd" clip-rule="evenodd" d="M37.715 5.57074C39.6871 3.59867 42.8898 3.60404 44.8534 5.5677L48.4323 9.14658C50.4027 11.117 50.3996 14.3147 48.4293 16.285L37.7136 27.0007C35.7416 28.9727 32.5428 28.9713 30.5696 26.9981L28.7857 25.2143L27.0019 23.4304C25.0284 21.4569 25.029 18.2567 26.9993 16.2864L37.715 5.57074Z" stroke="#012C52" stroke-width="7.32697" stroke-linecap="round"/>
<path d="M27 30.5715L23.4285 27.0001C21.4561 25.0276 18.2581 25.0276 16.2857 27.0001L5.57141 37.7144C3.59897 39.6868 3.59897 42.8848 5.57141 44.8572L9.14284 48.4286C11.1153 50.4011 14.3132 50.4011 16.2857 48.4286L27 37.7144C28.9724 35.7419 28.9724 32.5439 27 30.5715Z" stroke="#012C52" stroke-width="7.32697" stroke-linecap="round"/>
<path d="M35.3335 18.6671L18.0716 35.929" stroke="#012C52" stroke-width="7.32697" stroke-linecap="round"/>
</svg>
