<svg width="449" height="310" viewBox="0 0 449 310" fill="none" xmlns="http://www.w3.org/2000/svg">
<g clip-path="url(#clip0_119_1202)">
<path d="M30.38 310C26.2773 310 22.2172 309.182 18.4444 307.597C14.6716 306.011 11.2645 303.69 8.42834 300.774C5.59223 297.858 3.38597 294.407 1.94261 290.629C0.499255 286.851 -0.15128 282.825 0.0302395 278.793C1.0297 256.555 12.5892 225.155 58.153 193.774C113.716 155.507 88.6552 45.3317 206.712 52.9337C324.768 60.5357 322.15 141.96 394.54 179.279C440.619 203.034 448.997 249.514 449 280.163C448.992 288.082 445.788 295.674 440.091 301.269C434.394 306.864 426.672 310.005 418.621 310H30.38Z" fill="#F3F5FD"/>
<path d="M312.936 0H112.817V255.373H312.936V0Z" fill="#749ABD"/>
<path d="M294.491 59.4017H131.262V65.4818H294.491V59.4017Z" fill="white"/>
<path d="M294.491 77.4367H131.262V83.5168H294.491V77.4367Z" fill="white"/>
<path d="M294.491 95.4722H131.262V101.552H294.491V95.4722Z" fill="white"/>
<path d="M294.491 113.507H131.262V235.113H294.491V113.507Z" fill="white"/>
<path d="M294.491 27.575H131.262V44.1547H294.491V27.575Z" fill="white"/>
<path d="M144.234 135.019C143.663 134.292 144.344 133.062 144.68 132.376C145.117 131.484 145.631 130.452 146.593 130.015C146.783 129.908 146.995 129.844 147.214 129.827C147.432 129.81 147.651 129.839 147.857 129.914C148.062 129.989 148.249 130.107 148.403 130.26C148.557 130.413 148.675 130.598 148.749 130.8C149.158 131.679 149.275 132.627 149.923 133.392C150.509 134.084 151.432 134.568 152.345 134.218C153.231 133.878 153.6 132.908 154.245 132.284C155.487 131.083 157.517 130.337 158.914 131.704C159.669 132.442 160.24 133.268 161.275 133.655C162.26 133.972 163.321 133.972 164.306 133.655C166.42 133.057 168.141 131.364 170.424 131.344C172.5 131.327 174.414 132.414 176.212 133.304C178.01 134.195 179.808 134.938 181.827 135.164C183.958 135.391 186.114 135.113 188.114 134.355C190.115 133.597 191.902 132.38 193.328 130.805C193.871 130.188 192.959 129.283 192.411 129.904C191.121 131.338 189.501 132.449 187.687 133.144C185.873 133.84 183.916 134.101 181.98 133.905C179.869 133.695 178.017 132.772 176.149 131.847C174.281 130.922 172.244 129.943 170.09 130.081C168.954 130.187 167.853 130.526 166.858 131.074C165.854 131.584 164.892 132.19 163.791 132.47C162.747 132.735 161.669 132.675 160.862 131.906C160.104 131.184 159.541 130.334 158.526 129.929C156.755 129.226 154.756 130.069 153.44 131.278C153.105 131.591 152.804 131.938 152.54 132.311C152.296 132.651 152.022 133.189 151.515 133.034C150.565 132.738 150.38 131.435 150.081 130.659C149.701 129.678 149.061 128.793 147.943 128.598C147.385 128.521 146.816 128.579 146.286 128.767C145.756 128.956 145.281 129.268 144.902 129.678C144.117 130.57 143.511 131.599 143.116 132.712C142.673 133.805 142.552 134.949 143.317 135.922C143.439 136.04 143.604 136.107 143.775 136.107C143.947 136.107 144.111 136.04 144.233 135.922C144.351 135.8 144.417 135.639 144.417 135.471C144.417 135.303 144.351 135.142 144.233 135.02L144.234 135.019Z" fill="#3BA647"/>
<path d="M155.314 305.403L146.307 304.349C146.713 300.996 147.171 296.968 147.202 296.307C147.202 296.35 147.202 296.385 147.202 296.411H156.272C156.269 296.679 156.269 297.493 155.314 305.403Z" fill="#E98862"/>
<path d="M119.173 306.468L110.102 306.44C110.102 306.44 110.133 297.226 110.133 296.41H119.203C119.203 297.23 119.173 306.468 119.173 306.468Z" fill="#E98862"/>
<path d="M106.037 193.837C106.037 195.103 106.716 199.336 105.623 199.639C104.968 199.82 104.194 196.665 104.194 196.665" fill="#E98862"/>
<path d="M100.876 193.172C100.876 193.172 97.3066 201.718 101.378 206.628C101.482 206.753 101.621 206.844 101.779 206.89C101.936 206.935 102.104 206.933 102.26 206.883C102.416 206.834 102.553 206.739 102.654 206.612C102.754 206.484 102.813 206.33 102.823 206.169C103.021 202.858 103.699 196.056 105.918 196.853V191.515" fill="#E98862"/>
<path d="M182.225 139.567C182.225 139.567 187.21 135.672 187.562 134.273C187.914 132.874 184.404 130.122 184.404 130.122L181.626 130.763C181.626 130.763 182.392 128.341 181.438 128.181C181.046 128.116 180.736 128.494 180.122 130.209C179.423 132.163 178.027 135.101 178.027 135.101L182.225 139.567Z" fill="#E98862"/>
<path d="M125.8 134.331C125.8 134.331 129.273 132.863 129.273 123.886L136.255 123.186C136.255 123.186 134.816 131.119 138.084 133.936L125.8 134.331Z" fill="#E98862"/>
<path d="M125.659 120.115C125.91 122.858 127.197 125.541 129.55 126.611C132.108 127.856 134.937 128.467 137.791 128.39C145.37 128.39 145.284 111.43 141.982 107.87C138.68 104.311 128.018 105.536 126.286 110.905C125.39 113.681 125.42 117.502 125.659 120.115Z" fill="#E98862"/>
<path d="M136.654 118.901C137 118.901 137.28 118.625 137.28 118.285C137.28 117.945 137 117.67 136.654 117.67C136.308 117.67 136.028 117.945 136.028 118.285C136.028 118.625 136.308 118.901 136.654 118.901Z" fill="#367CFF"/>
<path d="M135.424 117.066C135.35 117.066 135.279 117.038 135.225 116.988C135.171 116.938 135.138 116.871 135.132 116.798C135.127 116.725 135.149 116.653 135.195 116.597C135.241 116.54 135.307 116.502 135.381 116.491L137.042 116.236C137.119 116.225 137.197 116.245 137.259 116.29C137.322 116.335 137.364 116.402 137.378 116.477C137.39 116.553 137.37 116.63 137.324 116.692C137.278 116.754 137.209 116.796 137.132 116.807L135.471 117.062C135.455 117.065 135.44 117.066 135.424 117.066Z" fill="#367CFF"/>
<path d="M141.241 113.514C138.277 126.591 135.548 130.087 128.677 127.469C127.101 126.868 123.326 123.186 122.948 115.352C122.793 112.735 123.617 110.153 125.264 108.093C126.911 106.033 129.268 104.637 131.889 104.169C145.498 102.307 145.976 114.395 145.976 114.395C139.146 115.547 129.843 113.644 129.843 113.644" fill="#0F1011"/>
<path d="M124.846 115.348C128.187 115.348 130.895 112.683 130.895 109.397C130.895 106.11 128.187 103.446 124.846 103.446C121.505 103.446 118.796 106.11 118.796 109.397C118.796 112.683 121.505 115.348 124.846 115.348Z" fill="#0F1011"/>
<path d="M142.682 302.586L158.66 302.318C157.91 283.61 157.864 263.986 157.63 245.232C154.511 225.019 152.869 202.822 149.019 182.753L148.904 182.787L148.566 180.522L115.707 178.525C115.707 178.525 109.717 272.704 107.764 302.079L123.689 303.403C126.558 274.602 130.998 232.636 133.729 202.38C136.865 217.11 138.998 232.363 141.726 246.967C142.272 265.248 142.733 284.359 142.682 302.586Z" fill="#262626"/>
<path d="M130.199 309.92C130.443 309.919 130.684 309.869 130.907 309.772C131.13 309.675 131.331 309.534 131.496 309.358C131.661 309.181 131.787 308.973 131.867 308.747C131.947 308.52 131.978 308.28 131.96 308.04C131.933 307.709 131.811 307.391 131.608 307.126C131.404 306.86 131.128 306.657 130.811 306.541L120.254 303.063C120.05 302.996 119.833 302.974 119.619 302.997C119.405 303.02 119.198 303.089 119.014 303.198C117.562 304.189 115.826 304.695 114.06 304.643C112.685 304.547 111.365 304.072 110.25 303.274C110.152 303.195 110.034 303.145 109.908 303.13C109.782 303.115 109.655 303.135 109.54 303.188C109.426 303.242 109.329 303.326 109.262 303.432C109.194 303.537 109.159 303.659 109.159 303.784V308.862C109.159 309.012 109.189 309.16 109.247 309.299C109.306 309.437 109.391 309.563 109.499 309.668C109.607 309.774 109.735 309.858 109.876 309.915C110.017 309.972 110.168 310.001 110.32 310L130.199 309.92Z" fill="#749ABD"/>
<path d="M166.365 309.92C166.609 309.919 166.85 309.869 167.073 309.772C167.296 309.675 167.497 309.534 167.662 309.358C167.827 309.181 167.954 308.973 168.034 308.747C168.113 308.52 168.145 308.28 168.126 308.04C168.1 307.709 167.978 307.392 167.774 307.126C167.571 306.86 167.294 306.657 166.978 306.541L156.42 303.063C156.216 302.996 155.999 302.974 155.785 302.997C155.571 303.02 155.364 303.089 155.18 303.198C153.728 304.188 151.992 304.694 150.226 304.641C148.851 304.545 147.531 304.071 146.417 303.272C146.319 303.193 146.2 303.143 146.074 303.128C145.949 303.113 145.821 303.133 145.707 303.187C145.592 303.24 145.496 303.324 145.428 303.43C145.361 303.535 145.325 303.658 145.325 303.782V308.86C145.325 309.01 145.355 309.159 145.414 309.297C145.472 309.435 145.558 309.561 145.666 309.667C145.774 309.772 145.902 309.856 146.042 309.913C146.183 309.97 146.334 309.999 146.486 309.998L166.365 309.92Z" fill="#749ABD"/>
<path d="M141.561 120.898C141.566 121.244 141.501 121.587 141.369 121.907C141.238 122.228 141.043 122.519 140.796 122.765C140.55 123.011 140.256 123.206 139.932 123.34C139.607 123.473 139.26 123.541 138.908 123.541C138.557 123.541 138.209 123.473 137.885 123.34C137.561 123.206 137.267 123.011 137.02 122.765C136.773 122.519 136.579 122.228 136.447 121.907C136.316 121.587 136.251 121.244 136.255 120.898C136.249 120.554 136.314 120.212 136.445 119.892C136.576 119.573 136.772 119.283 137.019 119.04C137.267 118.796 137.561 118.604 137.886 118.475C138.21 118.346 138.558 118.282 138.908 118.288C140.798 118.38 141.561 119.457 141.561 120.898Z" fill="#E98862"/>
<path d="M176.64 133.865L164.557 153.512L149.332 137.27C148.048 134.736 145.594 133.087 141.187 132.901C139.453 132.828 130.991 132.816 124.796 132.816C120.633 132.816 117.217 134.073 115.243 136.014C114.25 136.977 113.506 138.162 113.075 139.468L113.015 139.446L103.1 165.964C102.989 166.262 102.909 166.569 102.861 166.883L98.8599 193.402L108.176 194.761L112.106 168.714L116.11 158.004C116.527 159.65 116.755 161.337 116.789 163.033C116.789 171.956 112.686 175.957 112.988 180.536C113.463 187.736 149.023 186.035 150.834 181.945C152.7 177.728 148.913 175.13 149.079 161.335C149.116 158.268 149.569 154.912 149.967 151.615L161.879 164.323C162.374 164.852 162.987 165.26 163.67 165.515C164.353 165.77 165.087 165.865 165.814 165.793C166.541 165.721 167.241 165.484 167.858 165.099C168.476 164.715 168.994 164.195 169.371 163.58L184.698 138.66L176.64 133.865Z" fill="#367CFF"/>
<path d="M192.473 130.511L190.249 131.272L181.161 130.32L179.926 130.188L177.723 129.959L177.952 127.864L180.176 128.098L181.412 128.225L190.473 129.177L192.473 130.511Z" fill="#3BA647"/>
<path d="M181.412 128.225L181.161 130.32L179.926 130.188L180.177 128.098L181.412 128.225Z" fill="white"/>
<path d="M182.063 130.254C182.514 129.92 182.987 129.615 183.479 129.341C183.979 129.05 184.505 128.805 185.051 128.61C185.353 128.5 185.664 128.418 185.982 128.365C186.161 128.337 186.341 128.323 186.523 128.323L186.942 128.344C187.503 128.382 188.059 128.473 188.603 128.615C188.752 128.654 188.882 128.744 188.971 128.869C189.059 128.994 189.099 129.145 189.085 129.296C189.07 129.448 189.002 129.589 188.891 129.695C188.781 129.802 188.636 129.866 188.482 129.878L188.445 129.88L186.94 129.989L186.567 130.019C186.484 130.031 186.402 130.048 186.321 130.07C186.122 130.126 185.928 130.199 185.741 130.289C185.312 130.497 184.897 130.731 184.499 130.99C184.091 131.256 183.664 131.548 183.289 131.826L183.272 131.839C183.058 131.992 182.792 132.056 182.531 132.018C182.269 131.98 182.034 131.842 181.875 131.634C181.716 131.427 181.646 131.166 181.681 130.908C181.716 130.651 181.852 130.417 182.06 130.257L182.063 130.254Z" fill="#E98862"/>
<path d="M358.066 303.343H351.927V310H358.066V303.343Z" fill="#749ABD"/>
<path d="M416.475 303.343H410.336V310H416.475V303.343Z" fill="#749ABD"/>
<path d="M421.759 227.438H396.001V304.115H421.759V227.438Z" fill="#749ABD"/>
<path d="M351.848 229.137H325.47V303.343H351.848V229.137Z" fill="#749ABD"/>
<path d="M397.737 304.115H323.735V227.44H397.737V304.115ZM327.204 300.701H394.267V230.852H327.205L327.204 300.701Z" fill="#012C52"/>
<path d="M397.737 304.115H323.735V261.839H397.737V304.115ZM327.204 300.701H394.267V265.255H327.205L327.204 300.701Z" fill="#012C52"/>
<path d="M334.601 303.343H328.462V310H334.601V303.343Z" fill="#012C52"/>
<path d="M393.01 303.343H386.871V310H393.01V303.343Z" fill="#012C52"/>
<path d="M383.351 255.655H353.894V262.217H383.351V255.655Z" fill="#749ABD"/>
<path d="M383.857 242.548H354.4V249.109H383.857V242.548Z" fill="#749ABD"/>
<path d="M373.299 255.655H342.148V262.217H373.299V255.655Z" fill="#012C52"/>
<g opacity="0.62">
<path d="M370.756 255.655H369.244V262.217H370.756V255.655Z" fill="#749ABD"/>
</g>
<g opacity="0.62">
<path d="M367.732 255.655H366.22V262.217H367.732V255.655Z" fill="#749ABD"/>
</g>
<path d="M345.719 261.052C346.907 261.052 347.87 260.105 347.87 258.936C347.87 257.768 346.907 256.82 345.719 256.82C344.531 256.82 343.568 257.768 343.568 258.936C343.568 260.105 344.531 261.052 345.719 261.052Z" fill="#F3F5FD"/>
<path d="M373.805 242.548H342.654V249.109H373.805V242.548Z" fill="#012C52"/>
<path d="M366.398 244.025H344.66V247.631H366.398V244.025Z" fill="#F3F5FD"/>
<g opacity="0.62">
<path d="M371.262 242.548H368.401V249.109H371.262V242.548Z" fill="#749ABD"/>
</g>
<path d="M356.296 255.663H385.753V249.101H356.296V255.663Z" fill="#749ABD"/>
<path d="M344.55 255.663H375.701V249.101H344.55V255.663Z" fill="#F3F5FD"/>
<path d="M347.093 255.663H348.605V249.101H347.093V255.663Z" fill="#012C52"/>
<path d="M350.117 255.663H351.629V249.101H350.117V255.663Z" fill="#012C52"/>
<path d="M372.13 254.498C373.318 254.498 374.281 253.551 374.281 252.382C374.281 251.214 373.318 250.266 372.13 250.266C370.942 250.266 369.979 251.214 369.979 252.382C369.979 253.551 370.942 254.498 372.13 254.498Z" fill="#012C52"/>
<path d="M367.71 250.774H353.959V253.991H367.71V250.774Z" fill="#012C52"/>
<path d="M372.772 196.693H372.24V209.636H372.772V196.693Z" fill="#749ABD"/>
<path d="M372.505 211.353C373.195 211.353 373.755 210.803 373.755 210.124C373.755 209.446 373.195 208.896 372.505 208.896C371.816 208.896 371.256 209.446 371.256 210.124C371.256 210.803 371.816 211.353 372.505 211.353Z" fill="#749ABD"/>
<path d="M366.409 186.554L366.185 225.508H360.138C360.008 225.505 359.878 225.528 359.757 225.576C359.635 225.623 359.525 225.694 359.431 225.784C359.338 225.873 359.264 225.981 359.213 226.099C359.163 226.218 359.136 226.345 359.136 226.473C359.136 226.602 359.163 226.729 359.213 226.847C359.264 226.966 359.338 227.073 359.431 227.163C359.525 227.253 359.635 227.323 359.757 227.371C359.878 227.418 360.008 227.441 360.138 227.438H373.81C374.067 227.433 374.311 227.329 374.491 227.149C374.671 226.968 374.771 226.726 374.771 226.473C374.771 226.221 374.671 225.978 374.491 225.798C374.311 225.617 374.067 225.513 373.81 225.508H368.148L368.371 186.551" fill="#749ABD"/>
<path d="M378.991 204.471H354.96L355.101 182.312H378.85L378.991 204.471Z" fill="#012C52"/>
<path d="M67.7253 221.307C66.3988 220.882 65.0383 221.361 63.7361 222.334C65.4512 218.074 66.1591 214.225 63.2268 214.052C61.1752 213.93 59.6034 215.479 58.4092 217.681C57.9893 213.81 56.9061 210.925 54.4787 211.88C51.8142 212.931 51.4086 216.532 51.8129 220.3C50.6393 218.375 49.3751 217.302 48.2279 218.43C44.8028 221.8 53.2093 231.294 53.2093 231.294H55.2972L56.4884 232.569C56.2474 233.07 56.1152 233.369 56.1152 233.369L57.627 236.398C57.627 236.398 73.2271 223.08 67.7253 221.307Z" fill="#3BA647"/>
<path d="M63.9806 243.181H52.165L50.1868 229.613H65.9584L63.9806 243.181Z" fill="#749ABD"/>
<path d="M43.3895 248.599L30.8206 308.897C30.7401 309.211 30.555 309.491 30.2948 309.69C30.0346 309.89 29.714 309.998 29.3841 309.998C29.1589 309.998 28.9367 309.948 28.7344 309.851C28.5321 309.754 28.3549 309.612 28.2165 309.438C28.078 309.263 27.9818 309.06 27.9353 308.843C27.8888 308.626 27.8931 308.402 27.9479 308.187L40.6961 247.195L43.3895 248.599Z" fill="#749ABD"/>
<path d="M72.916 248.505L85.4849 308.802C85.5651 309.117 85.75 309.396 86.0102 309.596C86.2704 309.796 86.591 309.904 86.9211 309.904C87.1463 309.904 87.3685 309.854 87.5709 309.756C87.7732 309.659 87.9504 309.518 88.0889 309.343C88.2274 309.168 88.3235 308.965 88.37 308.748C88.4165 308.532 88.4121 308.307 88.3572 308.092L75.6095 247.099L72.916 248.505Z" fill="#749ABD"/>
<path d="M86.125 242.704H30.1809C28.7664 242.704 27.6196 243.832 27.6196 245.223V250.769C27.6196 252.161 28.7664 253.289 30.1809 253.289H86.125C87.5396 253.289 88.6863 252.161 88.6863 250.769V245.223C88.6863 243.832 87.5396 242.704 86.125 242.704Z" fill="#012C52"/>
</g>
<defs>
<clipPath id="clip0_119_1202">
<rect width="449" height="310" fill="white"/>
</clipPath>
</defs>
</svg>
