<svg width="532" height="408" viewBox="0 0 532 408" fill="none" xmlns="http://www.w3.org/2000/svg">
<g clip-path="url(#clip0_119_1284)">
<path d="M283.206 50.5735L10.0942 405.249H406.471L467.625 109.705" fill="#1762A5"/>
<path d="M492.414 177.248H351C351.801 171.874 354.739 166.89 359.229 164.458C364.782 161.448 371.531 162.337 377.797 163.114C384.064 163.892 390.978 164.326 396.121 160.664C398.709 158.821 400.539 156.134 402.635 153.744C408.623 146.906 418.066 142.229 426.826 144.643C431.235 145.858 434.997 148.698 439.177 150.553C443.569 152.494 448.369 153.328 453.158 152.982C458.096 152.616 463.009 151 467.906 151.725C474.115 152.649 479.2 157.209 482.883 162.297C486.371 167.114 488.86 171.789 492.414 177.248Z" fill="#CAD0D7"/>
<path d="M186.33 193.664H4.75148C3.92106 192.053 3.4369 190.286 3.33017 188.477C3.22343 186.667 3.49647 184.856 4.13173 183.158C4.88803 181.257 6.08663 179.563 7.62811 178.217C9.16958 176.872 11.0095 175.913 12.9952 175.422C18.9231 174.014 25.6236 176.902 31.0273 174.09C35.2204 171.906 37.1576 166.977 38.0511 162.337C38.9445 157.697 39.1955 152.794 41.4478 148.639C45.2329 141.662 54.2187 138.545 61.978 140.208C69.7372 141.871 76.1805 147.527 80.4243 154.235C82.1694 156.993 83.7549 160.11 86.631 161.65C89.9513 163.426 94.0845 162.58 97.4947 160.99C100.905 159.399 104.002 157.114 107.572 155.931C114.78 153.544 123.398 156.459 127.684 162.732C130.749 167.216 132.033 173.39 136.846 175.903C138.829 176.936 141.128 177.154 143.361 177.207C152.271 177.423 161.429 175.347 169.954 177.941C173.701 179.139 177.125 181.178 179.963 183.903C182.802 186.629 184.98 189.967 186.33 193.664Z" fill="#BEBEBE"/>
<path d="M404.139 102.077C408.891 86.6093 394.786 68.5465 372.635 61.7332C350.483 54.9198 328.674 61.9359 323.922 77.404C319.17 92.8721 333.276 110.935 355.427 117.748C377.578 124.562 399.387 117.545 404.139 102.077Z" fill="#A0BED9"/>
<path d="M481.249 112.88C479.464 118.69 467.372 120.782 448.841 119.533C426.508 118.035 394.816 111.678 360.527 101.132C326.238 90.5846 296.46 78.0336 277.136 66.7234C261.103 57.3366 252.275 48.8113 254.06 43.0032C256.16 36.1698 272.528 34.4805 296.871 37.3238C318.149 39.809 345.522 45.7551 374.776 54.7542C404.031 63.7534 430.019 74.2187 449.017 84.1212C470.754 95.449 483.347 106.047 481.249 112.88Z" fill="#012C52"/>
<path d="M448.019 101.406C427.206 100.008 397.668 94.0847 365.713 84.2561C333.758 74.4275 306.001 62.7287 287.993 52.1884C292.277 41.941 298.526 32.6323 306.386 24.7878C327.787 3.42675 359.784 -5.73264 390.459 3.70322C421.135 13.1391 442.466 38.7005 448.182 68.4039C450.28 79.3101 450.224 90.5216 448.019 101.406Z" fill="#083155"/>
<path d="M286.781 128.988L289.65 125.238C289.65 125.238 286.877 119.796 280.844 119.802C278.845 119.802 278.811 122.065 279.403 122.423C281.361 123.606 283.393 124.549 284.421 126.225C283.543 126.057 282.326 125.9 282.243 126.289C282.024 127.316 286.781 128.988 286.781 128.988Z" fill="#E98862"/>
<path d="M297.286 163.486L289.83 159.02L299.374 143.065L283.991 128.996L289.852 122.578L307.856 139.042C308.595 139.718 309.078 140.629 309.224 141.621C309.369 142.612 309.167 143.624 308.653 144.484L297.286 163.486Z" fill="#367CFF"/>
<path d="M270.562 269.862L269.511 261.554C272.653 261.156 276.421 260.651 277.03 260.529L276.934 260.552L278.96 268.677C278.717 268.735 277.976 268.92 270.562 269.862Z" fill="#E98862"/>
<path d="M269.563 280.757C269.609 280.978 269.7 281.186 269.83 281.37C269.961 281.553 270.128 281.708 270.32 281.824C270.513 281.94 270.728 282.015 270.951 282.045C271.174 282.074 271.401 282.057 271.617 281.995C271.917 281.908 272.186 281.738 272.392 281.504C272.599 281.27 272.734 280.982 272.782 280.673L274.022 270.469C274.045 270.272 274.025 270.071 273.964 269.882C273.903 269.693 273.802 269.519 273.667 269.372C272.488 268.247 271.7 266.772 271.421 265.165C271.254 263.903 271.445 262.62 271.972 261.462C272.027 261.358 272.051 261.241 272.041 261.125C272.032 261.008 271.99 260.896 271.919 260.803C271.849 260.709 271.753 260.638 271.644 260.597C271.534 260.556 271.416 260.546 271.301 260.57L266.635 261.528C266.497 261.557 266.367 261.612 266.25 261.691C266.134 261.77 266.034 261.871 265.957 261.988C265.88 262.106 265.827 262.237 265.801 262.376C265.775 262.514 265.776 262.656 265.805 262.793L269.563 280.757Z" fill="#C1D8ED"/>
<path d="M350.932 294.306C350.818 291.138 350.653 287.337 350.587 286.72L350.6 286.816L358.869 285.528C358.908 285.776 359.024 286.531 359.296 294.003L350.932 294.306Z" fill="#E98862"/>
<path d="M370.055 295.976C370.278 295.949 370.494 295.877 370.688 295.764C370.883 295.65 371.051 295.498 371.184 295.316C371.317 295.135 371.411 294.927 371.461 294.708C371.51 294.488 371.513 294.261 371.471 294.039C371.412 293.733 371.266 293.45 371.052 293.223C370.837 292.996 370.562 292.836 370.26 292.76L360.214 290.611C360.02 290.57 359.818 290.571 359.625 290.615C359.431 290.659 359.249 290.745 359.091 290.866C357.864 291.94 356.326 292.592 354.701 292.726C353.43 292.779 352.17 292.474 351.064 291.845C350.965 291.781 350.851 291.747 350.734 291.746C350.617 291.745 350.503 291.777 350.403 291.839C350.304 291.901 350.224 291.989 350.174 292.095C350.123 292.2 350.103 292.318 350.116 292.434L350.651 297.17C350.667 297.31 350.711 297.445 350.779 297.568C350.847 297.691 350.939 297.799 351.049 297.886C351.159 297.974 351.285 298.039 351.42 298.077C351.555 298.116 351.697 298.127 351.836 298.111L370.055 295.976Z" fill="#C1D8ED"/>
<path d="M352.343 238.132C348.074 230.11 322.755 196.418 320.039 192.778L293.404 206.97C293.404 206.97 301.075 246.383 301.173 247.537L274.135 258.131L277.658 272.459L312.602 262.519C314.526 262.121 316.249 261.06 317.471 259.52C318.693 257.981 319.335 256.061 319.286 254.096C319.286 254.096 315.188 218.943 315.131 218.287L336.942 242.329L347.897 290.023L362.493 287.928C362.493 287.928 354.069 241.377 352.343 238.132Z" fill="#262626"/>
<path d="M237.892 147.164L234.375 150.316C234.375 150.316 228.668 147.078 228.211 141.058C228.06 139.064 230.311 138.857 230.714 139.42C232.042 141.281 233.209 144.126 234.958 145.023C234.723 144.159 234.473 142.956 234.855 142.845C235.86 142.547 237.892 147.164 237.892 147.164Z" fill="#E98862"/>
<path d="M291.509 209.995C288.798 206.651 289.722 201.395 284.883 194.563C280.044 187.731 267.576 183.447 269.069 174.693C269.503 172.156 271.393 169.37 274.518 167.153C276.041 168.813 287.129 160.973 285.947 159.123C286.375 158.828 286.706 158.601 286.918 158.467C298.037 151.283 301.993 166.931 308.278 176.031C315.628 186.687 319.888 186.656 320.771 190.884C321.624 194.981 295.77 215.255 291.509 209.995Z" fill="#367CFF"/>
<path d="M285.157 166.616C281.34 169.717 276.041 168.813 274.518 167.153C274.523 167.148 274.523 167.143 274.528 167.143C278.468 164.357 283.623 160.714 285.947 159.123C287.129 160.972 288.018 164.291 285.157 166.616Z" fill="#E98862"/>
<path d="M272.878 179.404L249.042 172.996C248.057 172.731 247.197 172.127 246.612 171.291L231.325 149.472L238.44 144.481L252.821 165.007L275.132 171.006L272.878 179.404Z" fill="#367CFF"/>
<path d="M275.967 167.362C275.967 167.362 277.837 164.43 273.118 157.491L278.058 153.337C278.058 153.337 281.133 160.215 285.099 160.704L275.967 167.362Z" fill="#E98862"/>
<g opacity="0.15">
<path d="M283.195 159.979L276.623 159.068L280.203 156.989C281.005 158.164 282.02 159.178 283.195 159.979Z" fill="black"/>
</g>
<path d="M268.388 156.442C270.021 158.434 272.41 159.842 274.76 159.452C277.359 159.091 279.831 158.1 281.96 156.564C287.722 152.643 278.741 139.572 274.361 138.528C269.98 137.484 262.518 143.949 264.023 148.996C264.802 151.606 266.834 154.546 268.388 156.442Z" fill="#E98862"/>
<path d="M280.825 141.508C280.825 141.508 274.108 132.408 264.742 140.888C263.268 142.331 262.29 144.205 261.947 146.24C261.029 145.612 259.944 145.275 258.832 145.27C257.72 145.265 256.632 145.594 255.709 146.214C254.786 146.834 254.069 147.716 253.651 148.747C253.234 149.778 253.135 150.911 253.366 151.999C253.598 153.087 254.15 154.081 254.952 154.852C255.753 155.623 256.767 156.136 257.862 156.325C258.958 156.515 260.085 156.371 261.099 155.913C262.112 155.456 262.965 154.705 263.548 153.757C263.637 153.892 263.727 154.026 263.823 154.16C267.907 159.84 274.652 160.015 274.652 160.015C274.652 160.015 275.423 158.226 269.408 148.724C271.85 147.603 277.341 144.869 280.825 141.508Z" fill="#0F1011"/>
<path d="M275.785 149.915C276.103 149.915 276.36 149.657 276.36 149.339C276.36 149.021 276.103 148.764 275.785 148.764C275.467 148.764 275.209 149.021 275.209 149.339C275.209 149.657 275.467 149.915 275.785 149.915Z" fill="#0F1011"/>
<path d="M279.55 147.352C279.868 147.352 280.126 147.094 280.126 146.776C280.126 146.458 279.868 146.2 279.55 146.2C279.233 146.2 278.975 146.458 278.975 146.776C278.975 147.094 279.233 147.352 279.55 147.352Z" fill="#0F1011"/>
<path d="M278.345 145.99C278.285 145.99 278.227 145.97 278.179 145.933C278.132 145.897 278.098 145.845 278.083 145.787C278.068 145.729 278.073 145.667 278.096 145.612C278.12 145.557 278.162 145.511 278.214 145.482L279.55 144.747C279.612 144.718 279.683 144.715 279.748 144.736C279.813 144.758 279.867 144.803 279.9 144.864C279.932 144.924 279.941 144.994 279.924 145.06C279.907 145.127 279.866 145.184 279.808 145.221L278.474 145.954C278.434 145.977 278.39 145.989 278.345 145.99Z" fill="#0F1011"/>
<path d="M274.057 149.079C274.003 149.079 273.95 149.062 273.905 149.032C273.861 149.001 273.826 148.958 273.806 148.908C273.786 148.857 273.782 148.802 273.794 148.749C273.805 148.696 273.833 148.648 273.872 148.611L275.002 147.555C275.055 147.509 275.123 147.486 275.193 147.49C275.263 147.494 275.328 147.524 275.376 147.575C275.424 147.626 275.45 147.694 275.449 147.764C275.448 147.834 275.42 147.9 275.371 147.95L274.242 149.006C274.192 149.053 274.126 149.079 274.057 149.079Z" fill="#0F1011"/>
<path d="M278.25 153.153C279.364 152.66 280.379 151.969 281.246 151.113C281.246 151.113 281.925 152.337 280.531 153.283C279.136 154.23 278.25 153.153 278.25 153.153Z" fill="black"/>
<path d="M273.874 152.041C274.057 152.306 274.185 152.604 274.251 152.919C274.318 153.234 274.322 153.559 274.263 153.875C274.204 154.191 274.082 154.492 273.906 154.762C273.73 155.031 273.503 155.262 273.237 155.443C272.971 155.624 272.672 155.751 272.358 155.816C272.043 155.881 271.718 155.883 271.403 155.822C271.087 155.761 270.786 155.638 270.518 155.46C270.25 155.283 270.02 155.054 269.841 154.787C269.655 154.524 269.525 154.226 269.457 153.911C269.389 153.596 269.384 153.271 269.445 152.955C269.505 152.638 269.628 152.337 269.807 152.069C269.986 151.802 270.217 151.573 270.486 151.396C271.97 150.489 273.117 150.927 273.874 152.041Z" fill="#E98862"/>
<g opacity="0.15">
<path d="M279.58 150.858C279.539 150.882 279.49 150.89 279.443 150.88C279.396 150.871 279.354 150.846 279.325 150.808C279.295 150.77 279.28 150.723 279.283 150.675C279.285 150.628 279.304 150.582 279.337 150.548L280.178 149.659L278.567 148.476C278.526 148.445 278.498 148.398 278.491 148.347C278.483 148.295 278.496 148.243 278.527 148.201C278.558 148.159 278.604 148.13 278.655 148.122C278.707 148.113 278.759 148.125 278.802 148.155L280.594 149.472C280.617 149.488 280.636 149.51 280.649 149.534C280.663 149.559 280.672 149.586 280.674 149.614C280.677 149.642 280.673 149.671 280.664 149.697C280.655 149.724 280.64 149.748 280.621 149.769L279.626 150.822C279.612 150.836 279.597 150.848 279.58 150.858Z" fill="black"/>
</g>
<path d="M57.4297 305.305C57.2681 305.631 57.1018 305.955 56.9365 306.279C56.4889 307.16 56.0255 308.037 55.5462 308.91C55.3913 309.193 55.241 309.479 55.0814 309.76C54.4534 310.884 53.8027 312.002 53.1292 313.113C53.0533 313.238 52.9743 313.363 52.8968 313.488C52.1898 314.641 51.4621 315.788 50.7039 316.927L25.5391 355.027H47.5014L72.6683 316.925C73.4265 315.788 74.1531 314.64 74.8596 313.488C74.9376 313.361 75.0177 313.236 75.0946 313.11C75.1437 313.029 75.1979 312.948 75.2444 312.867C75.8678 311.836 76.4648 310.8 77.0463 309.757C77.2038 309.476 77.3562 309.192 77.5111 308.91C77.9887 308.036 78.4535 307.157 78.9056 306.275C79.0698 305.952 79.2356 305.629 79.3962 305.305C79.9612 304.168 80.5112 303.024 81.0287 301.873H59.0617C58.5443 303.026 57.9978 304.167 57.4297 305.305Z" fill="#9EBCEA"/>
<path d="M108.921 268.572H86.958V355.029H103.48V377.614H86.958V406.118H108.921V377.614H125.443V355.029H108.921V268.572Z" fill="#9EBCEA"/>
<path d="M167.665 384.503C167.841 384.518 168.02 384.528 168.199 384.537C168.321 384.543 168.439 384.556 168.56 384.56C168.757 384.566 168.956 384.569 169.156 384.569H191.12C190.795 384.569 190.479 384.553 190.162 384.537C189.982 384.528 189.804 384.518 189.627 384.503C189.403 384.485 189.182 384.46 188.962 384.433C188.792 384.412 188.621 384.392 188.453 384.366C188.211 384.329 187.974 384.284 187.738 384.236C187.614 384.211 187.487 384.189 187.364 384.161C187.059 384.09 186.758 384.01 186.463 383.921C186.411 383.906 186.359 383.895 186.308 383.879C185.957 383.77 185.612 383.648 185.275 383.512C185.178 383.473 185.085 383.427 184.989 383.385C184.756 383.286 184.524 383.184 184.3 383.072C183.926 382.886 183.56 382.686 183.205 382.465C183.172 382.445 183.141 382.42 183.109 382.399C182.788 382.196 182.475 381.978 182.17 381.746C182.005 381.62 181.845 381.487 181.684 381.351C181.561 381.247 181.435 381.149 181.314 381.041C181.145 380.89 180.982 380.727 180.818 380.566C180.709 380.458 180.597 380.359 180.489 380.244C180.311 380.057 180.139 379.857 179.967 379.658C179.882 379.56 179.793 379.468 179.709 379.366C179.456 379.06 179.211 378.74 178.972 378.407C178.734 378.074 178.504 377.726 178.282 377.364C178.207 377.244 178.137 377.114 178.065 376.99C177.92 376.744 177.774 376.498 177.635 376.24C177.552 376.085 177.475 375.923 177.394 375.764C177.272 375.524 177.149 375.284 177.033 375.034C176.95 374.857 176.873 374.672 176.793 374.49C176.666 374.2 176.534 373.914 176.417 373.612C176.254 373.205 176.098 372.778 175.946 372.342C175.91 372.239 175.875 372.14 175.842 372.038C175.694 371.601 175.548 371.153 175.408 370.688C175.391 370.631 175.375 370.572 175.356 370.515C175.229 370.086 175.106 369.645 174.987 369.19C174.958 369.08 174.928 368.972 174.899 368.86C174.771 368.362 174.647 367.85 174.527 367.324C174.505 367.227 174.485 367.127 174.463 367.029C174.358 366.554 174.256 366.069 174.158 365.571C174.136 365.464 174.115 365.36 174.094 365.252C174.024 364.89 173.96 364.515 173.894 364.143C173.842 363.844 173.786 363.551 173.735 363.244C173.673 362.87 173.616 362.48 173.558 362.095C173.51 361.785 173.461 361.481 173.416 361.165C173.358 360.758 173.306 360.335 173.252 359.917C173.212 359.603 173.169 359.297 173.131 358.976C173.079 358.533 173.028 358.072 172.981 357.616C172.947 357.301 172.91 356.996 172.878 356.675C172.826 356.17 172.783 355.647 172.737 355.125C172.712 354.837 172.685 354.556 172.659 354.266C172.608 353.654 172.565 353.023 172.521 352.39C172.506 352.172 172.488 351.963 172.474 351.743C172.418 350.884 172.366 350.007 172.319 349.112C172.31 348.933 172.304 348.746 172.295 348.566C172.261 347.842 172.228 347.114 172.201 346.366C172.198 346.283 172.196 346.196 172.193 346.112C172.166 345.343 172.143 344.56 172.123 343.765C172.117 343.492 172.111 343.215 172.105 342.939C172.091 342.291 172.08 341.634 172.072 340.97C172.068 340.694 172.064 340.419 172.061 340.14C172.052 339.22 172.045 338.291 172.045 337.34C172.045 336.351 172.052 335.382 172.062 334.426C172.065 334.116 172.071 333.812 172.075 333.504C172.085 332.864 172.094 332.227 172.108 331.602C172.116 331.248 172.126 330.9 172.135 330.55C172.15 329.982 172.166 329.417 172.187 328.861C172.199 328.507 172.212 328.156 172.226 327.807C172.247 327.266 172.271 326.731 172.296 326.202C172.312 325.864 172.327 325.526 172.345 325.193C172.374 324.649 172.406 324.115 172.439 323.585C172.457 323.289 172.475 322.988 172.495 322.696C172.538 322.059 172.585 321.436 172.634 320.819C172.648 320.649 172.659 320.474 172.673 320.306C172.738 319.522 172.809 318.755 172.885 318.004C172.895 317.9 172.907 317.8 172.918 317.697C172.981 317.084 173.047 316.483 173.117 315.894C173.138 315.723 173.158 315.553 173.179 315.385C173.261 314.72 173.346 314.066 173.437 313.431C173.448 313.357 173.459 313.285 173.47 313.212C173.553 312.64 173.641 312.083 173.731 311.535C173.757 311.38 173.783 311.225 173.809 311.07C173.912 310.469 174.016 309.881 174.129 309.308C174.138 309.264 174.147 309.222 174.156 309.178C174.259 308.645 174.371 308.128 174.484 307.621C174.516 307.481 174.547 307.342 174.579 307.204C174.664 306.832 174.754 306.472 174.844 306.113C174.899 305.895 174.952 305.674 175.009 305.461C175.104 305.1 175.204 304.754 175.304 304.409C175.356 304.236 175.403 304.056 175.454 303.886C175.597 303.414 175.745 302.958 175.897 302.516C175.909 302.482 175.92 302.445 175.931 302.413C176.103 301.917 176.281 301.44 176.465 300.981C176.629 300.567 176.802 300.172 176.978 299.783C177.03 299.671 177.081 299.562 177.133 299.453C177.272 299.157 177.416 298.867 177.563 298.585C177.611 298.492 177.658 298.397 177.707 298.305C177.898 297.95 178.095 297.605 178.297 297.272C178.349 297.189 178.4 297.111 178.452 297.029C178.615 296.771 178.78 296.516 178.95 296.271C179.028 296.16 179.108 296.052 179.188 295.943C179.34 295.737 179.495 295.53 179.653 295.333C179.738 295.226 179.824 295.12 179.911 295.016C180.078 294.817 180.249 294.625 180.423 294.437C180.501 294.352 180.578 294.264 180.659 294.179C181.156 293.663 181.691 293.185 182.26 292.749C182.349 292.681 182.441 292.618 182.53 292.553C182.727 292.411 182.925 292.272 183.127 292.139C183.231 292.071 183.341 292.004 183.449 291.939C183.647 291.818 183.848 291.704 184.052 291.595C184.159 291.538 184.266 291.479 184.374 291.425C184.611 291.306 184.852 291.196 185.097 291.092C185.175 291.059 185.252 291.021 185.328 290.988C185.651 290.857 185.981 290.738 186.317 290.632C186.398 290.606 186.482 290.585 186.564 290.561C186.822 290.484 187.084 290.412 187.35 290.349C187.471 290.321 187.596 290.297 187.719 290.27C187.955 290.22 188.194 290.176 188.436 290.137C188.567 290.117 188.698 290.096 188.831 290.079C189.084 290.045 189.342 290.018 189.602 289.997C189.721 289.986 189.839 289.973 189.96 289.966C190.339 289.941 190.724 289.926 191.117 289.926H169.157C168.765 289.926 168.383 289.941 168 289.966C167.88 289.973 167.762 289.986 167.643 289.997C167.384 290.018 167.126 290.045 166.871 290.079C166.739 290.096 166.607 290.117 166.476 290.137C166.235 290.176 165.996 290.22 165.76 290.27C165.636 290.296 165.513 290.322 165.391 290.349C165.125 290.412 164.863 290.484 164.605 290.561C164.523 290.585 164.438 290.606 164.357 290.632C164.021 290.738 163.692 290.857 163.369 290.988C163.29 291.02 163.214 291.058 163.136 291.092C162.893 291.195 162.653 291.305 162.417 291.424C162.308 291.475 162.201 291.537 162.094 291.594C161.89 291.704 161.689 291.818 161.491 291.938C161.383 292.003 161.276 292.069 161.17 292.138C160.968 292.268 160.769 292.407 160.573 292.551C160.483 292.617 160.391 292.679 160.302 292.747C160.024 292.96 159.75 293.182 159.485 293.419L159.48 293.422C159.213 293.661 158.955 293.914 158.701 294.177C158.62 294.26 158.543 294.349 158.463 294.435C158.291 294.622 158.12 294.813 157.954 295.012C157.866 295.115 157.78 295.223 157.696 295.331C157.539 295.528 157.384 295.73 157.231 295.938C157.151 296.048 157.071 296.156 156.993 296.268C156.823 296.512 156.658 296.765 156.495 297.023C156.444 297.106 156.392 297.185 156.34 297.269C156.329 297.288 156.316 297.305 156.304 297.325C156.114 297.639 155.93 297.967 155.75 298.302C155.702 298.394 155.654 298.489 155.606 298.582C155.459 298.864 155.316 299.153 155.177 299.45C155.125 299.559 155.074 299.668 155.022 299.78C154.845 300.169 154.673 300.565 154.509 300.978C154.49 301.022 154.473 301.067 154.457 301.111C154.292 301.529 154.132 301.962 153.977 302.411C153.967 302.439 153.957 302.47 153.948 302.498C153.794 302.946 153.644 303.408 153.5 303.885C153.448 304.054 153.4 304.232 153.35 304.406C153.25 304.752 153.15 305.1 153.054 305.461C152.998 305.672 152.945 305.892 152.89 306.108C152.831 306.346 152.768 306.577 152.71 306.821C152.68 306.947 152.652 307.079 152.623 307.205C152.592 307.341 152.561 307.478 152.53 307.616C152.416 308.127 152.305 308.65 152.199 309.184C152.192 309.225 152.183 309.264 152.175 309.304C152.063 309.877 151.957 310.469 151.854 311.071C151.828 311.223 151.802 311.376 151.777 311.53C151.687 312.079 151.599 312.638 151.515 313.211C151.505 313.285 151.493 313.356 151.483 313.43C151.392 314.067 151.306 314.721 151.224 315.387C151.204 315.553 151.184 315.721 151.164 315.888C151.094 316.478 151.027 317.078 150.964 317.689C150.953 317.793 150.941 317.896 150.931 318.006C150.926 318.045 150.922 318.083 150.918 318.122C150.847 318.834 150.781 319.562 150.719 320.305C150.705 320.473 150.693 320.648 150.68 320.818C150.628 321.435 150.583 322.058 150.541 322.695C150.52 322.986 150.503 323.286 150.485 323.581C150.452 324.114 150.42 324.65 150.391 325.197C150.373 325.526 150.358 325.86 150.342 326.194C150.317 326.726 150.294 327.264 150.272 327.808C150.258 328.156 150.245 328.507 150.233 328.86C150.214 329.416 150.198 329.98 150.181 330.549C150.172 330.899 150.162 331.247 150.155 331.601C150.141 332.226 150.131 332.863 150.122 333.503C150.118 333.813 150.111 334.113 150.108 334.425C150.098 335.381 150.092 336.35 150.092 337.339C150.092 338.29 150.098 339.219 150.107 340.139C150.11 340.418 150.114 340.693 150.118 340.969C150.127 341.633 150.138 342.289 150.152 342.938C150.157 343.214 150.163 343.491 150.169 343.764C150.189 344.557 150.212 345.339 150.239 346.111C150.242 346.195 150.244 346.282 150.247 346.365V346.423C150.274 347.153 150.307 347.862 150.341 348.57C150.349 348.748 150.355 348.932 150.364 349.111C150.409 350.007 150.46 350.884 150.516 351.742C150.531 351.973 150.549 352.192 150.567 352.42C150.611 353.041 150.654 353.661 150.703 354.262C150.729 354.576 150.759 354.875 150.786 355.183C150.83 355.681 150.873 356.184 150.921 356.669C150.955 357.003 150.993 357.322 151.028 357.651C151.076 358.093 151.122 358.541 151.174 358.972C151.214 359.301 151.257 359.616 151.298 359.938C151.35 360.348 151.402 360.765 151.459 361.16C151.504 361.482 151.554 361.79 151.602 362.104C151.66 362.486 151.717 362.872 151.778 363.241C151.83 363.551 151.884 363.844 151.938 364.145C151.991 364.445 152.044 364.768 152.101 365.068C152.112 365.129 152.125 365.188 152.137 365.248C152.158 365.357 152.18 365.462 152.201 365.57C152.299 366.067 152.401 366.551 152.506 367.025C152.527 367.123 152.549 367.224 152.571 367.322C152.691 367.849 152.815 368.36 152.943 368.859C152.971 368.97 153 369.078 153.03 369.187C153.149 369.641 153.272 370.082 153.4 370.512C153.416 370.569 153.432 370.629 153.451 370.685C153.591 371.15 153.736 371.599 153.886 372.036C153.92 372.139 153.955 372.238 153.989 372.339C154.144 372.775 154.299 373.202 154.46 373.609C154.498 373.705 154.537 373.801 154.576 373.896C154.66 374.1 154.751 374.291 154.838 374.489C154.917 374.67 154.992 374.855 155.076 375.031C155.193 375.282 155.317 375.522 155.438 375.763C155.518 375.918 155.595 376.083 155.677 376.236C155.817 376.495 155.964 376.745 156.111 376.993C156.182 377.115 156.251 377.242 156.323 377.361C156.544 377.717 156.772 378.062 157.006 378.394L157.016 378.409C157.254 378.742 157.499 379.06 157.75 379.365C157.835 379.469 157.924 379.561 158.009 379.661C158.18 379.859 158.351 380.058 158.529 380.244C158.636 380.355 158.747 380.457 158.856 380.564C159.02 380.726 159.184 380.889 159.353 381.041C159.474 381.149 159.599 381.247 159.723 381.351C159.855 381.462 159.985 381.58 160.121 381.685C160.149 381.707 160.18 381.724 160.209 381.746C160.514 381.979 160.828 382.197 161.149 382.4C161.181 382.421 161.212 382.445 161.245 382.465C161.599 382.686 161.968 382.887 162.34 383.073C162.365 383.086 162.391 383.102 162.414 383.114C162.614 383.212 162.821 383.297 163.027 383.385C163.123 383.427 163.217 383.473 163.315 383.512C163.646 383.646 163.984 383.766 164.329 383.874L164.346 383.879C164.398 383.894 164.449 383.906 164.501 383.921C164.797 384.009 165.097 384.09 165.403 384.16C165.526 384.188 165.652 384.212 165.776 384.235C165.946 384.27 166.115 384.31 166.292 384.339C166.358 384.35 166.427 384.355 166.494 384.366C166.661 384.392 166.833 384.412 167.004 384.433C167.22 384.46 167.441 384.484 167.665 384.503Z" fill="#9EBCEA"/>
<path d="M238.755 350.526C238.814 349.69 238.858 348.831 238.905 347.977C238.936 347.412 238.974 346.857 238.999 346.285C239.043 345.32 239.071 344.331 239.099 343.344C239.113 342.857 239.135 342.383 239.146 341.891C239.178 340.4 239.196 338.884 239.198 337.343C239.198 336.017 239.181 334.714 239.155 333.424C239.146 333.022 239.133 332.626 239.122 332.227C239.107 331.667 239.096 331.099 239.076 330.545C239.062 330.161 239.042 329.786 239.025 329.408C239.012 329.116 239 328.825 238.985 328.535C238.927 327.339 238.859 326.158 238.779 324.993C238.768 324.838 238.754 324.693 238.743 324.541C238.666 323.502 238.579 322.477 238.481 321.467C238.454 321.195 238.429 320.922 238.401 320.651C238.288 319.535 238.164 318.429 238.026 317.348C238.006 317.19 237.983 317.036 237.962 316.878C237.836 315.92 237.7 314.975 237.555 314.044C237.515 313.793 237.477 313.541 237.436 313.292C237.278 312.32 237.114 311.359 236.934 310.417C236.922 310.35 236.907 310.284 236.894 310.217C236.866 310.07 236.835 309.928 236.806 309.782C236.628 308.877 236.44 307.987 236.242 307.11C236.196 306.911 236.153 306.71 236.107 306.512C235.885 305.555 235.651 304.615 235.404 303.692C235.353 303.503 235.301 303.318 235.249 303.131C235.021 302.298 234.783 301.477 234.534 300.67C234.494 300.537 234.454 300.4 234.413 300.268C234.135 299.382 233.844 298.514 233.54 297.663C233.471 297.468 233.401 297.276 233.333 297.084C233.028 296.247 232.713 295.422 232.387 294.618C232.376 294.591 232.366 294.566 232.355 294.538C232.352 294.529 232.349 294.521 232.345 294.513C232.128 293.983 231.893 293.476 231.666 292.962C231.498 292.585 231.34 292.196 231.168 291.826C230.909 291.275 230.637 290.748 230.368 290.215C230.206 289.893 230.053 289.561 229.887 289.246C229.577 288.659 229.25 288.098 228.925 287.533C228.785 287.29 228.654 287.035 228.512 286.796C228.037 286.001 227.547 285.228 227.041 284.476C226.59 283.804 226.122 283.161 225.646 282.529C225.537 282.384 225.428 282.239 225.318 282.096C224.845 281.481 224.363 280.88 223.867 280.302C223.803 280.227 223.736 280.156 223.671 280.081C223.216 279.558 222.751 279.051 222.277 278.559C222.164 278.443 222.053 278.324 221.939 278.208C221.416 277.678 220.883 277.166 220.338 276.672C220.234 276.576 220.124 276.485 220.018 276.391C219.526 275.955 219.025 275.533 218.515 275.126C218.412 275.044 218.313 274.959 218.209 274.879C218.158 274.837 218.106 274.792 218.05 274.75C217.505 274.329 216.949 273.927 216.383 273.539C216.244 273.443 216.1 273.354 215.959 273.26C215.469 272.932 214.972 272.616 214.467 272.311C214.26 272.187 214.053 272.066 213.847 271.947C213.358 271.665 212.863 271.395 212.36 271.136C212.181 271.043 212.004 270.946 211.823 270.856C211.75 270.82 211.68 270.779 211.606 270.744C211.038 270.465 210.454 270.204 209.866 269.952C209.734 269.896 209.601 269.841 209.468 269.785C208.778 269.499 208.08 269.226 207.366 268.976C207.296 268.951 207.224 268.929 207.154 268.905C206.78 268.777 206.406 268.646 206.026 268.53C205.696 268.427 205.36 268.332 205.025 268.237C204.934 268.211 204.843 268.182 204.752 268.157C204.014 267.95 203.263 267.768 202.502 267.599C202.362 267.568 202.222 267.537 202.081 267.507C201.435 267.37 200.783 267.241 200.119 267.13C200.012 267.113 199.904 267.099 199.797 267.082C199.638 267.056 199.476 267.035 199.315 267.01C198.59 266.901 197.856 266.807 197.113 266.727C197.006 266.716 196.901 266.701 196.794 266.691C195.979 266.61 195.15 266.55 194.312 266.505C194.122 266.495 193.931 266.487 193.74 266.478C193.507 266.468 193.275 266.453 193.042 266.445C192.409 266.425 191.77 266.415 191.124 266.415H169.157C170.043 266.415 170.913 266.441 171.773 266.478C171.964 266.487 172.155 266.495 172.345 266.505C173.184 266.55 174.013 266.609 174.828 266.691C174.935 266.701 175.04 266.716 175.146 266.727C175.89 266.806 176.625 266.9 177.349 267.01C177.509 267.035 177.671 267.056 177.831 267.082C178.603 267.206 179.365 267.348 180.114 267.507C180.255 267.537 180.394 267.568 180.534 267.599C181.296 267.768 182.048 267.952 182.786 268.157C182.876 268.182 182.965 268.209 183.055 268.236C183.778 268.443 184.488 268.666 185.187 268.905C185.257 268.93 185.329 268.951 185.399 268.976C186.112 269.226 186.811 269.499 187.501 269.785C187.634 269.841 187.766 269.896 187.898 269.952C188.562 270.237 189.214 270.538 189.855 270.856C190.037 270.946 190.213 271.043 190.392 271.136C190.895 271.396 191.391 271.666 191.88 271.947C192.086 272.067 192.293 272.187 192.5 272.308C193.006 272.613 193.505 272.93 193.997 273.259C194.137 273.353 194.28 273.441 194.418 273.536C195.04 273.964 195.649 274.412 196.246 274.88C196.349 274.959 196.447 275.043 196.549 275.124C197.059 275.532 197.56 275.954 198.053 276.39C198.159 276.485 198.267 276.576 198.373 276.673C198.918 277.166 199.452 277.678 199.974 278.208C200.088 278.323 200.199 278.442 200.312 278.559C200.787 279.052 201.252 279.559 201.706 280.081C201.771 280.156 201.838 280.227 201.902 280.302C202.398 280.88 202.88 281.481 203.353 282.095C203.463 282.238 203.573 282.383 203.681 282.529C204.156 283.162 204.623 283.806 205.076 284.476C205.582 285.227 206.072 286.001 206.546 286.796C206.701 287.054 206.845 287.333 206.997 287.598C207.307 288.141 207.624 288.683 207.921 289.244C208.11 289.602 208.283 289.979 208.468 290.344C208.714 290.835 208.966 291.319 209.202 291.824C209.39 292.227 209.564 292.651 209.744 293.061C209.96 293.552 210.184 294.034 210.39 294.538C210.402 294.567 210.413 294.598 210.425 294.626C210.752 295.427 211.064 296.25 211.368 297.083C211.439 297.277 211.509 297.471 211.579 297.666C211.881 298.518 212.173 299.383 212.451 300.269C212.493 300.403 212.532 300.541 212.574 300.675C212.822 301.48 213.059 302.299 213.286 303.131C213.338 303.32 213.39 303.506 213.441 303.695C213.688 304.618 213.922 305.558 214.144 306.514C214.19 306.712 214.234 306.914 214.279 307.113C214.477 307.99 214.665 308.88 214.844 309.783C214.872 309.929 214.903 310.073 214.931 310.219C215.125 311.226 215.304 312.253 215.474 313.293C215.514 313.543 215.553 313.796 215.592 314.049C215.736 314.979 215.872 315.921 215.998 316.874C216.02 317.034 216.043 317.191 216.063 317.352C216.201 318.434 216.326 319.534 216.438 320.65C216.466 320.923 216.49 321.198 216.518 321.473C216.615 322.481 216.702 323.502 216.779 324.536C216.791 324.691 216.805 324.843 216.816 324.998C216.899 326.159 216.966 327.34 217.022 328.534C217.037 328.826 217.049 329.12 217.062 329.413C217.102 330.34 217.132 331.28 217.158 332.227C217.169 332.627 217.183 333.024 217.191 333.428C217.218 334.72 217.235 336.02 217.235 337.347C217.235 338.89 217.218 340.406 217.183 341.894C217.172 342.386 217.151 342.861 217.137 343.347C217.107 344.334 217.08 345.324 217.036 346.288C217.011 346.861 216.973 347.415 216.942 347.98C216.896 348.835 216.851 349.693 216.792 350.53C216.751 351.12 216.699 351.694 216.652 352.275C216.588 353.06 216.526 353.847 216.451 354.615C216.394 355.203 216.328 355.775 216.264 356.353C216.184 357.092 216.103 357.831 216.012 358.553C215.94 359.131 215.857 359.695 215.779 360.262C215.681 360.959 215.583 361.657 215.476 362.336C215.388 362.898 215.291 363.448 215.196 363.999C215.082 364.66 214.966 365.32 214.842 365.966C214.739 366.508 214.628 367.041 214.517 367.572C214.385 368.202 214.251 368.828 214.11 369.443C213.972 370.044 213.83 370.638 213.683 371.225C213.588 371.605 213.494 371.986 213.394 372.362C213.216 373.034 213.028 373.693 212.838 374.345C212.748 374.652 212.662 374.965 212.57 375.269C212.281 376.212 211.983 377.139 211.667 378.04C211.659 378.065 211.649 378.088 211.64 378.113C211.331 378.99 211.01 379.846 210.677 380.682C210.579 380.928 210.475 381.165 210.375 381.408C210.129 382.002 209.879 382.59 209.62 383.165C209.492 383.448 209.362 383.727 209.23 384.006C208.979 384.538 208.723 385.061 208.46 385.574C208.326 385.832 208.194 386.096 208.058 386.349C207.748 386.93 207.43 387.495 207.104 388.051C207.01 388.212 206.921 388.378 206.826 388.537C206.381 389.276 205.923 389.994 205.452 390.691C197.595 402.232 185.497 408.003 169.157 408.003H191.12C207.46 408.003 219.558 402.232 227.415 390.691C227.864 390.03 228.301 389.349 228.725 388.648C228.747 388.612 228.767 388.573 228.789 388.537C228.884 388.378 228.974 388.212 229.067 388.051C229.393 387.495 229.711 386.93 230.021 386.349C230.158 386.094 230.289 385.832 230.422 385.574C230.685 385.06 230.942 384.538 231.193 384.006C231.324 383.727 231.455 383.448 231.583 383.165C231.841 382.591 232.092 382.004 232.338 381.408C232.438 381.165 232.542 380.928 232.64 380.681C232.672 380.603 232.705 380.529 232.736 380.45C233.035 379.692 233.322 378.916 233.599 378.124C233.609 378.095 233.62 378.068 233.631 378.039C233.946 377.137 234.245 376.211 234.533 375.267C234.625 374.967 234.71 374.655 234.799 374.35C234.99 373.695 235.179 373.035 235.358 372.36C235.456 371.988 235.55 371.608 235.645 371.231C235.736 370.865 235.834 370.51 235.922 370.14C235.974 369.913 236.021 369.675 236.074 369.444C236.215 368.829 236.348 368.203 236.48 367.573C236.591 367.043 236.701 366.511 236.805 365.971C236.929 365.322 237.046 364.661 237.16 363.997C237.255 363.448 237.351 362.901 237.439 362.343C237.546 361.66 237.645 360.962 237.742 360.263C237.821 359.695 237.903 359.134 237.975 358.558C238.066 357.834 238.147 357.096 238.227 356.357C238.279 355.911 238.334 355.479 238.379 355.029C238.392 354.895 238.401 354.754 238.414 354.619C238.488 353.851 238.551 353.064 238.615 352.279C238.661 351.691 238.714 351.117 238.755 350.526Z" fill="#9EBCEA"/>
<path d="M292.634 305.308C292.471 305.635 292.304 305.961 292.137 306.287C291.689 307.162 291.229 308.033 290.755 308.901C290.596 309.192 290.441 309.484 290.279 309.774C289.651 310.897 289 312.015 288.328 313.126C288.258 313.241 288.185 313.356 288.115 313.47C287.405 314.629 286.672 315.781 285.915 316.927L260.747 355.027H282.708L307.875 316.925C308.636 315.779 309.367 314.625 310.077 313.466C310.147 313.352 310.219 313.239 310.288 313.125C310.332 313.053 310.378 312.983 310.421 312.911C311.049 311.87 311.652 310.823 312.24 309.772C312.402 309.482 312.556 309.19 312.716 308.899C313.191 308.031 313.652 307.159 314.099 306.283C314.265 305.958 314.432 305.633 314.594 305.306C315.163 304.169 315.712 303.025 316.231 301.873H294.27C293.751 303.026 293.2 304.169 292.634 305.308Z" fill="#9EBCEA"/>
<path d="M360.651 355.029H344.122V268.572H322.159V355.029H338.688V377.614H322.159V406.118H344.122V377.614H360.651V355.029Z" fill="#9EBCEA"/>
<path d="M86.9584 355.027H103.48V377.61H86.9584V406.115H58.5982V377.614H0V357.383L60.1946 268.57H86.9584V355.027ZM59.062 314.763C59.3791 307.364 59.6299 303.068 59.8145 301.875H59.062C56.6956 307.114 53.9008 312.148 50.7062 316.927L25.5393 355.027H58.5982V331.697C58.5982 327.814 58.7532 322.169 59.063 314.763" fill="#367CFF"/>
<path d="M205.072 284.469C213.182 296.512 217.236 314.136 217.234 337.341C217.234 361.364 213.307 379.145 205.452 390.686C197.598 402.227 185.5 407.997 169.158 407.998C153.318 407.998 141.375 402.038 133.328 390.117C125.281 378.197 121.26 360.605 121.264 337.341C121.264 313.072 125.175 295.183 132.997 283.673C140.825 272.166 152.878 266.411 169.157 266.408C184.99 266.408 196.962 272.429 205.072 284.469ZM183.802 373.47C186.813 366.071 188.316 354.028 188.311 337.341C188.311 320.472 186.794 308.351 183.76 300.98C180.725 293.608 175.858 289.925 169.158 289.931C162.328 289.931 157.445 293.614 154.507 300.98C151.56 308.352 150.087 320.473 150.089 337.341C150.089 354.218 151.545 366.308 154.457 373.611C157.369 380.915 162.27 384.567 169.158 384.567C175.917 384.567 180.799 380.868 183.802 373.468" fill="#367CFF"/>
<path d="M322.159 355.027H338.686V377.61H322.159V406.115H293.799V377.614H235.201V357.383L295.396 268.57H322.159V355.027ZM294.27 314.761C294.58 307.362 294.831 303.066 295.023 301.873H294.27C291.898 307.109 289.104 312.143 285.915 316.925L260.748 355.027H293.801V331.697C293.801 327.814 293.958 322.169 294.272 314.763" fill="#367CFF"/>
</g>
<defs>
<clipPath id="clip0_119_1284">
<rect width="532" height="408" fill="white"/>
</clipPath>
</defs>
</svg>
