<svg width="50" height="50" viewBox="0 0 50 50" fill="none" xmlns="http://www.w3.org/2000/svg">
<path fill-rule="evenodd" clip-rule="evenodd" d="M25 45.8333C15.1791 45.8333 10.2686 45.8333 7.21764 42.7823C4.16666 39.7315 4.16666 34.8208 4.16666 25C4.16666 15.1791 4.16666 10.2686 7.21764 7.21765C10.2686 4.16667 15.1791 4.16667 25 4.16667C34.8208 4.16667 39.7314 4.16667 42.7823 7.21765C45.8333 10.2686 45.8333 15.1791 45.8333 25C45.8333 34.8208 45.8333 39.7315 42.7823 42.7823C39.7314 45.8333 34.8208 45.8333 25 45.8333ZM19.1625 15.1042H19.3792C21.251 15.1041 22.8119 15.1041 24.051 15.2706C25.3589 15.4465 26.5398 15.8333 27.4885 16.7822C28.4375 17.7311 28.8244 18.9119 29.0002 20.2198C29.1669 21.459 29.1667 23.0198 29.1667 24.8917V25C29.1667 25.8629 28.4671 26.5625 27.6042 26.5625C26.7412 26.5625 26.0417 25.8629 26.0417 25C26.0417 22.9917 26.0383 21.6425 25.9031 20.6363C25.7737 19.6749 25.5504 19.2634 25.2789 18.9919C25.0075 18.7204 24.596 18.497 23.6346 18.3678C22.6283 18.2325 21.2792 18.2292 19.2708 18.2292C17.2625 18.2292 15.9134 18.2325 14.9071 18.3678C13.9457 18.497 13.5342 18.7204 13.2627 18.9919C12.9912 19.2634 12.7679 19.6749 12.6386 20.6363C12.5033 21.6425 12.5 22.9917 12.5 25C12.5 27.0083 12.5033 28.3575 12.6386 29.3638C12.7679 30.3252 12.9912 30.7367 13.2627 31.0081C13.5342 31.2796 13.9457 31.5029 14.9071 31.6323C15.9134 31.7675 17.2625 31.7708 19.2708 31.7708C20.1338 31.7708 20.8333 32.4704 20.8333 33.3333C20.8333 34.1963 20.1338 34.8958 19.2708 34.8958H19.1624C17.2906 34.8958 15.7298 34.896 14.4907 34.7294C13.1828 34.5535 12.0019 34.1667 11.053 33.2177C10.1041 32.269 9.71732 31.0881 9.54147 29.7802C9.37489 28.541 9.37493 26.9802 9.37499 25.1083V24.8917C9.37493 23.0198 9.37489 21.459 9.54147 20.2198C9.71732 18.9119 10.1041 17.7311 11.053 16.7822C12.0019 15.8333 13.1828 15.4465 14.4907 15.2706C15.7298 15.1041 17.2907 15.1041 19.1625 15.1042ZM35.0929 18.3678C34.0867 18.2325 32.7375 18.2292 30.7292 18.2292C29.8662 18.2292 29.1667 17.5296 29.1667 16.6667C29.1667 15.8037 29.8662 15.1042 30.7292 15.1042H30.8375C32.7094 15.1041 34.2702 15.1041 35.5094 15.2706C36.8173 15.4465 37.9981 15.8333 38.9469 16.7822C39.8958 17.7311 40.2827 18.9119 40.4585 20.2198C40.6252 21.459 40.625 23.0198 40.625 24.8915V25.1083C40.625 26.9802 40.6252 28.541 40.4585 29.7802C40.2827 31.0881 39.8958 32.269 38.9469 33.2177C37.9981 34.1667 36.8173 34.5535 35.5094 34.7294C34.2702 34.896 32.7094 34.8958 30.8375 34.8958H30.6208C28.7489 34.8958 27.1881 34.896 25.9489 34.7294C24.641 34.5535 23.4602 34.1667 22.5114 33.2177C21.5625 32.269 21.1756 31.0881 20.9998 29.7802C20.8332 28.541 20.8333 26.9802 20.8333 25.1083V25C20.8333 24.1371 21.5329 23.4375 22.3958 23.4375C23.2587 23.4375 23.9583 24.1371 23.9583 25C23.9583 27.0083 23.9617 28.3575 24.0969 29.3638C24.2262 30.3252 24.4496 30.7367 24.721 31.0081C24.9925 31.2796 25.4039 31.5029 26.3654 31.6323C27.3717 31.7675 28.7208 31.7708 30.7292 31.7708C32.7375 31.7708 34.0867 31.7675 35.0929 31.6323C36.0544 31.5029 36.4658 31.2796 36.7373 31.0081C37.0087 30.7367 37.2321 30.3252 37.3615 29.3638C37.4967 28.3575 37.5 27.0083 37.5 25C37.5 22.9917 37.4967 21.6425 37.3615 20.6363C37.2321 19.6749 37.0087 19.2634 36.7373 18.9919C36.4658 18.7204 36.0544 18.497 35.0929 18.3678Z" fill="#BF2C0B"/>
</svg>
