<svg width="350" height="310" viewBox="0 0 350 310" fill="none" xmlns="http://www.w3.org/2000/svg">
<path d="M107.415 216.137L287.258 216.137C291.097 216.137 294.209 213.207 294.209 209.592V10.2354C294.209 6.62071 291.097 3.69043 287.258 3.69043L107.415 3.69043C103.575 3.69043 100.463 6.62071 100.463 10.2354L100.463 209.592C100.463 213.207 103.575 216.137 107.415 216.137Z" fill="white"/>
<path d="M100.035 209.593V10.2354C100.037 8.39348 100.816 6.62764 102.199 5.32525C103.582 4.02287 105.458 3.29031 107.414 3.28828H287.258C289.214 3.29031 291.09 4.02287 292.473 5.32525C293.856 6.62764 294.635 8.39348 294.637 10.2354V209.593C294.635 211.435 293.856 213.201 292.473 214.503C291.09 215.806 289.214 216.538 287.258 216.54H107.414C105.458 216.538 103.582 215.806 102.199 214.503C100.816 213.201 100.037 211.435 100.035 209.593ZM107.414 4.09373C105.685 4.09554 104.026 4.74322 102.803 5.89467C101.58 7.04613 100.892 8.60733 100.89 10.2358V209.593C100.892 211.221 101.58 212.783 102.803 213.934C104.026 215.086 105.685 215.733 107.414 215.735H287.258C288.987 215.733 290.646 215.086 291.869 213.934C293.092 212.783 293.78 211.221 293.782 209.593V10.2354C293.78 8.60693 293.092 7.04572 291.869 5.89427C290.645 4.74281 288.987 4.09514 287.258 4.09333L107.414 4.09373Z" fill="#292A2E"/>
<path d="M144.214 309.837C144.153 309.837 144.092 309.825 144.037 309.801C143.981 309.777 143.931 309.742 143.891 309.698C143.851 309.655 143.821 309.603 143.804 309.548C143.787 309.493 143.782 309.434 143.791 309.377L158.089 216.482C158.096 216.429 158.114 216.378 158.143 216.332C158.171 216.285 158.209 216.245 158.254 216.212C158.299 216.18 158.351 216.157 158.406 216.143C158.461 216.13 158.518 216.127 158.574 216.135C158.63 216.142 158.684 216.16 158.733 216.188C158.782 216.215 158.824 216.252 158.858 216.295C158.891 216.338 158.915 216.387 158.928 216.439C158.942 216.491 158.944 216.545 158.935 216.598L144.635 309.493C144.62 309.588 144.57 309.675 144.492 309.738C144.415 309.802 144.317 309.837 144.214 309.837Z" fill="#292A2E"/>
<path d="M250.459 309.837C250.357 309.837 250.258 309.802 250.18 309.739C250.102 309.676 250.052 309.588 250.037 309.493L235.739 216.597C235.725 216.492 235.755 216.386 235.823 216.302C235.89 216.218 235.991 216.163 236.102 216.147C236.212 216.132 236.325 216.159 236.416 216.221C236.506 216.284 236.567 216.377 236.585 216.481L250.885 309.378C250.893 309.435 250.889 309.493 250.872 309.548C250.855 309.604 250.825 309.655 250.785 309.699C250.745 309.742 250.695 309.777 250.639 309.801C250.583 309.825 250.523 309.838 250.461 309.838L250.459 309.837Z" fill="#292A2E"/>
<g opacity="0.1">
<path d="M120.024 106.09L274.649 106.09C277.367 106.09 279.57 104.015 279.57 101.456V23.6768C279.57 21.1176 277.367 19.0429 274.649 19.0429L120.024 19.0429C117.305 19.0429 115.102 21.1176 115.102 23.6768V101.456C115.102 104.015 117.305 106.09 120.024 106.09Z" fill="#367CFF"/>
</g>
<g opacity="0.1">
<path d="M114.928 196.032V121.107C114.929 119.821 115.473 118.589 116.438 117.679C117.404 116.77 118.713 116.259 120.079 116.258H274.165C275.531 116.259 276.84 116.771 277.805 117.68C278.771 118.589 279.314 119.821 279.315 121.107V196.032C279.314 197.318 278.771 198.55 277.805 199.46C276.839 200.369 275.53 200.88 274.164 200.882H120.079C118.713 200.88 117.404 200.369 116.438 199.46C115.472 198.55 114.929 197.318 114.928 196.032Z" fill="#367CFF"/>
</g>
<path d="M259.614 189.823H262.673C263.133 189.823 263.506 189.471 263.506 189.038V134.037C263.506 133.604 263.133 133.253 262.673 133.253H259.614C259.154 133.253 258.781 133.604 258.781 134.037V189.038C258.781 189.471 259.154 189.823 259.614 189.823Z" fill="white"/>
<path opacity="0.3" d="M264.34 189.823H267.398C267.858 189.823 268.231 189.471 268.231 189.038V151.805C268.231 151.371 267.858 151.02 267.398 151.02H264.34C263.879 151.02 263.506 151.371 263.506 151.805V189.038C263.506 189.471 263.879 189.823 264.34 189.823Z" fill="#367CFF"/>
<path d="M221.803 189.823H224.861C225.321 189.823 225.694 189.471 225.694 189.038V183.449C225.694 183.016 225.321 182.665 224.861 182.665H221.803C221.343 182.665 220.97 183.016 220.97 183.449V189.038C220.97 189.471 221.343 189.823 221.803 189.823Z" fill="white"/>
<path opacity="0.3" d="M226.528 189.823H229.586C230.046 189.823 230.419 189.471 230.419 189.038V148.61C230.419 148.177 230.046 147.826 229.586 147.826H226.528C226.067 147.826 225.694 148.177 225.694 148.61V189.038C225.694 189.471 226.067 189.823 226.528 189.823Z" fill="#367CFF"/>
<path d="M240.709 189.823H243.767C244.227 189.823 244.6 189.471 244.6 189.038V156.746C244.6 156.313 244.227 155.962 243.767 155.962H240.709C240.248 155.962 239.875 156.313 239.875 156.746V189.038C239.875 189.471 240.248 189.823 240.709 189.823Z" fill="white"/>
<path opacity="0.3" d="M245.434 189.823H248.492C248.952 189.823 249.325 189.471 249.325 189.038V168.446C249.325 168.013 248.952 167.662 248.492 167.662H245.434C244.974 167.662 244.601 168.013 244.601 168.446V189.038C244.601 189.471 244.974 189.823 245.434 189.823Z" fill="#367CFF"/>
<path d="M165.086 189.823H168.144C168.604 189.823 168.977 189.471 168.977 189.038V144.978C168.977 144.545 168.604 144.193 168.144 144.193H165.086C164.625 144.193 164.252 144.545 164.252 144.978V189.038C164.252 189.471 164.625 189.823 165.086 189.823Z" fill="white"/>
<path opacity="0.3" d="M169.811 189.823H172.869C173.329 189.823 173.702 189.472 173.702 189.039V161.777C173.702 161.344 173.329 160.993 172.869 160.993H169.811C169.351 160.993 168.977 161.344 168.977 161.777V189.039C168.977 189.472 169.351 189.823 169.811 189.823Z" fill="#367CFF"/>
<path d="M202.897 189.823H205.955C206.416 189.823 206.789 189.471 206.789 189.038V152.096C206.789 151.662 206.416 151.311 205.955 151.311H202.897C202.437 151.311 202.064 151.662 202.064 152.096V189.038C202.064 189.471 202.437 189.823 202.897 189.823Z" fill="white"/>
<path opacity="0.3" d="M207.622 189.823H210.68C211.141 189.823 211.514 189.471 211.514 189.038V156.456C211.514 156.022 211.141 155.671 210.68 155.671H207.622C207.162 155.671 206.789 156.022 206.789 156.456V189.038C206.789 189.471 207.162 189.823 207.622 189.823Z" fill="#367CFF"/>
<path d="M183.991 189.823H187.05C187.51 189.823 187.883 189.471 187.883 189.038V134.037C187.883 133.604 187.51 133.253 187.05 133.253H183.991C183.531 133.253 183.158 133.604 183.158 134.037V189.038C183.158 189.471 183.531 189.823 183.991 189.823Z" fill="white"/>
<path opacity="0.3" d="M188.716 189.823H191.775C192.235 189.823 192.608 189.471 192.608 189.038V136.762C192.608 136.329 192.235 135.978 191.775 135.978H188.716C188.256 135.978 187.883 136.329 187.883 136.762V189.038C187.883 189.471 188.256 189.823 188.716 189.823Z" fill="#367CFF"/>
<path d="M146.18 189.823H149.239C149.699 189.823 150.072 189.471 150.072 189.038V134.037C150.072 133.604 149.699 133.253 149.239 133.253H146.18C145.72 133.253 145.347 133.604 145.347 134.037V189.038C145.347 189.471 145.72 189.823 146.18 189.823Z" fill="white"/>
<path opacity="0.3" d="M150.905 189.823H153.963C154.423 189.823 154.796 189.471 154.796 189.038V151.805C154.796 151.371 154.423 151.02 153.963 151.02H150.905C150.445 151.02 150.072 151.371 150.072 151.805V189.038C150.072 189.471 150.445 189.823 150.905 189.823Z" fill="#367CFF"/>
<path d="M127.275 189.823H130.333C130.793 189.823 131.166 189.471 131.166 189.038V156.746C131.166 156.313 130.793 155.962 130.333 155.962H127.275C126.814 155.962 126.441 156.313 126.441 156.746V189.038C126.441 189.471 126.814 189.823 127.275 189.823Z" fill="white"/>
<path opacity="0.3" d="M131.999 189.823H135.057C135.518 189.823 135.891 189.471 135.891 189.038V168.446C135.891 168.013 135.518 167.662 135.057 167.662H131.999C131.539 167.662 131.166 168.013 131.166 168.446V189.038C131.166 189.471 131.539 189.823 131.999 189.823Z" fill="#367CFF"/>
<path opacity="0.2" d="M268.273 46.9783V95.131C268.273 95.3358 268.187 95.5322 268.033 95.6771C267.88 95.8219 267.671 95.9033 267.453 95.9034H127.219C127.001 95.9033 126.793 95.8219 126.639 95.6771C126.485 95.5322 126.399 95.3358 126.399 95.131V69.5677C126.399 69.4322 126.437 69.2989 126.509 69.1815C126.581 69.0641 126.684 68.9665 126.809 68.8988L151.638 55.4022C151.764 55.3335 151.908 55.2978 152.054 55.2988C152.2 55.2999 152.343 55.3377 152.469 55.4083L163.646 61.6973C163.786 61.776 163.947 61.8138 164.11 61.8058C164.272 61.7977 164.429 61.7443 164.559 61.6522L176.295 53.3578C176.415 53.2731 176.557 53.2208 176.706 53.2066C176.855 53.1924 177.005 53.2169 177.14 53.2773L191.623 59.7627C191.778 59.8321 191.952 59.8541 192.121 59.8257C192.289 59.7972 192.444 59.7198 192.564 59.6042L208.644 44.06C208.783 43.9255 208.969 43.8431 209.168 43.8283C209.366 43.8135 209.564 43.8672 209.723 43.9795L220.164 51.3404C220.316 51.4472 220.501 51.5015 220.69 51.4941C220.879 51.4868 221.059 51.4183 221.201 51.3002L228.032 45.5844C228.17 45.4689 228.345 45.4006 228.529 45.3905C228.713 45.3803 228.896 45.4289 229.047 45.5284L238.743 51.9003C238.882 51.9918 239.048 52.0403 239.218 52.0391C239.388 52.038 239.553 51.9872 239.691 51.8939L256.456 40.5343C256.585 40.4469 256.738 40.3965 256.897 40.3894C257.056 40.3822 257.213 40.4186 257.35 40.4941L267.868 46.3101C267.992 46.3783 268.094 46.4759 268.165 46.5932C268.237 46.7104 268.274 46.8432 268.273 46.9783Z" fill="#367CFF"/>
<path opacity="0.61" d="M126.87 68.904C126.942 68.9041 127.013 68.8862 127.075 68.852L151.98 55.3137L163.838 61.9854C163.908 62.0247 163.989 62.0435 164.07 62.0395C164.151 62.0355 164.229 62.0088 164.295 61.9629L176.669 53.2169L191.907 60.0401C191.985 60.0745 192.072 60.0853 192.156 60.0708C192.24 60.0564 192.318 60.0175 192.377 59.9596L209.117 43.7758L220.382 51.7175C220.458 51.7709 220.551 51.7981 220.645 51.7944C220.74 51.7907 220.83 51.7565 220.9 51.6974L228.475 45.3585L238.913 52.2207C238.983 52.2664 239.066 52.2906 239.151 52.2901C239.236 52.2895 239.318 52.2641 239.387 52.2175L256.842 40.393L267.594 46.3383C267.641 46.364 267.692 46.3808 267.745 46.3879C267.799 46.3949 267.853 46.392 267.905 46.3792C267.957 46.3665 268.006 46.3442 268.049 46.3137C268.092 46.2831 268.128 46.2449 268.156 46.2012C268.183 46.1575 268.201 46.1091 268.208 46.0589C268.216 46.0087 268.213 45.9576 268.199 45.9085C268.186 45.8594 268.162 45.8133 268.13 45.7728C268.097 45.7323 268.057 45.6982 268.01 45.6725L257.027 39.5993C256.958 39.5614 256.879 39.5431 256.8 39.5466C256.72 39.5501 256.644 39.5753 256.579 39.619L239.144 51.4305L228.679 44.5527C228.603 44.5028 228.512 44.4785 228.42 44.4835C228.328 44.4886 228.24 44.5227 228.171 44.5805L220.604 50.9121L209.317 42.9559C209.237 42.8997 209.139 42.8727 209.039 42.8801C208.94 42.8876 208.847 42.9288 208.778 42.9961L191.992 59.225L176.795 52.4199C176.727 52.3897 176.652 52.3774 176.578 52.3845C176.503 52.3916 176.432 52.4178 176.372 52.4602L164.019 61.1909L152.192 54.5356C152.129 54.5004 152.058 54.4816 151.984 54.4811C151.911 54.4806 151.84 54.4984 151.776 54.5328L126.662 68.1842C126.584 68.2268 126.523 68.2925 126.488 68.3711C126.454 68.4497 126.448 68.5368 126.471 68.619C126.495 68.7011 126.546 68.7737 126.618 68.8254C126.689 68.8772 126.777 68.9052 126.868 68.9052L126.87 68.904Z" fill="#367CFF"/>
<path d="M35.689 291.938C35.689 291.938 37.6193 301.357 46.9879 301.883C56.3565 302.41 54.3249 309.435 54.3249 309.435H18.5234V292.595L35.689 291.938Z" fill="#367CFF"/>
<path d="M16.0952 120.09C16.0952 120.09 18.7724 117.258 18.7489 123.681C18.6604 147.643 16.943 297.95 16.943 297.95L40.4686 297.764L54.7197 119.116L16.0952 120.09Z" fill="#262626"/>
<path d="M75.8604 291.938C75.8604 291.938 77.7907 301.357 87.1593 301.883C96.5279 302.41 94.4963 309.435 94.4963 309.435H58.6948V292.595L75.8604 291.938Z" fill="#367CFF"/>
<path d="M80.411 121.95C80.411 121.95 83.3499 203.845 83.0446 207.848L80.281 297.328L57.1445 297.731L53.4134 204.61C53.4134 204.61 50.9679 178.923 44.3757 155.071C41.003 142.829 38.9733 130.294 38.3184 117.662L80.411 121.95Z" fill="#262626"/>
<path d="M49.8882 180.014L51.8172 152.236C51.8172 152.236 53.7989 163.784 53.7989 173.738C53.7989 178.603 52.7347 197.865 52.7347 197.865L49.8882 180.014Z" fill="#0A0A0A"/>
<path d="M15.8397 120.087L15.7627 120.091C15.7627 120.091 15.8183 118.694 15.8397 120.087Z" fill="#333333"/>
<path d="M15.9363 120.087L15.8594 120.091C15.8594 120.091 15.915 118.694 15.9363 120.087Z" fill="#333333"/>
<path d="M144.85 53.6162C144.708 53.352 144.483 53.1357 144.205 52.9972C143.927 52.8588 143.61 52.805 143.299 52.8434C143.301 52.8257 143.3 52.8076 143.293 52.7908C143.287 52.7739 143.276 52.7588 143.262 52.7466C143.248 52.7345 143.232 52.7257 143.213 52.7211C143.195 52.7165 143.176 52.7162 143.157 52.7202L144.209 52.0106C144.524 51.8077 144.75 51.5043 144.846 51.1565C144.942 50.8087 144.9 50.4401 144.73 50.1187C144.55 49.8063 144.254 49.5678 143.899 49.4495C143.543 49.3311 143.154 49.3414 142.806 49.4783C142.808 49.4646 142.798 49.4509 142.796 49.438L143.228 49.1462C143.524 48.9539 143.74 48.6714 143.84 48.3464C143.939 48.0214 143.917 47.6739 143.776 47.3627C143.683 47.1692 143.546 46.9975 143.375 46.86C143.203 46.7225 143.001 46.6226 142.783 46.5674C142.566 46.5123 142.338 46.5033 142.116 46.5412C141.894 46.579 141.684 46.6627 141.501 46.7862L140.503 47.4597C140.5 47.454 140.503 47.4476 140.499 47.4423C140.496 47.4371 140.485 47.4351 140.479 47.4295C140.708 47.187 140.843 46.8783 140.861 46.5542C140.879 46.2301 140.78 45.9098 140.579 45.6459C140.109 44.9326 139.022 45.0783 138.376 45.5135L132.505 49.3318L133.555 47.6682C133.766 47.3482 133.841 46.9645 133.763 46.5947C133.686 46.225 133.462 45.8968 133.137 45.6765C132.965 45.5682 132.772 45.494 132.568 45.4584C132.365 45.4229 132.156 45.4267 131.955 45.4696C131.753 45.5126 131.563 45.5937 131.396 45.7082C131.228 45.8227 131.088 45.968 130.982 46.1354L125.253 55.2174C124.581 56.2828 124.376 57.553 124.683 58.7581C124.99 59.9632 125.784 61.0082 126.896 61.671C128.185 62.44 129.69 62.8287 131.215 62.7875C132.741 62.7463 134.219 62.2769 135.46 61.4396L144.326 55.4565C144.621 55.2502 144.833 54.9561 144.928 54.6221C145.023 54.2881 144.995 53.9336 144.85 53.6162Z" fill="#E98862"/>
<g opacity="0.25">
<path d="M134.694 51.2321C134.716 51.2599 134.748 51.2787 134.784 51.2844C134.82 51.2901 134.857 51.2823 134.887 51.2626L140.466 47.6251C140.481 47.6152 140.494 47.6026 140.504 47.588C140.514 47.5734 140.521 47.5571 140.524 47.54C140.527 47.5229 140.527 47.5054 140.523 47.4884C140.519 47.4715 140.512 47.4554 140.501 47.4411C140.491 47.4268 140.477 47.4147 140.462 47.4053C140.446 47.3959 140.429 47.3894 140.411 47.3863C140.393 47.3832 140.374 47.3835 140.356 47.3872C140.338 47.3909 140.321 47.3978 140.306 47.4077L134.727 51.0453C134.697 51.0653 134.676 51.0959 134.669 51.1304C134.663 51.1648 134.671 51.2004 134.692 51.2292L134.694 51.2321Z" fill="#0C0C0C"/>
</g>
<g opacity="0.25">
<path d="M136.33 53.5924C136.352 53.6204 136.384 53.6394 136.42 53.6452C136.456 53.651 136.493 53.6432 136.523 53.6234L142.749 49.5636C142.78 49.5435 142.801 49.5129 142.807 49.4785C142.814 49.444 142.806 49.4085 142.784 49.3797C142.762 49.3518 142.73 49.3329 142.694 49.3266C142.657 49.3204 142.62 49.3275 142.589 49.3463L136.364 53.4061C136.333 53.4261 136.312 53.4567 136.305 53.4911C136.299 53.5256 136.307 53.5612 136.328 53.59L136.33 53.5924Z" fill="#0C0C0C"/>
</g>
<g opacity="0.25">
<path d="M138.087 56.1589C138.108 56.1868 138.141 56.2056 138.177 56.2113C138.213 56.217 138.25 56.2092 138.28 56.1895L143.246 52.9512C143.277 52.9313 143.298 52.9007 143.304 52.8662C143.311 52.8317 143.303 52.7961 143.282 52.7673C143.26 52.7385 143.228 52.7187 143.191 52.7125C143.155 52.7062 143.117 52.7139 143.086 52.7339L138.12 55.9721C138.089 55.9921 138.068 56.0227 138.062 56.0572C138.055 56.0917 138.063 56.1272 138.084 56.1561L138.087 56.1589Z" fill="#0C0C0C"/>
</g>
<path d="M121.873 53.1477L105.045 80.1294L84.5129 54.7739L67.4614 69.2473L96.5814 104.754L96.772 105.007C97.9377 106.51 99.4906 107.708 101.284 108.49C103.078 109.272 105.054 109.611 107.025 109.475C108.996 109.339 110.899 108.733 112.552 107.714C114.206 106.695 115.557 105.296 116.478 103.649L140.406 62.8516L121.873 53.1477Z" fill="#367CFF"/>
<path d="M103.396 83.3741C103.362 83.374 103.328 83.3665 103.298 83.352C103.273 83.34 103.251 83.3234 103.233 83.3033C103.215 83.2832 103.201 83.2599 103.192 83.2347C103.183 83.2096 103.18 83.1831 103.182 83.1567C103.185 83.1303 103.192 83.1047 103.205 83.0811L104.855 80.0381C104.868 80.0145 104.885 79.9936 104.907 79.9764C104.928 79.9592 104.953 79.9462 104.979 79.9381C105.006 79.9299 105.034 79.9268 105.062 79.9289C105.09 79.931 105.118 79.9383 105.143 79.9503C105.168 79.9623 105.19 79.9789 105.208 79.999C105.226 80.0191 105.24 80.0424 105.249 80.0676C105.258 80.0927 105.261 80.1192 105.259 80.1456C105.256 80.172 105.249 80.1977 105.236 80.2212L103.586 83.2643C103.568 83.2973 103.541 83.325 103.507 83.3444C103.474 83.3638 103.435 83.3741 103.396 83.3741Z" fill="#0C0C0C"/>
<path d="M83.3281 79.9759L82.8145 88.498L83.2413 88.5208L83.755 79.9987L83.3281 79.9759Z" fill="#0C0C0C"/>
<path d="M29.1069 18.2999C29.1069 18.2999 28.3186 27.7857 26.0077 31.2051C19.3553 41.0495 17.3258 52.1833 23.7944 58.0822C30.263 63.9811 71.9777 64.5165 75.3005 51.1472C78.0996 39.8915 72.4053 38.6159 71.1303 29.2903C70.5536 25.0715 68.9332 16.2201 68.9332 16.2201" fill="#0A0A0A"/>
<path d="M64.6811 49.0098C64.6093 49.0009 63.8102 61.4847 48.4065 60.3963C37.7429 59.644 33.9408 48.9921 33.6963 48.9921C34.8459 48.7622 36.7822 48.4285 37.2927 48.1709C38.9717 47.3216 41.0495 46.4377 41.5907 43.3676C41.9028 41.5966 41.3736 32.5455 41.5364 30.7555L57.9051 34.195C57.6764 37.9763 56.0757 46.742 61.6862 48.2933C62.62 48.5497 63.6255 48.786 64.6811 49.0098Z" fill="#E98862"/>
<path opacity="0.52" d="M58.1348 44.7109C57.8785 43.9329 57.7133 43.1309 57.6423 42.3191C57.4622 40.4666 57.4981 38.601 57.7492 36.7559C54.4222 36.3332 51.2879 35.0403 48.7025 33.0241C48.3985 34.0811 46.7269 38.6996 47.1899 39.7035C48.0646 41.6018 52.1758 44.7109 58.1348 44.7109Z" fill="#0C0C0C"/>
<path d="M55.9653 40.7818C49.5052 41.2995 41.1853 38.7781 39.5556 30.6685L38.0844 23.3511C36.4542 15.2415 39.6569 7.86131 47.7673 6.41626C55.8772 4.97122 63.2608 10.4652 64.8909 18.5748L65.5421 21.8143C66.1676 24.9262 67.4921 39.8585 55.9653 40.7818Z" fill="#E98862"/>
<path d="M63.2306 22.1677C63.792 22.1677 64.2472 21.7391 64.2472 21.2105C64.2472 20.6819 63.792 20.2533 63.2306 20.2533C62.6691 20.2533 62.2139 20.6819 62.2139 21.2105C62.2139 21.7391 62.6691 22.1677 63.2306 22.1677Z" fill="#0C0C0C"/>
<path d="M52.815 23.4775C53.3765 23.4775 53.8317 23.049 53.8317 22.5203C53.8317 21.9917 53.3765 21.5631 52.815 21.5631C52.2535 21.5631 51.7983 21.9917 51.7983 22.5203C51.7983 23.049 52.2535 23.4775 52.815 23.4775Z" fill="#0C0C0C"/>
<path d="M58.5308 29.5375H58.5466C58.8751 29.4766 59.1998 29.3986 59.5192 29.304C59.9959 29.1595 60.621 28.9208 60.5393 28.5151C60.4466 28.053 58.1002 23.3072 57.8326 22.7675C57.8092 22.7203 57.7669 22.6839 57.715 22.6661C57.6631 22.6483 57.6058 22.6507 57.5558 22.6727C57.5057 22.6947 57.467 22.7345 57.4481 22.7834C57.4292 22.8322 57.4317 22.8862 57.4551 22.9333C58.4559 24.9544 60.0678 28.2772 60.1297 28.5883C60.0763 28.7324 59.2845 29.0065 58.4692 29.1518C58.4157 29.1606 58.3679 29.1888 58.3361 29.2303C58.3044 29.2718 58.2911 29.3233 58.2991 29.3739C58.3071 29.4245 58.3359 29.4702 58.3792 29.5011C58.4224 29.532 58.4768 29.5458 58.5308 29.5395V29.5375Z" fill="#0C0C0C"/>
<path d="M57.3298 33.039C58.6526 32.8772 59.9166 32.4251 61.0199 31.7191C61.0662 31.6908 61.0987 31.6462 61.1101 31.5954C61.1216 31.5445 61.1111 31.4914 61.081 31.4478C61.0509 31.4042 61.0036 31.3736 60.9496 31.3628C60.8956 31.352 60.8392 31.3619 60.7929 31.3902C58.4051 32.855 56.0327 33.0917 53.9322 32.0745C53.8897 32.0529 53.846 32.0334 53.8014 32.0162C53.7495 31.999 53.6926 32.0017 53.643 32.0239C53.5933 32.0461 53.555 32.0858 53.5363 32.1344C53.5176 32.1831 53.5202 32.2367 53.5433 32.2836C53.5664 32.3305 53.6083 32.3669 53.6598 32.3849C53.6765 32.3913 53.7026 32.405 53.7419 32.4251C54.8463 32.9614 56.0956 33.1751 57.3298 33.039Z" fill="#0C0C0C"/>
<path d="M31.5964 25.9015L38.8646 24.6464C44.3704 22.5489 46.0356 13.5747 46.0356 13.5747C46.0356 13.5747 52.7257 19.7119 68.9332 16.2221C68.9332 16.2221 65.6839 -5.05797 41.7393 1.12756C34.0184 3.12285 28.4771 10.4479 29.1698 20.2376C29.6512 27.0994 31.5964 25.9015 31.5964 25.9015Z" fill="#0A0A0A"/>
<path d="M40.5552 33.0494C38.0909 33.4886 35.5937 31.3621 35.1255 29.0415C34.6574 26.721 36.4 25.0856 38.8648 24.6464L40.4467 25.9747L42.6741 32.6719L40.5552 33.0494Z" fill="#E98862"/>
<path d="M59.3179 18.8872C60.0369 18.4503 60.8673 18.2034 61.7224 18.1723C62.1433 18.1548 62.5647 18.1967 62.9725 18.2967C63.3763 18.3944 63.7654 18.5395 64.1307 18.7286C64.1822 18.7524 64.2216 18.7945 64.2403 18.8456C64.259 18.8967 64.2555 18.9527 64.2306 19.0013C64.2057 19.05 64.1613 19.0875 64.1072 19.1055C64.0531 19.1236 63.9936 19.1207 63.9417 19.0977L63.9263 19.0908C63.5887 18.9347 63.2316 18.8191 62.8635 18.7467C62.4994 18.6733 62.1256 18.6523 61.7549 18.6843C61.0195 18.7422 60.3136 18.9823 59.7087 19.3802L59.689 19.3935C59.6543 19.4173 59.6149 19.4344 59.5731 19.4439C59.5313 19.4533 59.488 19.455 59.4455 19.4486C59.4031 19.4423 59.3624 19.4282 59.3257 19.4071C59.2891 19.3859 59.2572 19.3582 59.232 19.3255C59.2067 19.2928 59.1885 19.2557 59.1785 19.2164C59.1684 19.177 59.1667 19.1362 59.1734 19.0963C59.1802 19.0563 59.1952 19.018 59.2176 18.9835C59.24 18.949 59.2695 18.919 59.3042 18.8952L59.3179 18.8872Z" fill="#0C0C0C"/>
<path d="M52.8341 20.3241C52.1174 20.1593 51.3672 20.1755 50.6592 20.3712C50.3013 20.4677 49.9608 20.6146 49.6494 20.8068C49.3337 21 49.0451 21.2299 48.7905 21.4911L48.7789 21.5019C48.7391 21.5396 48.6852 21.5611 48.6288 21.5621C48.5723 21.5631 48.5177 21.5433 48.4764 21.5071C48.4351 21.4708 48.4104 21.4209 48.4075 21.3678C48.4046 21.3147 48.4237 21.2626 48.4608 21.2226C48.7289 20.9219 49.0362 20.6543 49.3753 20.426C49.7168 20.1936 50.0936 20.0111 50.4929 19.8846C51.3023 19.6227 52.1716 19.5704 53.0098 19.7332C53.0949 19.7504 53.1692 19.7987 53.2164 19.8675C53.2636 19.9363 53.2799 20.0199 53.2617 20.0999C53.2434 20.18 53.1921 20.25 53.1191 20.2944C53.046 20.3389 52.9572 20.3542 52.8722 20.337L52.8589 20.3342L52.8341 20.3241Z" fill="#0C0C0C"/>
<path d="M57.611 34.8801C57.8506 34.8543 58.0874 34.8095 58.319 34.7461C58.3456 34.7393 58.3706 34.7275 58.3924 34.7116C58.4142 34.6956 58.4324 34.6757 58.4459 34.6531C58.4595 34.6305 58.4681 34.6055 58.4713 34.5797C58.4745 34.5539 58.4723 34.5277 58.4646 34.5027C58.457 34.4777 58.4442 34.4544 58.4269 34.4342C58.4096 34.4139 58.3882 34.3971 58.364 34.3846C58.3397 34.3722 58.3131 34.3645 58.2856 34.3618C58.2582 34.3592 58.2304 34.3617 58.204 34.3693C56.8098 34.7469 56.0171 34.2465 55.9842 34.2248C55.9389 34.1949 55.8828 34.1832 55.8282 34.1923C55.7737 34.2013 55.7252 34.2304 55.6935 34.2731C55.6617 34.3158 55.6493 34.3686 55.6589 34.42C55.6686 34.4713 55.6994 34.5169 55.7448 34.5468C56.3074 34.8573 56.9667 34.9751 57.611 34.8801Z" fill="#0C0C0C"/>
<path d="M38.8823 24.5599L38.8101 24.3703C48.0213 21.2568 45.7686 12.7463 45.7451 12.6606L45.9516 12.6099C45.976 12.6968 48.28 21.3832 38.8823 24.5599Z" fill="#0C0C0C"/>
<path opacity="0.1" d="M51.9942 30.1349C53.0577 30.0271 53.8518 29.3444 53.7679 28.6099C53.6839 27.8754 52.7538 27.3673 51.6903 27.4751C50.6268 27.5828 49.8327 28.2656 49.9166 29C50.0006 29.7345 50.9307 30.2426 51.9942 30.1349Z" fill="#0C0C0C"/>
<path opacity="0.1" d="M63.2511 27.3252C63.3366 28.0586 64.2669 28.5658 65.3306 28.4595C65.5144 28.4408 65.6956 28.4042 65.8714 28.3504C65.9313 27.4778 65.9445 26.6377 65.927 25.8596C65.633 25.7872 65.3272 25.767 65.0253 25.8001C63.9616 25.9063 63.1681 26.589 63.2511 27.3252Z" fill="#0C0C0C"/>
<path d="M83.819 76.4931C83.3338 81.8595 80.9738 115.34 80.5073 121.95H18.7831C18.4197 115.988 14.2238 89.9191 12.8467 78.2609C11.5321 67.1361 8.95273 61.5664 10.8433 58.2774C13.9327 52.9021 22.3748 49.7963 28.1312 49.0625C31.6464 48.6145 36.9328 48.2933 36.9328 48.2933C36.9328 48.2933 37.3805 56.8187 48.0543 57.2932C62.5842 57.9373 61.6141 48.2933 61.6859 48.2933C64.0399 48.2933 77.4868 49.6961 80.7767 51.532C89.7413 56.5301 84.849 65.1206 83.819 76.4931Z" fill="#367CFF"/>
<path d="M123.885 80.2417L117.935 107.468C117.814 108.021 117.496 108.518 117.032 108.877C116.569 109.235 115.99 109.433 115.39 109.438L74.4212 109.767C74.0304 109.77 73.6438 109.69 73.2897 109.535C72.9356 109.379 72.623 109.151 72.3748 108.866C72.1266 108.582 71.949 108.249 71.8551 107.892C71.7612 107.535 71.7533 107.162 71.8321 106.802L77.7817 79.5756C77.9027 79.0228 78.2213 78.5257 78.6843 78.1673C79.1474 77.8088 79.7269 77.6106 80.3264 77.6056L121.295 77.2772C121.686 77.2741 122.073 77.3533 122.427 77.5091C122.781 77.6648 123.094 77.8932 123.342 78.1774C123.59 78.4616 123.768 78.7945 123.862 79.1517C123.956 79.5089 123.963 79.8813 123.885 80.2417Z" fill="#292A2E"/>
<path d="M85.6819 99.5808C85.7038 99.9394 85.5873 100.293 85.354 100.577C85.1207 100.861 84.7861 101.057 84.4121 101.127L83.1508 101.389C83.1734 101.396 83.1937 101.408 83.2101 101.424C83.2265 101.44 83.2385 101.46 83.2449 101.481C83.248 101.506 83.2419 101.532 83.2278 101.554C83.531 101.634 83.8002 101.801 83.9979 102.032C84.1955 102.263 84.3119 102.546 84.3308 102.842C84.3326 103.187 84.2108 103.522 83.985 103.794C83.7593 104.066 83.4428 104.258 83.0867 104.339L72.4368 106.565C71.8923 106.68 71.336 106.738 70.7779 106.738C69.5349 106.738 68.3106 106.453 67.2105 105.908C66.1104 105.363 65.1676 104.575 64.4632 103.61C63.7164 102.59 63.4218 101.336 63.6422 100.114C63.8625 98.8928 64.5805 97.8004 65.6432 97.0695L74.7027 90.8345C74.9021 90.6971 75.1339 90.6073 75.3782 90.5728L74.5445 94.3847L74.7669 94.3364L74.8139 94.3283L81.7613 92.996C82.5352 92.835 83.5955 93.1007 83.7323 93.9298C83.8056 94.2473 83.7627 94.5788 83.6106 94.8704C83.4584 95.162 83.206 95.3965 82.8943 95.5359C82.8986 95.5399 82.9072 95.544 82.9072 95.552C82.9072 95.5601 82.9029 95.5641 82.9029 95.5721L84.1043 95.3226C84.3241 95.2767 84.5519 95.2773 84.7715 95.3243C84.991 95.3713 85.1967 95.4636 85.3738 95.5945C85.5508 95.7254 85.6949 95.8917 85.7955 96.0813C85.896 96.2709 85.9507 96.4792 85.9555 96.6911C85.9554 97.0295 85.8311 97.3574 85.6036 97.6193C85.376 97.8812 85.0593 98.061 84.7071 98.1281L84.1898 98.2368C84.1855 98.2529 84.1898 98.269 84.1812 98.2811C84.5581 98.2837 84.9204 98.4182 85.1978 98.6585C85.4751 98.8987 85.6477 99.2275 85.6819 99.5808Z" fill="#E98862"/>
<g opacity="0.25">
<path d="M75.9866 96.8932C75.9949 96.9268 76.0168 96.956 76.0476 96.9747C76.0784 96.9933 76.1157 96.9999 76.1516 96.993L82.799 95.7098C82.8177 95.707 82.8356 95.7006 82.8517 95.6911C82.8678 95.6815 82.8816 95.6691 82.8924 95.6544C82.9032 95.6397 82.9107 95.623 82.9145 95.6055C82.9183 95.588 82.9183 95.57 82.9145 95.5525C82.9107 95.535 82.9031 95.5184 82.8923 95.5037C82.8815 95.489 82.8677 95.4765 82.8516 95.467C82.8355 95.4575 82.8176 95.4511 82.7989 95.4483C82.7801 95.4455 82.7609 95.4462 82.7425 95.4506L76.0952 96.7342C76.0587 96.7413 76.0267 96.7617 76.0062 96.791C75.9856 96.8203 75.9783 96.856 75.9857 96.8904L75.9866 96.8932Z" fill="#0C0C0C"/>
</g>
<g opacity="0.25">
<path d="M76.5071 99.669C76.5153 99.7027 76.5372 99.7319 76.568 99.7506C76.5989 99.7693 76.6362 99.7758 76.6721 99.7688L84.0907 98.3367C84.1272 98.3295 84.1591 98.3091 84.1796 98.2798C84.2001 98.2505 84.2075 98.2148 84.2002 98.1805C84.1915 98.1467 84.1696 98.1174 84.1388 98.0982C84.108 98.0791 84.0707 98.0717 84.0343 98.0774L76.6157 99.51C76.5792 99.5171 76.5472 99.5375 76.5267 99.5668C76.5062 99.5961 76.4988 99.6318 76.5063 99.6662L76.5071 99.669Z" fill="#0C0C0C"/>
</g>
<g opacity="0.25">
<path d="M77.0525 102.679C77.0608 102.712 77.0827 102.741 77.1135 102.76C77.1443 102.779 77.1816 102.785 77.2175 102.778L83.1351 101.636C83.1538 101.633 83.1718 101.627 83.1878 101.617C83.2039 101.608 83.2177 101.595 83.2285 101.581C83.2393 101.566 83.2468 101.549 83.2506 101.532C83.2544 101.514 83.2544 101.496 83.2506 101.479C83.2468 101.461 83.2392 101.445 83.2284 101.43C83.2176 101.415 83.2038 101.403 83.1877 101.393C83.1716 101.384 83.1537 101.377 83.135 101.375C83.1162 101.372 83.0971 101.373 83.0786 101.377L77.1611 102.52C77.1431 102.523 77.1259 102.53 77.1106 102.54C77.0954 102.549 77.0823 102.562 77.0721 102.576C77.0619 102.591 77.0549 102.607 77.0514 102.624C77.0479 102.641 77.048 102.658 77.0517 102.675L77.0525 102.679Z" fill="#0C0C0C"/>
</g>
<path d="M71.7772 110.533L13.9978 120.363C12.1948 120.547 10.3709 120.336 8.66904 119.746C6.96722 119.156 5.43387 118.202 4.18932 116.96C2.94477 115.718 2.02287 114.221 1.49598 112.587C0.969082 110.953 0.851521 109.227 1.15252 107.543L9.24108 62.2765C9.75757 59.3861 11.4725 56.8072 14.0085 55.1072C16.5446 53.4073 19.694 52.7254 22.7641 53.2117C25.8341 53.698 28.5732 55.3125 30.3788 57.7002C32.1844 60.0878 32.9087 63.053 32.3922 65.9434L26.877 97.1045L69.2368 92.0972L71.7772 110.533Z" fill="#367CFF"/>
<path d="M13.9975 120.564C13.9441 120.564 13.8928 120.545 13.8535 120.511C13.8141 120.477 13.7897 120.43 13.785 120.38C13.7803 120.33 13.7956 120.28 13.828 120.241C13.8603 120.201 13.9074 120.173 13.9599 120.165L71.5392 110.368L69.0535 92.3206L26.9031 97.3042C26.8701 97.3084 26.8364 97.3051 26.805 97.2947C26.7735 97.2843 26.7452 97.267 26.7222 97.2442C26.6991 97.2216 26.6819 97.1942 26.6721 97.1642C26.6622 97.1342 26.6599 97.1025 26.6654 97.0715L30.1712 77.156C30.1757 77.1299 30.1857 77.1049 30.2006 77.0825C30.2154 77.06 30.2348 77.0405 30.2576 77.0251C30.2804 77.0097 30.3063 76.9987 30.3336 76.9927C30.361 76.9867 30.3893 76.9859 30.417 76.9902C30.4448 76.9945 30.4714 77.0039 30.4952 77.0179C30.5191 77.0319 30.5398 77.0501 30.5562 77.0717C30.5726 77.0932 30.5843 77.1176 30.5906 77.1434C30.5969 77.1692 30.5978 77.1959 30.5932 77.222L27.134 96.8711L69.2104 91.8959C69.2664 91.8893 69.323 91.9038 69.3677 91.9363C69.4124 91.9688 69.4416 92.0167 69.4489 92.0694L71.9894 110.505C71.9965 110.556 71.9824 110.608 71.95 110.65C71.9176 110.691 71.8694 110.72 71.8154 110.729L14.036 120.561C14.0232 120.563 14.0104 120.564 13.9975 120.564Z" fill="#0C0C0C"/>
<path d="M26.8432 96.9064L23.1265 97.4666L23.1941 97.8644L26.9108 97.3042L26.8432 96.9064Z" fill="#0C0C0C"/>
<path d="M330.103 310H4.99654C4.91717 310 4.84105 309.97 4.78492 309.917C4.7288 309.865 4.69727 309.793 4.69727 309.718C4.69727 309.644 4.7288 309.572 4.78492 309.519C4.84105 309.466 4.91717 309.436 4.99654 309.436H330.103C330.143 309.436 330.181 309.444 330.218 309.458C330.254 309.472 330.287 309.493 330.315 309.519C330.343 309.545 330.365 309.576 330.38 309.61C330.395 309.645 330.403 309.681 330.403 309.718C330.403 309.755 330.395 309.792 330.38 309.826C330.365 309.86 330.343 309.891 330.315 309.917C330.287 309.944 330.254 309.964 330.218 309.979C330.181 309.993 330.143 310 330.103 310Z" fill="#292A2E"/>
<path d="M314.658 266.607C314.612 266.607 314.566 266.599 314.524 266.582C314.481 266.566 314.442 266.541 314.41 266.51C313.915 266.044 313.107 257.491 310.933 232.025C310.044 221.604 309.203 211.762 308.59 205.781C308.547 205.353 308.371 205.304 308.313 205.287C307.473 205.049 304.921 206.944 303.496 208.603C303.437 208.672 303.352 208.715 303.259 208.725C303.166 208.734 303.074 208.708 303.001 208.653C302.929 208.598 302.882 208.518 302.873 208.43C302.863 208.343 302.89 208.256 302.949 208.187C303.889 207.09 306.963 204.214 308.515 204.653C308.748 204.729 308.95 204.873 309.089 205.064C309.229 205.256 309.299 205.485 309.29 205.717C309.904 211.704 310.744 221.549 311.634 231.971C312.955 247.447 314.452 264.978 314.944 266.083C314.981 266.132 315.003 266.191 315.008 266.251C315.013 266.312 314.999 266.372 314.97 266.426C314.94 266.48 314.896 266.526 314.841 266.557C314.786 266.589 314.723 266.606 314.658 266.606V266.607Z" fill="#494949"/>
<path d="M307.687 216.756C313.519 212.355 315.452 205.505 312.004 201.455C308.557 197.406 301.034 197.692 295.203 202.093C289.371 206.494 287.438 213.344 290.885 217.394C294.333 221.443 301.855 221.157 307.687 216.756Z" fill="#0CBC8B"/>
<path opacity="0.2" d="M307.687 216.756C313.519 212.355 315.452 205.505 312.004 201.455C308.557 197.406 301.034 197.692 295.203 202.093C289.371 206.494 287.438 213.344 290.885 217.394C294.333 221.443 301.855 221.157 307.687 216.756Z" fill="white"/>
<path d="M292.52 218.424C292.487 218.424 292.454 218.415 292.426 218.398C292.398 218.381 292.375 218.357 292.361 218.329C292.347 218.3 292.341 218.269 292.346 218.238C292.35 218.206 292.364 218.177 292.385 218.153L309.006 199.283C309.035 199.249 309.078 199.228 309.125 199.224C309.171 199.22 309.217 199.233 309.253 199.261C309.289 199.289 309.312 199.33 309.316 199.373C309.32 199.417 309.306 199.461 309.276 199.494L292.655 218.364C292.638 218.383 292.618 218.398 292.595 218.408C292.571 218.418 292.546 218.424 292.52 218.424Z" fill="white"/>
<path d="M318.283 262.562C318.244 262.562 318.205 262.556 318.168 262.544C318.124 262.529 318.084 262.507 318.049 262.478C318.015 262.449 317.987 262.414 317.967 262.375C317.947 262.336 317.935 262.294 317.932 262.25C317.93 262.207 317.936 262.164 317.951 262.123L324.193 245.219C324.377 244.722 324.69 244.276 325.104 243.923C325.518 243.57 326.02 243.32 326.563 243.196C327.106 243.073 327.673 243.08 328.213 243.217C328.752 243.353 329.247 243.615 329.651 243.978L332.951 246.947C333.019 247.008 333.058 247.091 333.06 247.179C333.062 247.267 333.027 247.352 332.963 247.415C332.898 247.478 332.81 247.515 332.717 247.517C332.623 247.519 332.533 247.486 332.466 247.426L329.165 244.457C328.846 244.17 328.456 243.963 328.03 243.856C327.604 243.748 327.156 243.742 326.727 243.84C326.299 243.937 325.903 244.134 325.576 244.413C325.249 244.692 325.002 245.044 324.857 245.436L318.615 262.342C318.591 262.406 318.546 262.462 318.486 262.502C318.427 262.541 318.356 262.562 318.283 262.562Z" fill="#494949"/>
<path d="M342.174 256.307C346.496 253.086 346.24 246.002 341.601 240.484C336.962 234.967 329.698 233.105 325.376 236.326C321.054 239.547 321.311 246.63 325.95 252.148C330.588 257.666 337.852 259.527 342.174 256.307Z" fill="#0CBC8B"/>
<path d="M311.822 265.529C311.743 265.529 311.666 265.504 311.604 265.458C311.542 265.412 311.498 265.348 311.48 265.275L301.005 224.033C300.934 223.752 300.781 223.494 300.565 223.289C300.348 223.084 300.076 222.94 299.777 222.871C299.479 222.802 299.166 222.813 298.873 222.901C298.581 222.989 298.32 223.151 298.119 223.37L294.889 226.884C294.828 226.95 294.742 226.991 294.649 226.997C294.556 227.003 294.464 226.975 294.393 226.917C294.323 226.86 294.28 226.778 294.273 226.691C294.266 226.603 294.297 226.517 294.358 226.45L297.587 222.937C297.873 222.626 298.244 222.396 298.66 222.271C299.075 222.146 299.52 222.131 299.944 222.228C300.368 222.326 300.755 222.532 301.063 222.823C301.371 223.114 301.587 223.479 301.689 223.879L312.163 265.122C312.174 265.164 312.176 265.208 312.169 265.251C312.162 265.294 312.145 265.335 312.121 265.372C312.097 265.409 312.065 265.441 312.028 265.467C311.991 265.492 311.948 265.511 311.903 265.521C311.877 265.527 311.849 265.529 311.822 265.529Z" fill="#494949"/>
<path d="M307.958 236.047C309.231 229.113 305.861 222.775 300.429 221.891C294.998 221.007 289.563 225.911 288.289 232.845C287.015 239.779 290.386 246.117 295.817 247.001C301.249 247.885 306.684 242.981 307.958 236.047Z" fill="#0CBC8B"/>
<path d="M314.659 266.607C314.644 266.607 314.63 266.607 314.616 266.605C314.523 266.594 314.439 266.549 314.382 266.48C314.324 266.411 314.298 266.323 314.31 266.236L321.001 215.096C321.074 214.539 321.316 214.013 321.698 213.583C322.081 213.152 322.587 212.835 323.156 212.668C323.726 212.502 324.334 212.495 324.908 212.646C325.482 212.798 325.998 213.102 326.392 213.523L334.039 221.677C334.071 221.71 334.095 221.748 334.111 221.789C334.127 221.831 334.134 221.875 334.132 221.918C334.129 221.962 334.118 222.006 334.097 222.045C334.077 222.085 334.048 222.12 334.013 222.149C333.978 222.179 333.937 222.201 333.893 222.215C333.849 222.229 333.802 222.235 333.755 222.231C333.709 222.228 333.663 222.216 333.621 222.196C333.58 222.176 333.543 222.149 333.513 222.115L325.866 213.961C325.56 213.637 325.162 213.402 324.719 213.286C324.275 213.169 323.805 213.175 323.366 213.304C322.926 213.432 322.535 213.677 322.239 214.009C321.943 214.341 321.756 214.747 321.698 215.177L315.008 266.317C314.998 266.397 314.956 266.471 314.892 266.525C314.828 266.578 314.745 266.608 314.659 266.607Z" fill="#494949"/>
<path d="M341.881 226.209C344.549 221.668 341.41 215.225 334.87 211.819C328.329 208.413 320.865 209.333 318.197 213.874C315.529 218.415 318.668 224.858 325.208 228.264C331.748 231.67 339.213 230.75 341.881 226.209Z" fill="#0CBC8B"/>
<path opacity="0.2" d="M342.174 256.307C346.496 253.086 346.24 246.002 341.601 240.484C336.962 234.967 329.698 233.105 325.376 236.326C321.054 239.547 321.311 246.63 325.95 252.148C330.588 257.666 337.852 259.527 342.174 256.307Z" fill="white"/>
<path opacity="0.5" d="M307.958 236.047C309.231 229.113 305.861 222.775 300.429 221.891C294.998 221.007 289.563 225.911 288.289 232.845C287.015 239.779 290.386 246.117 295.817 247.001C301.249 247.885 306.684 242.981 307.958 236.047Z" fill="white"/>
<path opacity="0.5" d="M341.881 226.209C344.549 221.668 341.41 215.225 334.87 211.819C328.329 208.413 320.865 209.333 318.197 213.874C315.529 218.415 318.668 224.858 325.208 228.264C331.748 231.67 339.213 230.75 341.881 226.209Z" fill="white"/>
<path d="M323.215 310H306.101L303.265 258.447H326.051L323.215 310Z" fill="#292A2E"/>
<path opacity="0.3" d="M323.215 310H306.101L303.265 258.447H326.051L323.215 310Z" fill="white"/>
<path d="M342.174 256.47C342.148 256.47 342.121 256.464 342.097 256.453C342.073 256.442 342.052 256.426 342.035 256.406L325.237 236.425C325.208 236.39 325.195 236.347 325.2 236.303C325.205 236.259 325.229 236.22 325.265 236.192C325.302 236.165 325.349 236.153 325.395 236.158C325.441 236.163 325.483 236.185 325.512 236.22L342.311 256.2C342.332 256.225 342.345 256.254 342.348 256.285C342.352 256.316 342.346 256.347 342.332 256.375C342.318 256.403 342.295 256.427 342.267 256.443C342.239 256.46 342.207 256.468 342.173 256.468L342.174 256.47Z" fill="white"/>
<path d="M340.763 227.809C340.726 227.81 340.69 227.798 340.66 227.778L319.162 212.999C319.143 212.987 319.126 212.971 319.113 212.952C319.1 212.934 319.092 212.913 319.088 212.891C319.084 212.869 319.084 212.846 319.09 212.825C319.095 212.803 319.105 212.783 319.119 212.765C319.133 212.747 319.15 212.732 319.171 212.72C319.191 212.709 319.214 212.701 319.237 212.698C319.26 212.695 319.284 212.697 319.307 212.703C319.33 212.709 319.351 212.719 319.37 212.732L340.866 227.51C340.896 227.531 340.918 227.56 340.93 227.593C340.941 227.626 340.941 227.662 340.929 227.695C340.918 227.728 340.896 227.757 340.865 227.778C340.835 227.798 340.799 227.809 340.762 227.809H340.763Z" fill="white"/>
<path d="M294.944 246.786C294.928 246.786 294.913 246.784 294.898 246.78C294.853 246.769 294.815 246.741 294.792 246.704C294.769 246.666 294.762 246.621 294.774 246.579L301.617 222.44C301.63 222.398 301.66 222.363 301.7 222.342C301.74 222.321 301.787 222.315 301.831 222.326C301.876 222.337 301.914 222.365 301.937 222.402C301.961 222.439 301.968 222.483 301.957 222.525L295.113 246.662C295.103 246.697 295.082 246.729 295.051 246.751C295.02 246.773 294.983 246.786 294.944 246.786Z" fill="white"/>
</svg>
