<svg width="504" height="316" viewBox="0 0 504 316" fill="none" xmlns="http://www.w3.org/2000/svg">
<g clip-path="url(#clip0_119_872)">
<path d="M433.842 208.787L432.895 208.887L444.592 312.007L445.539 311.907L433.842 208.787Z" fill="#292A2E"/>
<path d="M464.137 253.804L458.383 308.723L459.331 308.815L465.085 253.896L464.137 253.804Z" fill="#292A2E"/>
<path d="M474.031 302.085H431.335V315.453H474.031V302.085Z" fill="#292A2E"/>
<path opacity="0.2" d="M474.031 302.085H431.335V315.453H474.031V302.085Z" fill="white"/>
<path d="M499.769 277.47C507.857 267.099 504.001 251.134 491.157 241.81C478.312 232.486 461.343 233.334 453.255 243.705C445.167 254.076 449.022 270.042 461.867 279.366C474.712 288.69 491.681 287.841 499.769 277.47Z" fill="#0CBC8B"/>
<path opacity="0.2" d="M499.769 277.47C507.857 267.099 504.001 251.134 491.157 241.81C478.312 232.486 461.343 233.334 453.255 243.705C445.167 254.076 449.022 270.042 461.867 279.366C474.712 288.69 491.681 287.841 499.769 277.47Z" fill="white"/>
<path opacity="0.5" d="M499.768 277.472C499.225 278.172 498.632 278.834 497.994 279.455C489.091 284.943 475.949 284.079 465.524 276.509C452.68 267.188 448.826 251.222 456.915 240.851C457.459 240.153 458.05 239.49 458.684 238.868C467.594 233.376 480.729 234.244 491.159 241.81C504.002 251.135 507.857 267.102 499.768 277.472Z" fill="white"/>
<path d="M440.186 238.125C452.91 228.649 456.369 212.397 447.911 201.825C439.452 191.254 422.281 190.366 409.556 199.842C396.832 209.318 393.373 225.57 401.832 236.142C410.29 246.713 427.462 247.601 440.186 238.125Z" fill="#0CBC8B"/>
<path opacity="0.2" d="M436.153 235.404C426.299 242.747 413.776 243.866 404.697 239.086C403.647 238.193 402.687 237.206 401.832 236.137C393.372 225.568 396.83 209.314 409.554 199.84C419.408 192.501 431.932 191.378 441.006 196.154C442.059 197.047 443.019 198.037 443.875 199.108C452.335 209.676 448.877 225.93 436.153 235.404Z" fill="white"/>
<path d="M353.148 150.593L499.497 150.802V98.5358H353.148V150.593Z" fill="#EFEFEF"/>
<path d="M486.897 113.032H365.749C365.689 113.034 365.629 113.024 365.573 113.003C365.517 112.983 365.466 112.951 365.423 112.911C365.38 112.871 365.346 112.822 365.322 112.769C365.299 112.716 365.287 112.659 365.287 112.601C365.287 112.543 365.299 112.486 365.322 112.432C365.346 112.379 365.38 112.331 365.423 112.291C365.466 112.25 365.517 112.219 365.573 112.198C365.629 112.177 365.689 112.167 365.749 112.169H486.897C486.957 112.167 487.016 112.177 487.072 112.198C487.128 112.219 487.179 112.25 487.222 112.291C487.265 112.331 487.3 112.379 487.323 112.432C487.347 112.486 487.359 112.543 487.359 112.601C487.359 112.659 487.347 112.716 487.323 112.769C487.3 112.822 487.265 112.871 487.222 112.911C487.179 112.951 487.128 112.983 487.072 113.003C487.016 113.024 486.957 113.034 486.897 113.032Z" fill="white"/>
<path d="M486.897 125.977H365.749C365.689 125.979 365.629 125.969 365.573 125.949C365.517 125.928 365.466 125.896 365.423 125.856C365.38 125.816 365.346 125.768 365.322 125.714C365.299 125.661 365.287 125.604 365.287 125.546C365.287 125.488 365.299 125.431 365.322 125.377C365.346 125.324 365.38 125.276 365.423 125.236C365.466 125.195 365.517 125.164 365.573 125.143C365.629 125.122 365.689 125.113 365.749 125.114H486.897C486.957 125.113 487.016 125.122 487.072 125.143C487.128 125.164 487.179 125.195 487.222 125.236C487.265 125.276 487.3 125.324 487.323 125.377C487.347 125.431 487.359 125.488 487.359 125.546C487.359 125.604 487.347 125.661 487.323 125.714C487.3 125.768 487.265 125.816 487.222 125.856C487.179 125.896 487.128 125.928 487.072 125.949C487.016 125.969 486.957 125.979 486.897 125.977Z" fill="white"/>
<path d="M486.897 138.922H414.947C414.828 138.922 414.714 138.877 414.63 138.796C414.546 138.715 414.499 138.605 414.499 138.491C414.499 138.376 414.546 138.266 414.63 138.185C414.714 138.105 414.828 138.059 414.947 138.059H486.897C487.015 138.059 487.129 138.105 487.213 138.185C487.297 138.266 487.344 138.376 487.344 138.491C487.344 138.605 487.297 138.715 487.213 138.796C487.129 138.877 487.015 138.922 486.897 138.922Z" fill="white"/>
<path d="M178.532 68.2311L1.4274 68.273L1.44074 0H178.532V68.2311Z" fill="#EFEFEF"/>
<path d="M165.306 15.1068H14.6674C14.573 15.1068 14.4825 15.0706 14.4158 15.0062C14.349 14.9418 14.3115 14.8545 14.3115 14.7634C14.3115 14.6724 14.349 14.585 14.4158 14.5207C14.4825 14.4563 14.573 14.4201 14.6674 14.4201H165.306C165.4 14.4201 165.491 14.4563 165.557 14.5207C165.624 14.585 165.662 14.6724 165.662 14.7634C165.662 14.8545 165.624 14.9418 165.557 15.0062C165.491 15.0706 165.4 15.1068 165.306 15.1068Z" fill="white"/>
<path d="M165.306 28.6949H14.6674C14.573 28.6949 14.4825 28.6588 14.4158 28.5944C14.349 28.53 14.3115 28.4426 14.3115 28.3516C14.3115 28.2605 14.349 28.1732 14.4158 28.1088C14.4825 28.0444 14.573 28.0082 14.6674 28.0082H165.306C165.4 28.0082 165.491 28.0444 165.557 28.1088C165.624 28.1732 165.662 28.2605 165.662 28.3516C165.662 28.4426 165.624 28.53 165.557 28.5944C165.491 28.6588 165.4 28.6949 165.306 28.6949Z" fill="white"/>
<path d="M165.306 42.2826H14.6674C14.573 42.2826 14.4825 42.2464 14.4158 42.182C14.349 42.1176 14.3115 42.0303 14.3115 41.9392C14.3115 41.8482 14.349 41.7608 14.4158 41.6965C14.4825 41.6321 14.573 41.5959 14.6674 41.5959H165.306C165.4 41.5959 165.491 41.6321 165.557 41.6965C165.624 41.7608 165.662 41.8482 165.662 41.9392C165.662 42.0303 165.624 42.1176 165.557 42.182C165.491 42.2464 165.4 42.2826 165.306 42.2826Z" fill="white"/>
<path d="M90.1908 55.8707H14.6674C14.573 55.8707 14.4825 55.8345 14.4158 55.7702C14.349 55.7058 14.3115 55.6184 14.3115 55.5274C14.3115 55.4363 14.349 55.349 14.4158 55.2846C14.4825 55.2202 14.573 55.184 14.6674 55.184H90.1908C90.2851 55.184 90.3757 55.2202 90.4424 55.2846C90.5092 55.349 90.5467 55.4363 90.5467 55.5274C90.5467 55.6184 90.5092 55.7058 90.4424 55.7702C90.3757 55.8345 90.2851 55.8707 90.1908 55.8707Z" fill="white"/>
<path d="M450.078 28.9583H128.636C120.743 28.9583 114.343 35.1321 114.343 42.7478V269.803C114.343 277.418 120.743 283.592 128.636 283.592H450.078C457.972 283.592 464.371 277.418 464.371 269.803V42.7478C464.371 35.1321 457.972 28.9583 450.078 28.9583Z" fill="white"/>
<path d="M450.078 284.051H128.636C124.721 284.047 120.967 282.544 118.198 279.873C115.429 277.202 113.871 273.58 113.867 269.802V42.7473C113.872 38.9696 115.429 35.3478 118.198 32.6765C120.967 30.0052 124.721 28.5026 128.636 28.4982H450.078C453.993 28.5025 457.747 30.0051 460.516 32.6764C463.285 35.3477 464.843 38.9695 464.847 42.7473V269.802C464.843 273.58 463.285 277.202 460.516 279.873C457.748 282.545 453.993 284.047 450.078 284.051ZM128.636 29.4175C124.973 29.4214 121.461 30.827 118.871 33.326C116.281 35.825 114.824 39.2132 114.82 42.7473V269.802C114.824 273.336 116.281 276.724 118.871 279.223C121.461 281.722 124.973 283.128 128.636 283.132H450.078C453.741 283.128 457.253 281.722 459.843 279.223C462.433 276.724 463.89 273.336 463.894 269.802V42.7473C463.89 39.2132 462.433 35.825 459.843 33.326C457.253 30.827 453.741 29.4214 450.078 29.4175H128.636Z" fill="#292A2E"/>
<path d="M464.371 42.7473V56.6232H114.345V42.7473C114.345 39.0901 115.851 35.5827 118.531 32.9967C121.212 30.4107 124.847 28.9578 128.638 28.9578H450.078C453.868 28.9578 457.504 30.4107 460.184 32.9967C462.865 35.5827 464.371 39.0901 464.371 42.7473Z" fill="#292A2E"/>
<path opacity="0.2" d="M265.181 168.729H213.415C206.883 168.729 201.588 173.837 201.588 180.138C201.588 186.44 206.883 191.548 213.415 191.548H265.181C271.713 191.548 277.008 186.44 277.008 180.138C277.008 173.837 271.713 168.729 265.181 168.729Z" fill="#367CFF"/>
<path opacity="0.2" d="M364.61 168.729H312.844C306.312 168.729 301.017 173.837 301.017 180.138C301.017 186.44 306.312 191.548 312.844 191.548H364.61C371.142 191.548 376.437 186.44 376.437 180.138C376.437 173.837 371.142 168.729 364.61 168.729Z" fill="#367CFF"/>
<path opacity="0.1" d="M429.798 117.746C429.798 120.623 429.211 123.473 428.07 126.131C426.93 128.789 425.257 131.205 423.149 133.239C421.04 135.274 418.537 136.888 415.782 137.989C413.026 139.091 410.073 139.658 407.091 139.658H180.615C177.633 139.658 174.68 139.091 171.925 137.99C169.169 136.889 166.666 135.275 164.557 133.241C162.448 131.206 160.776 128.791 159.635 126.133C158.493 123.475 157.906 120.626 157.906 117.749C157.906 114.871 158.493 112.022 159.635 109.364C160.776 106.706 162.448 104.291 164.557 102.256C166.666 100.222 169.169 98.6082 171.925 97.5072C174.68 96.4061 177.633 95.8394 180.615 95.8394H407.091C413.113 95.8397 418.889 98.1478 423.147 102.256C427.405 106.364 429.798 111.936 429.798 117.746Z" fill="#367CFF"/>
<path d="M429.798 117.746C429.798 120.623 429.211 123.473 428.07 126.131C426.93 128.789 425.257 131.205 423.149 133.239C421.04 135.274 418.537 136.888 415.782 137.989C413.026 139.091 410.073 139.658 407.091 139.658H371.911V95.8394H407.091C413.113 95.8397 418.889 98.1478 423.147 102.256C427.405 106.364 429.798 111.936 429.798 117.746Z" fill="#367CFF"/>
<path d="M189.551 124.629L187.245 117.514C187.1 117.079 186.829 116.09 186.431 114.549H186.339C186.033 115.84 185.766 116.835 185.536 117.536L183.162 124.629H180.96L177.53 112.502H179.525C180.336 115.548 180.953 117.868 181.378 119.462C181.685 120.52 181.928 121.594 182.106 122.679H182.198C182.282 122.259 182.418 121.715 182.605 121.047C182.792 120.379 182.955 119.85 183.092 119.459L185.398 112.499H187.462L189.71 119.459C190.078 120.504 190.369 121.573 190.582 122.657H190.674C190.733 122.244 190.816 121.834 190.921 121.429C191.054 120.876 191.851 117.899 193.312 112.499H195.285L191.807 124.627L189.551 124.629Z" fill="#0A0A0A"/>
<path d="M208.761 124.629L206.456 117.514C206.31 117.079 206.039 116.09 205.641 114.549H205.55C205.244 115.84 204.976 116.835 204.747 117.536L202.373 124.629H200.171L196.74 112.502H198.736C199.546 115.548 200.164 117.868 200.588 119.462C200.896 120.52 201.139 121.594 201.316 122.679H201.408C201.493 122.259 201.629 121.715 201.816 121.047C202.003 120.379 202.165 119.85 202.303 119.459L204.608 112.499H206.673L208.921 119.459C209.289 120.504 209.58 121.573 209.793 122.657H209.884C209.944 122.244 210.026 121.834 210.131 121.429C210.265 120.876 211.062 117.899 212.522 112.499H214.495L211.02 124.627L208.761 124.629Z" fill="#0A0A0A"/>
<path d="M227.972 124.629L225.666 117.514C225.521 117.079 225.249 116.09 224.852 114.549H224.76C224.454 115.84 224.187 116.835 223.957 117.536L221.581 124.629H219.379L215.948 112.502H217.944C218.755 115.548 219.372 117.868 219.797 119.462C220.104 120.52 220.347 121.594 220.525 122.679H220.617C220.701 122.259 220.837 121.715 221.024 121.047C221.211 120.379 221.373 119.85 221.511 119.459L223.817 112.499H225.881L228.132 119.463C228.5 120.508 228.791 121.576 229.004 122.66H229.096C229.155 122.247 229.237 121.837 229.342 121.432C229.476 120.879 230.273 117.902 231.734 112.503H233.706L230.229 124.63L227.972 124.629Z" fill="#0A0A0A"/>
<path d="M395.38 123.841C392.711 123.843 390.129 122.922 388.105 121.243C386.081 119.565 384.747 117.242 384.348 114.696C383.948 112.149 384.509 109.55 385.928 107.368C387.346 105.187 389.529 103.569 392.079 102.809C394.63 102.049 397.378 102.197 399.825 103.225C402.272 104.254 404.255 106.096 405.414 108.416C406.572 110.735 406.83 113.379 406.14 115.867C405.45 118.354 403.857 120.52 401.652 121.971C399.803 123.188 397.618 123.839 395.38 123.841ZM395.345 104.616C393.084 104.617 390.91 105.459 389.275 106.965C387.639 108.472 386.668 110.529 386.563 112.708C386.458 114.887 387.227 117.022 388.71 118.669C390.194 120.316 392.277 121.348 394.529 121.552C396.78 121.756 399.026 121.115 400.801 119.763C402.576 118.411 403.743 116.452 404.06 114.292C404.377 112.131 403.819 109.936 402.503 108.163C401.186 106.389 399.212 105.172 396.991 104.765C396.448 104.666 395.897 104.616 395.345 104.616Z" fill="white"/>
<path d="M411.817 133.176C411.643 133.177 411.471 133.14 411.313 133.069C411.155 132.998 411.016 132.894 410.904 132.765L400.971 121.331C400.768 121.097 400.67 120.795 400.697 120.492C400.725 120.188 400.877 119.908 401.119 119.712C401.361 119.516 401.674 119.421 401.988 119.448C402.303 119.474 402.594 119.621 402.797 119.854L412.73 131.289C412.875 131.456 412.968 131.661 412.998 131.877C413.027 132.094 412.992 132.315 412.896 132.513C412.801 132.711 412.648 132.879 412.457 132.996C412.266 133.114 412.044 133.176 411.817 133.176Z" fill="white"/>
<path d="M17.8638 291.141C14.9852 291.141 12.1493 290.47 9.59755 289.185C7.04577 287.899 4.85365 286.038 3.2078 283.76C1.56194 281.481 0.511085 278.853 0.144685 276.098C-0.221715 273.344 0.10719 270.545 1.1034 267.939C2.11391 265.294 25.9126 203.027 30.4249 191.806L63.7379 204.275C61.2009 210.584 52.0086 234.495 44.6239 253.757L56.8925 252.47L60.754 286.741L19.7971 291.037C19.1551 291.105 18.5097 291.14 17.8638 291.141Z" fill="#367CFF"/>
<path d="M39.2746 289.379L33.8266 315.54H139.641L133.546 288.881L39.2746 289.379Z" fill="#262626"/>
<path d="M62.1533 172.46C53.3126 173.093 44.2981 175.864 37.6599 181.533C27.6477 190.083 28.5387 195.428 33.5369 219.107C37.8372 239.481 36.1316 248.383 39.0082 285.979C39.093 287.087 39.2746 289.378 39.2746 289.378L133.846 289.226C133.846 289.226 142.708 239.346 147.6 216.34C151.321 198.85 161.093 177.618 119.889 173.339C119.78 173.328 86.7337 170.701 62.1533 172.46Z" fill="#367CFF"/>
<path d="M255.847 153.6C251.392 153.599 247.05 152.246 243.436 149.734C239.822 147.221 237.118 143.675 235.707 139.599C234.296 135.522 234.249 131.121 235.573 127.017C236.897 122.913 239.525 119.315 243.085 116.731C246.645 114.148 250.957 112.709 255.411 112.62C259.864 112.53 264.235 113.794 267.903 116.232C271.572 118.67 274.353 122.159 275.854 126.206C277.354 130.253 277.497 134.653 276.264 138.783C274.982 143.052 272.298 146.805 268.617 149.477C264.935 152.149 260.454 153.596 255.847 153.6ZM255.832 117.206C251.65 117.203 247.624 118.73 244.563 121.479C241.502 124.228 239.636 127.994 239.339 132.018C239.043 136.042 240.339 140.025 242.966 143.163C245.593 146.302 249.356 148.363 253.495 148.931C257.635 149.499 261.844 148.532 265.274 146.224C268.704 143.916 271.099 140.44 271.977 136.496C272.856 132.551 272.151 128.433 270.006 124.97C267.861 121.507 264.435 118.957 260.419 117.835C258.928 117.419 257.384 117.207 255.832 117.206Z" fill="#0A0A0A"/>
<path d="M237.91 178.856C237.521 178.856 237.138 178.764 236.794 178.588C236.451 178.412 236.157 178.157 235.939 177.847C235.72 177.536 235.584 177.178 235.542 176.805C235.5 176.432 235.554 176.055 235.698 175.706L246.533 149.48C246.773 148.923 247.231 148.48 247.808 148.246C248.384 148.011 249.032 148.005 249.613 148.229C250.194 148.452 250.661 148.887 250.913 149.439C251.164 149.991 251.181 150.617 250.959 151.181L240.124 177.407C239.947 177.835 239.642 178.201 239.247 178.459C238.853 178.718 238.387 178.856 237.91 178.856Z" fill="#0A0A0A"/>
<path d="M229.615 175.979L236.259 161.6C236.405 161.284 236.618 161 236.884 160.768C237.149 160.536 237.462 160.359 237.802 160.25C238.143 160.141 238.503 160.101 238.86 160.134C239.217 160.166 239.563 160.27 239.876 160.438C240.444 160.767 240.866 161.287 241.059 161.899C241.252 162.51 241.203 163.169 240.921 163.748L239.497 166.831L248.59 159.119C249.585 158.246 251.386 157.786 252.33 158.928C252.722 159.345 252.957 159.877 252.996 160.439C253.034 161.001 252.874 161.559 252.542 162.021C252.553 162.028 252.563 162.036 252.572 162.045C252.578 162.053 252.583 162.062 252.587 162.071L254.122 160.722C254.406 160.472 254.745 160.287 255.113 160.18C255.481 160.073 255.869 160.046 256.25 160.102C256.63 160.157 256.992 160.294 257.31 160.502C257.629 160.71 257.895 160.984 258.09 161.304C258.386 161.814 258.492 162.406 258.389 162.982C258.287 163.558 257.983 164.083 257.528 164.468L256.874 165.042C256.883 165.068 256.886 165.095 256.885 165.122C257.419 164.833 258.043 164.737 258.644 164.851C259.246 164.965 259.785 165.282 260.167 165.745C260.568 166.263 260.753 166.908 260.683 167.552C260.614 168.195 260.295 168.79 259.792 169.217L258.169 170.642C258.207 170.637 258.245 170.641 258.281 170.654C258.316 170.666 258.348 170.687 258.374 170.714C258.403 170.747 258.421 170.788 258.427 170.831C258.977 170.702 259.556 170.75 260.075 170.969C260.594 171.187 261.024 171.564 261.299 172.042C261.577 172.549 261.67 173.132 261.562 173.697C261.454 174.262 261.152 174.775 260.704 175.153L247.014 187.178C245.098 188.86 242.706 189.952 240.143 190.314C237.58 190.676 234.964 190.291 232.629 189.209C230.616 188.276 229.059 186.623 228.29 184.6C227.52 182.577 227.598 180.345 228.508 178.377L229.615 175.979Z" fill="#E98862"/>
<g opacity="0.2">
<path d="M243.58 169.696C243.622 169.741 243.681 169.767 243.743 169.77C243.806 169.773 243.867 169.753 243.914 169.713L252.552 162.368C252.575 162.348 252.594 162.324 252.608 162.297C252.622 162.27 252.63 162.24 252.632 162.21C252.634 162.18 252.63 162.15 252.619 162.121C252.609 162.093 252.593 162.066 252.573 162.044C252.552 162.021 252.527 162.002 252.499 161.989C252.471 161.976 252.44 161.968 252.409 161.966C252.378 161.964 252.346 161.968 252.317 161.978C252.287 161.988 252.26 162.003 252.236 162.023L243.599 169.368C243.576 169.388 243.556 169.412 243.543 169.439C243.529 169.466 243.521 169.496 243.519 169.526C243.517 169.556 243.521 169.586 243.531 169.615C243.541 169.644 243.557 169.67 243.578 169.693L243.58 169.696Z" fill="#0C0C0C"/>
</g>
<g opacity="0.2">
<path d="M246.833 173.461C246.875 173.506 246.933 173.532 246.996 173.535C247.058 173.538 247.119 173.518 247.166 173.478L256.806 165.281C256.83 165.261 256.849 165.237 256.863 165.209C256.876 165.182 256.884 165.153 256.886 165.123C256.888 165.093 256.884 165.062 256.874 165.034C256.864 165.005 256.848 164.979 256.827 164.956C256.784 164.912 256.726 164.886 256.663 164.882C256.601 164.878 256.539 164.898 256.491 164.936L246.851 173.133C246.827 173.153 246.808 173.177 246.794 173.204C246.781 173.231 246.772 173.26 246.771 173.291C246.769 173.321 246.773 173.351 246.783 173.38C246.793 173.408 246.809 173.434 246.83 173.457L246.833 173.461Z" fill="#0C0C0C"/>
</g>
<g opacity="0.2">
<path d="M250.331 177.558C250.373 177.602 250.432 177.629 250.494 177.632C250.557 177.635 250.618 177.615 250.665 177.575L258.354 171.037C258.378 171.017 258.397 170.992 258.411 170.965C258.424 170.938 258.432 170.909 258.434 170.878C258.436 170.848 258.432 170.818 258.422 170.79C258.412 170.761 258.396 170.735 258.375 170.712C258.354 170.689 258.329 170.671 258.301 170.658C258.273 170.644 258.242 170.637 258.211 170.635C258.18 170.633 258.149 170.637 258.119 170.647C258.089 170.656 258.062 170.672 258.039 170.692L250.349 177.23C250.326 177.25 250.306 177.274 250.293 177.301C250.279 177.328 250.271 177.358 250.269 177.388C250.267 177.418 250.271 177.448 250.281 177.477C250.292 177.505 250.307 177.532 250.328 177.554L250.331 177.558Z" fill="#0C0C0C"/>
</g>
<path d="M225.462 171.311L185.176 215.079L144.469 181.101L121.09 207.172L175.132 252.28L175.496 252.584C175.623 252.688 175.751 252.791 175.88 252.893C179.482 255.704 184.094 257.02 188.701 256.551C193.309 256.082 197.535 253.867 200.449 250.392L249.963 191.352L225.462 171.311Z" fill="#367CFF"/>
<path d="M119.889 173.341C119.779 173.327 116.778 184.226 93.3519 182.53C77.1342 181.357 73.1798 170.707 72.8082 170.707C74.5567 170.349 77.3962 169.977 78.1728 169.577C80.7264 168.253 82.5864 166.641 83.5231 163.183C84.2554 160.478 84.6284 150.067 84.6284 144.843L109.584 150.253C109.236 156.146 106.802 169.807 115.334 172.224C116.754 172.624 118.283 172.992 119.889 173.341Z" fill="#E98862"/>
<path d="M108.722 161.839C98.8837 162.587 86.2459 158.58 83.8452 145.916L81.6793 134.49C79.2786 121.827 84.2268 110.345 96.5854 108.164C108.944 105.984 120.127 114.62 122.528 127.283L123.487 132.339C124.406 137.2 126.273 160.502 108.722 161.839Z" fill="#E98862"/>
<path d="M117.842 150.213C116.077 141.653 115.267 135.941 115.361 129.916C117.848 125.706 117.194 120.876 116.628 118.788C119.066 120.071 120.086 120.213 122.38 120.213C122.38 120.213 118.267 104.285 104.285 99.9997C101.713 99.0345 95.1504 97.815 86.4346 98.9683C79.0213 99.9492 60.7473 105.297 58.1346 125.145V125.157C58.0479 125.815 56.2936 144.103 52.7957 152.877C48.0928 164.672 41.4914 168.337 41.6586 181.945C41.874 199.451 75.2308 201.781 95.3524 200.472C115.474 199.162 126.702 192.779 126.848 180.164C127.01 166.025 121.376 167.339 117.842 150.213Z" fill="#0A0A0A"/>
<path d="M117.848 143.036C114.092 143.698 110.313 140.36 109.626 136.736C108.94 133.113 111.605 130.577 115.361 129.915L117.848 143.036Z" fill="#E98862"/>
<path d="M145.34 227.642C145.326 227.642 145.311 227.641 145.296 227.638C145.265 227.633 145.236 227.621 145.21 227.605C145.183 227.588 145.161 227.567 145.143 227.542C145.125 227.517 145.113 227.489 145.107 227.459C145.1 227.43 145.1 227.399 145.106 227.37L147.503 215.115C147.508 215.085 147.519 215.056 147.536 215.029C147.552 215.003 147.574 214.98 147.6 214.962C147.627 214.944 147.656 214.932 147.687 214.925C147.719 214.918 147.751 214.918 147.783 214.924C147.814 214.929 147.844 214.941 147.871 214.958C147.897 214.975 147.92 214.998 147.938 215.023C147.955 215.049 147.967 215.078 147.973 215.109C147.979 215.139 147.978 215.17 147.971 215.2L145.574 227.456C145.563 227.508 145.534 227.555 145.492 227.589C145.449 227.623 145.396 227.642 145.34 227.642Z" fill="#0C0C0C"/>
<path d="M39.2746 289.608C39.213 289.608 39.1538 289.585 39.1094 289.544C39.065 289.503 39.0388 289.447 39.0364 289.388L36.073 215.166C36.0717 215.136 36.0766 215.106 36.0874 215.077C36.0982 215.049 36.1147 215.023 36.1359 215.001C36.1572 214.979 36.1827 214.961 36.2112 214.948C36.2396 214.935 36.2703 214.928 36.3016 214.927C36.364 214.927 36.4239 214.95 36.4697 214.991C36.5154 215.032 36.5437 215.088 36.5489 215.148L39.5128 289.37C39.514 289.4 39.509 289.43 39.4982 289.458C39.4873 289.487 39.4708 289.513 39.4495 289.535C39.4282 289.557 39.4026 289.575 39.3741 289.588C39.3457 289.6 39.3149 289.607 39.2836 289.608H39.2746Z" fill="#0C0C0C"/>
<path d="M182.473 218.849C182.429 218.849 182.385 218.837 182.348 218.815C182.31 218.792 182.28 218.76 182.26 218.722C182.24 218.684 182.232 218.641 182.236 218.599C182.24 218.556 182.256 218.516 182.282 218.481L184.987 214.942C185.025 214.894 185.081 214.863 185.143 214.854C185.205 214.846 185.267 214.861 185.318 214.897C185.368 214.932 185.402 214.986 185.412 215.045C185.421 215.105 185.407 215.166 185.371 215.215L182.664 218.756C182.642 218.785 182.613 218.808 182.58 218.824C182.547 218.84 182.51 218.849 182.473 218.849Z" fill="#0C0C0C"/>
<path d="M10.8459 316H487.106C487.232 316 487.353 315.952 487.443 315.865C487.532 315.779 487.582 315.662 487.582 315.54C487.582 315.418 487.532 315.302 487.443 315.215C487.353 315.129 487.232 315.081 487.106 315.081H10.8459C10.7196 315.081 10.5984 315.129 10.5091 315.215C10.4197 315.302 10.3695 315.418 10.3695 315.54C10.3695 315.662 10.4197 315.779 10.5091 315.865C10.5984 315.952 10.7196 316 10.8459 316Z" fill="#292A2E"/>
</g>
<defs>
<clipPath id="clip0_119_872">
<rect width="504" height="316" fill="white"/>
</clipPath>
</defs>
</svg>
