<svg width="349" height="349" viewBox="0 0 349 349" fill="none" xmlns="http://www.w3.org/2000/svg">
<g clip-path="url(#clip0_46_2)">
<path d="M243.495 144.126C247.939 141.792 249.319 137.234 249.483 133.696C249.797 126.761 247.748 122.204 246.424 117.419C243.737 107.739 241.49 98.058 241.024 87.268C240.876 83.814 240.815 72.721 240.679 68.548C240.322 56.69 234.053 44.266 226.499 36.599L220.089 31.242C217.269 29.0192 214.135 27.2264 210.789 25.922C203.858 23.068 196.443 21.5742 188.948 21.522C176.548 21.1442 164.427 25.2495 154.808 33.085C142.083 43.914 136.023 59.165 137.508 84.318C141.169 103.575 138.058 116.853 138.895 134.001C139.124 138.679 145.28 147.853 151.503 146.575L243.495 144.126Z" fill="#A98A75"/>
<path d="M196.136 57.654C189.277 65.733 178.862 72.008 167.622 75.545C167.455 75.5954 167.277 75.6016 167.106 75.5631C166.935 75.5246 166.777 75.4426 166.647 75.3252C166.517 75.2077 166.42 75.0587 166.365 74.8926C166.309 74.7265 166.298 74.5489 166.331 74.377C166.884 71.4 167.267 68.545 167.539 65.577C160.621 73.259 148.352 82.518 139.949 86.422C141.159 93.579 141.977 100.81 142.882 107.412C144.326 117.939 147.802 127.403 155.365 133.26C159.753 136.799 164.93 139.226 170.457 140.334L169.164 141.072C166.826 142.196 164.421 143.178 161.964 144.013C161.968 144.024 161.972 144.035 161.974 144.047L162.793 148.288C163.727 153.138 167.456 157.147 171.904 159.288C176.352 161.429 181.444 161.914 186.375 161.627C202.696 160.676 216.628 151.836 228.04 140.667C225.428 139.658 222.889 138.47 220.44 137.111C218.28 136.026 216.521 134.283 215.415 132.134C214.966 130.953 214.644 129.727 214.455 128.478L213.955 124.401C213.955 124.401 213.887 123.981 213.789 123.369C215.15 121.635 216.373 119.869 217.538 118.036C217.538 118.036 219.366 115.041 220.127 113.336C220.127 113.336 220.327 112.959 220.618 112.415C222.794 112.401 224.93 111.838 226.83 110.779C229.718 108.815 231.954 106.035 233.253 102.793C234.797 99.461 235.379 93.912 233.83 90.726C233.349 89.7668 232.621 88.9527 231.722 88.3672C230.822 87.7818 229.783 87.4459 228.711 87.394C227.012 87.1645 225.29 87.5938 223.897 88.594L215.495 86.87C210.018 84.246 203.859 75.87 201.507 70.963C199.505 66.714 197.744 62.3558 196.232 57.909" fill="white"/>
<path d="M180.87 256.837C187.44 277.71 196.064 305.187 200.761 320.211C201.146 321.436 201.1 322.756 200.632 323.952C200.164 325.148 199.301 326.148 198.187 326.787L197.65 327.095L198.217 326.858C210.3 321.817 249.424 304.434 256.842 301.025L254.081 288.07C254.081 288.07 191.772 260.67 180.87 256.837Z" fill="white"/>
<path d="M224.568 38.07C230.053 43.281 234.045 50.506 236.316 57.67C237.491 61.2834 238.157 65.0429 238.295 68.84C238.379 71.618 238.403 74.397 238.44 77.176C238.399 84.0556 238.8 90.9308 239.64 97.759C240.894 105.964 242.784 114.059 245.295 121.97C247.238 128.307 249.41 138.15 242.286 142.049C239.576 143.533 241.995 147.679 244.709 146.194C252.062 142.17 252.702 133.322 251.284 125.93C250.589 122.304 249.293 118.817 248.324 115.26C247.124 110.842 246.024 106.394 245.166 101.895C243.885 94.555 243.249 87.1169 243.266 79.666C243.166 72.744 243.419 65.752 241.687 58.99C239.416 50.119 234.646 41.028 227.959 34.674C225.719 32.546 222.32 35.935 224.564 38.068L224.568 38.07Z" fill="#211715"/>
<path d="M227.943 295.523C223.79 298.862 220.653 303.393 216.352 307.874C215.734 308.518 213.202 310.207 211.252 308.701C209.968 307.712 209.783 305.225 210.252 304.21C212.78 298.684 213.816 297.01 215.694 293.141C213.405 295.553 211.619 297.575 208.908 300.315L206.145 303.108C203.428 305.855 200.712 308.602 197.995 311.349C195.095 302.085 191.495 290.597 187.902 279.174C191.029 275.166 193.863 270.748 197.721 267.358C200.539 264.714 204.122 263.029 207.956 262.544C209.54 262.448 211.13 262.502 212.704 262.705C215.709 263.012 218.703 263.404 221.686 263.879C227.109 264.744 233.186 265.758 237.522 262.087C243.143 267.061 248.244 276.877 251.061 286.039C250.048 286.531 249.074 287.099 248.147 287.739C247.52 288.168 245.503 289.955 244.835 290.317C239.692 293.054 234.076 294.79 228.286 295.431" fill="white"/>
<path d="M248.121 278.156C245.278 271.663 241.526 265.636 237.506 262.078C233.171 265.757 227.099 264.743 221.678 263.878C218.696 263.403 215.702 263.011 212.696 262.704C211.122 262.501 209.532 262.447 207.948 262.543C204.114 263.028 200.532 264.713 197.713 267.357C194.922 269.99 192.416 272.911 190.237 276.07L106.46 229.357C102.787 219.966 100.56 213.176 97.7402 203.657C103.997 201.61 119.479 197.137 127.305 194.157C127.928 189.265 128.796 184.408 129.905 179.603C131.238 173.103 134.515 163.146 140.794 155.861C144.905 151.091 153.239 147.083 160.794 144.478C160.994 144.387 161.322 144.267 161.734 144.127C162.316 146.404 162.796 148.286 162.796 148.286C163.73 153.136 167.459 157.145 171.907 159.286C176.355 161.427 181.447 161.912 186.378 161.625C203.061 160.653 217.248 151.438 228.799 139.918C244.908 144.523 257.674 149.248 266.683 162.252C274.537 173.59 280.016 194.573 282.238 202.797C284.528 211.272 286.915 219.858 288.599 229.671C289.522 234.771 291.238 245.129 291.349 248.962C291.438 252.032 290.913 258.905 290.044 261.684C288.379 267.579 284.876 272.788 280.044 276.553C272.277 282.789 260.263 288.098 252.384 291.068C251.383 286.636 249.956 282.312 248.121 278.156Z" fill="#034C8C"/>
<path d="M97.5062 148.67C97.6202 148.65 97.7362 148.632 97.8552 148.617C98.6515 148.523 99.4538 148.489 100.255 148.517L99.4022 146.412C97.6415 142.275 95.8832 138.136 94.1272 133.997C93.6608 132.991 93.2924 131.942 93.0272 130.865C92.8112 129.987 92.7823 129.073 92.9424 128.183C93.1024 127.293 93.4478 126.446 93.9562 125.698C94.9762 124.378 97.0562 124.245 98.6782 124.853C100.456 125.521 101.441 126.93 102.551 128.71C106.151 134.487 110.899 146.021 112.944 152.546L113.465 154.207C115.708 153.396 118.107 152.974 120.131 154.09C121.759 155.176 122.968 156.784 123.558 158.649C125.097 162.533 125.776 166.705 125.548 170.876C125.32 175.048 124.191 179.12 122.239 182.814C123.812 186.506 125.134 190.299 126.197 194.168L126.289 194.533C120.114 196.805 110.208 199.788 103.206 201.943L102.956 201.011C102.538 199.448 100.034 191.611 98.7162 189.704C97.4912 188.138 96.0733 186.733 94.4962 185.523C91.8577 183.145 89.3611 180.614 87.0192 177.943C85.7102 176.565 84.2332 173.143 84.5762 171.093C84.8595 168.641 85.8611 166.328 87.4552 164.443C87.8862 164.029 88.4006 163.711 88.9642 163.512C89.5278 163.312 90.1275 163.235 90.7232 163.286L90.5612 162.947C90.0845 162.335 89.7465 161.627 89.5703 160.872C89.3942 160.117 89.3843 159.332 89.5412 158.573C90.0582 156.534 90.9932 156.105 92.6812 155.673C92.7226 155.662 92.7647 155.654 92.8072 155.648L92.8232 153.704C92.807 153.119 92.9114 152.536 93.1299 151.993C93.3483 151.449 93.6762 150.956 94.0932 150.545C94.982 149.547 96.1871 148.885 97.5062 148.67Z" fill="white"/>
<path d="M209.945 142.84C209.995 142.816 209.995 142.813 209.945 142.84Z" fill="white"/>
<path d="M288.126 272.151C294.717 272.151 301.308 272.143 307.897 272.127L338.921 272.089C341.508 272.089 344.095 272.086 346.682 272.08C349.77 272.08 349.776 267.28 346.682 267.28C339.922 267.28 333.162 267.288 326.402 267.304L295.52 267.343C293.053 267.343 290.589 267.346 288.126 267.351C285.038 267.351 285.033 272.151 288.126 272.151Z" fill="#211715"/>
<path d="M2.31299 272.159C14.166 272.159 26.018 272.112 37.87 272.09C39.746 272.086 41.622 272.083 43.498 272.08C46.586 272.08 46.591 267.28 43.498 267.28C31.51 267.28 19.522 267.326 7.53499 267.349C5.79433 267.353 4.05366 267.356 2.31299 267.359C-0.775007 267.359 -0.780007 272.159 2.31299 272.159Z" fill="#211715"/>
<path d="M230.044 142.781C242.373 146.39 254.644 150.942 262.962 161.247C266.788 165.988 269.434 171.671 271.67 177.299C273.989 183.133 275.903 189.125 277.638 195.156C281.471 207.963 284.58 220.976 286.951 234.132C288.721 244.576 290.851 256.14 285.743 266.032C282.51 272.296 276.799 276.405 270.834 279.861C265.051 283.162 259.017 286.004 252.789 288.361C251.583 288.828 250.371 289.276 249.153 289.706C248.548 289.888 248.036 290.297 247.724 290.846C247.411 291.396 247.323 292.045 247.476 292.658C247.65 293.269 248.057 293.787 248.61 294.1C249.162 294.414 249.815 294.498 250.429 294.334C256.635 292.147 262.69 289.552 268.553 286.564C275.111 283.205 281.977 279.217 286.64 273.384C288.784 270.68 290.477 267.648 291.653 264.404C292.613 261.621 293.207 258.725 293.421 255.789C293.742 253.115 293.828 250.417 293.677 247.728C293.444 244.744 292.988 241.77 292.539 238.812C291.455 231.671 290.203 224.546 288.539 217.512C286.972 210.882 285.156 204.312 283.348 197.74C281.718 191.813 279.948 185.92 277.855 180.14C275.744 173.82 272.922 167.76 269.442 162.077C265.749 156.401 260.882 151.583 255.17 147.946C249.345 144.423 243.09 141.667 236.559 139.746C234.819 139.188 233.069 138.662 231.316 138.146C228.345 137.276 227.077 141.907 230.04 142.774L230.044 142.781Z" fill="#211715"/>
<path d="M236.964 256.546C241.89 254.457 246.625 252.022 251.437 249.691C251.984 249.367 252.381 248.841 252.543 248.226C252.704 247.611 252.616 246.957 252.298 246.407C251.965 245.87 251.439 245.481 250.828 245.321C250.217 245.16 249.567 245.241 249.014 245.546C244.202 247.877 239.468 250.312 234.541 252.401C234.269 252.56 234.03 252.771 233.84 253.022C233.649 253.273 233.51 253.56 233.43 253.865C233.35 254.17 233.331 254.487 233.374 254.8C233.417 255.112 233.521 255.413 233.68 255.685C234.015 256.22 234.541 256.607 235.151 256.767C235.761 256.927 236.41 256.848 236.964 256.546Z" fill="#211715"/>
<path d="M240.147 211.327L247.464 238.113C248.277 241.09 252.909 239.826 252.093 236.837L244.775 210.051C243.962 207.075 239.33 208.339 240.147 211.327Z" fill="#211715"/>
<path d="M235.38 260.71C231.971 262.886 227.739 262.401 223.927 261.819C219.211 261.099 214.391 260.157 209.61 260.091C199.862 259.956 193.462 267.729 188.165 274.858C187.848 275.409 187.76 276.062 187.921 276.677C188.082 277.291 188.479 277.818 189.026 278.142C189.579 278.448 190.229 278.53 190.84 278.37C191.452 278.209 191.978 277.819 192.31 277.281C194.81 273.914 197.404 270.35 200.863 267.894C202.462 266.713 204.261 265.83 206.173 265.286C208.239 264.839 210.368 264.77 212.459 265.081C216.913 265.523 221.304 266.359 225.746 266.87C229.874 267.345 234.203 267.153 237.803 264.854C240.403 263.197 237.994 259.041 235.38 260.71Z" fill="#211715"/>
<path d="M198.322 278.184L190.982 285.461C190.538 285.912 190.29 286.521 190.293 287.154C190.296 287.787 190.548 288.394 190.996 288.841C191.444 289.289 192.05 289.542 192.683 289.544C193.316 289.547 193.925 289.299 194.376 288.855L201.716 281.579C202.167 281.129 202.421 280.518 202.421 279.881C202.422 279.244 202.169 278.633 201.719 278.182C201.269 277.731 200.658 277.477 200.021 277.477C199.384 277.476 198.773 277.729 198.322 278.179V278.184Z" fill="#211715"/>
<path d="M199.001 299.07C202.701 294.745 206.757 290.722 210.801 286.722C211.245 286.271 211.493 285.662 211.49 285.029C211.488 284.396 211.235 283.789 210.787 283.342C210.34 282.894 209.733 282.641 209.1 282.639C208.467 282.636 207.858 282.884 207.407 283.328C203.359 287.328 199.307 291.35 195.607 295.676C195.163 296.127 194.915 296.736 194.918 297.369C194.921 298.002 195.173 298.609 195.621 299.056C196.069 299.504 196.675 299.757 197.308 299.759C197.941 299.762 198.55 299.514 199.001 299.07Z" fill="#211715"/>
<path d="M204.362 308.314C207.088 305.559 209.849 302.833 212.524 300.027C214.887 297.549 217.177 295.003 219.584 292.566C219.807 292.343 219.984 292.078 220.104 291.786C220.225 291.495 220.287 291.182 220.287 290.867C220.286 290.551 220.224 290.239 220.103 289.947C219.982 289.656 219.805 289.391 219.582 289.168C219.358 288.946 219.093 288.769 218.802 288.648C218.51 288.528 218.198 288.466 217.882 288.466C217.567 288.466 217.254 288.529 216.963 288.65C216.672 288.771 216.407 288.948 216.184 289.171C213.778 291.609 211.484 294.154 209.125 296.633C206.45 299.439 203.689 302.165 200.963 304.92C200.519 305.371 200.271 305.98 200.274 306.613C200.277 307.246 200.529 307.853 200.977 308.3C201.425 308.748 202.031 309.001 202.664 309.003C203.297 309.006 203.906 308.758 204.357 308.314H204.362Z" fill="#211715"/>
<path d="M228.278 297.832C233.179 297.263 237.975 296.004 242.524 294.094C244.438 293.324 246.236 292.289 247.864 291.021C248.194 290.755 248.519 290.484 248.847 290.215C249.008 290.084 249.168 289.952 249.331 289.822C249.64 289.576 249.062 290.012 249.292 289.854C250.248 289.203 251.247 288.618 252.282 288.102C252.832 287.781 253.231 287.254 253.392 286.638C253.554 286.022 253.464 285.368 253.143 284.818C252.822 284.268 252.295 283.869 251.679 283.707C251.063 283.546 250.409 283.636 249.859 283.957C248.211 284.795 246.663 285.815 245.241 286.996C244.785 287.397 244.308 287.774 243.812 288.125C242.873 288.69 241.894 289.185 240.882 289.605C236.874 291.362 232.628 292.517 228.282 293.032C227.652 293.052 227.053 293.311 226.607 293.757C226.161 294.203 225.902 294.802 225.882 295.432C225.885 296.067 226.139 296.676 226.589 297.125C227.038 297.575 227.646 297.829 228.282 297.832H228.278Z" fill="#211715"/>
<path d="M234.943 263.057C238.81 265.942 241.625 270.567 243.865 274.823C246.525 279.885 248.541 285.26 249.865 290.823C250.58 293.823 255.21 292.555 254.493 289.547C253.024 283.453 250.781 277.572 247.819 272.047C245.179 267.105 241.896 262.294 237.363 258.912C236.812 258.595 236.159 258.507 235.544 258.668C234.93 258.83 234.403 259.226 234.079 259.773C233.773 260.326 233.691 260.976 233.851 261.588C234.012 262.199 234.402 262.725 234.94 263.057H234.943Z" fill="#211715"/>
<path d="M212.895 293.389C211.914 295.348 210.895 297.289 209.935 299.255C209.172 300.675 208.493 302.139 207.903 303.639C207.52 304.909 207.509 306.262 207.87 307.539C208.062 308.312 208.419 309.034 208.919 309.655C209.418 310.275 210.046 310.78 210.76 311.133C211.474 311.486 212.256 311.679 213.052 311.699C213.849 311.719 214.639 311.565 215.37 311.248C218.254 310.102 220.154 307.319 222.117 305.039C224.389 302.216 226.908 299.6 229.643 297.222C230.089 296.77 230.339 296.16 230.339 295.525C230.339 294.89 230.089 294.28 229.643 293.828C229.186 293.391 228.578 293.147 227.946 293.147C227.314 293.147 226.706 293.391 226.249 293.828C221.826 297.428 218.6 302.185 214.618 306.219C214.556 306.282 214.213 306.544 214.482 306.349C214.77 306.14 214.169 306.533 214.102 306.572C213.99 306.635 213.532 306.841 213.883 306.704C213.743 306.759 213.171 306.923 213.3 306.904C213.199 306.945 213.088 306.956 212.98 306.937C212.872 306.917 212.772 306.868 212.691 306.795C212.923 306.931 212.557 306.566 212.772 306.895C212.694 306.776 212.624 306.652 212.561 306.524C212.672 306.745 212.606 306.677 212.561 306.486C212.511 306.269 212.445 306.058 212.407 305.838C212.486 306.293 212.423 305.667 212.416 305.514C212.411 305.414 212.436 305.314 212.427 305.214C212.427 305.266 212.308 305.614 212.401 305.391C212.433 305.317 212.432 305.221 212.458 305.143C212.577 304.791 212.349 305.358 212.533 304.966C213.065 303.836 213.588 302.703 214.133 301.58C215.076 299.648 216.077 297.746 217.04 295.825C217.346 295.272 217.427 294.622 217.267 294.011C217.107 293.399 216.717 292.873 216.179 292.541C215.628 292.226 214.975 292.14 214.361 292.301C213.747 292.462 213.221 292.857 212.895 293.402V293.389Z" fill="#211715"/>
<path d="M208.974 131.994C212.271 129.019 215.217 125.677 217.754 122.032C219.462 119.68 220.951 117.176 222.2 114.551C222.503 113.997 222.583 113.349 222.422 112.738C222.262 112.128 221.875 111.602 221.339 111.268C220.788 110.952 220.135 110.865 219.521 111.026C218.907 111.187 218.38 111.583 218.056 112.129C216.847 114.669 215.412 117.096 213.77 119.38C211.407 122.761 208.659 125.855 205.58 128.6C205.136 129.051 204.888 129.66 204.891 130.293C204.893 130.926 205.146 131.533 205.594 131.98C206.041 132.428 206.648 132.681 207.281 132.683C207.914 132.686 208.522 132.438 208.974 131.994Z" fill="#211715"/>
<path d="M197.473 133.131C187.23 138.168 175.012 140.823 164.2 135.869C159.132 133.699 154.759 130.178 151.557 125.69C148.62 121.024 146.655 115.813 145.781 110.37C144.348 102.819 143.757 95.102 142.555 87.509C142.382 86.8978 141.975 86.3792 141.423 86.0656C140.87 85.7519 140.217 85.6684 139.603 85.833C138.998 86.0151 138.486 86.4235 138.174 86.9732C137.861 87.523 137.773 88.1718 137.927 88.785C139.067 95.985 139.71 103.272 140.938 110.458C141.821 116.485 143.887 122.279 147.016 127.505C153.656 137.959 166.355 143.831 178.573 143.276C186.101 142.935 193.173 140.581 199.896 137.276C200.441 136.95 200.836 136.424 200.997 135.81C201.158 135.197 201.072 134.544 200.757 133.993C200.427 133.453 199.9 133.062 199.288 132.901C198.676 132.741 198.026 132.823 197.473 133.131Z" fill="#211715"/>
<path d="M225.11 90.67C225.746 90.2083 226.485 89.909 227.263 89.7979C228.041 89.6869 228.835 89.7676 229.574 90.033C230.105 90.1949 230.593 90.4745 231 90.851C231.076 90.919 231.513 91.423 231.209 91.033C231.359 91.2322 231.493 91.4432 231.609 91.664C232.95 94.141 232.393 97.875 231.572 100.496C230.683 103.358 229.015 105.916 226.755 107.885C224.867 109.469 221.384 110.829 218.835 109.742C218.281 109.442 217.633 109.363 217.023 109.523C216.413 109.683 215.887 110.069 215.551 110.603C215.235 111.154 215.147 111.807 215.309 112.421C215.47 113.035 215.866 113.562 216.412 113.886C218.145 114.554 219.999 114.849 221.853 114.751C223.707 114.653 225.52 114.165 227.172 113.318C230.267 111.881 232.731 108.927 234.341 105.988C235.999 103.032 236.95 99.7314 237.119 96.346C237.26 93.268 236.719 89.822 234.473 87.54C232.908 86.07 230.894 85.1703 228.754 84.9863C226.615 84.8023 224.476 85.3448 222.683 86.526C222.146 86.8586 221.758 87.3847 221.597 87.9956C221.437 88.6066 221.518 89.2557 221.822 89.809C222.147 90.3548 222.674 90.7509 223.288 90.912C223.902 91.0731 224.555 90.9861 225.106 90.67H225.11Z" fill="#211715"/>
<path d="M194.077 92.586C194.825 94.686 194.607 99.616 190.585 100.206C185.243 100.406 184.705 94.483 186.385 91.617C187.757 89.27 192.044 88.136 194.077 92.586Z" fill="#211715"/>
<path d="M161.907 93.037C162.601 95.081 162.419 99.857 158.731 100.415C153.831 100.586 153.314 94.841 154.843 92.068C156.095 89.797 160.025 88.712 161.907 93.037Z" fill="#211715"/>
<path d="M170.129 102.509C169.385 103.883 168.713 105.295 168.114 106.738L168.356 106.165C168 106.836 167.795 107.577 167.756 108.335C167.752 108.805 167.855 109.27 168.056 109.695C168.257 110.12 168.552 110.494 168.918 110.789C169.468 111.278 170.132 111.622 170.849 111.789C171.317 111.877 171.777 111.889 172.249 111.933C172.564 111.934 172.877 111.872 173.169 111.752C173.46 111.632 173.725 111.456 173.949 111.233C174.399 110.783 174.652 110.172 174.652 109.536C174.652 108.9 174.399 108.289 173.949 107.839C173.48 107.416 172.88 107.169 172.249 107.139C172.018 107.116 171.785 107.121 171.555 107.091L172.193 107.177C172.029 107.151 171.868 107.108 171.714 107.046L172.288 107.288C172.126 107.215 171.972 107.126 171.829 107.021L172.315 107.396C172.208 107.315 172.108 107.227 172.015 107.131L172.391 107.617C172.346 107.558 172.308 107.492 172.28 107.423L172.521 107.997C172.505 107.95 172.493 107.901 172.485 107.852L172.571 108.49C172.559 108.386 172.559 108.281 172.571 108.177L172.486 108.815C172.525 108.592 172.59 108.374 172.68 108.166L172.438 108.74C172.566 108.442 172.692 108.142 172.817 107.84L172.575 108.413C173.081 107.225 173.675 106.067 174.275 104.928C174.589 104.365 174.675 103.704 174.517 103.079C174.392 102.624 174.135 102.215 173.778 101.905C173.422 101.595 172.982 101.397 172.514 101.336C172.045 101.275 171.569 101.353 171.145 101.561C170.721 101.769 170.368 102.098 170.13 102.506L170.129 102.509Z" fill="#211715"/>
<path d="M180.582 128.741C181.402 128.021 182.153 127.225 182.825 126.364C183.455 125.543 184.023 124.677 184.525 123.772C185.701 121.607 187.204 118.112 184.436 116.464C183.078 115.656 181.212 116.039 179.712 116.164C178.123 116.293 176.537 116.448 174.953 116.617C173.17 116.809 171.389 117.017 169.613 117.275C169 117.446 168.48 117.852 168.166 118.405C167.852 118.958 167.769 119.613 167.937 120.227C168.123 120.83 168.532 121.339 169.081 121.651C169.629 121.962 170.276 122.053 170.889 121.904C171.068 121.878 171.247 121.856 171.425 121.829C170.694 121.942 171.201 121.859 171.374 121.837C171.751 121.788 172.129 121.74 172.507 121.695C173.353 121.593 174.2 121.497 175.047 121.407C176.77 121.223 178.494 121.056 180.221 120.924C180.906 120.872 181.592 120.824 182.279 120.793C182.397 120.78 182.516 120.775 182.634 120.779C182.39 120.769 182.152 120.697 181.945 120.568C181.737 120.439 181.567 120.258 181.45 120.043C181.295 119.752 181.232 119.421 181.269 119.093C181.178 119.319 181.111 119.553 181.069 119.793C181.019 119.947 180.969 120.101 180.909 120.253C180.803 120.521 180.79 120.553 180.872 120.36C180.393 121.412 179.807 122.412 179.124 123.344C178.98 123.544 178.838 123.752 178.683 123.944C178.945 123.618 178.483 124.144 178.427 124.206C178.035 124.606 177.604 124.97 177.191 125.35C176.746 125.803 176.496 126.412 176.496 127.047C176.496 127.682 176.746 128.291 177.191 128.744C177.648 129.181 178.256 129.426 178.888 129.426C179.521 129.426 180.128 129.181 180.585 128.744L180.582 128.741Z" fill="#211715"/>
<path d="M198.855 329.17C206.685 325.9 214.447 322.47 222.213 319.049C231.18 315.105 240.136 311.134 249.079 307.137C252.079 305.798 255.072 304.463 258.053 303.094C258.599 302.769 258.995 302.243 259.156 301.629C259.317 301.015 259.23 300.362 258.914 299.811C258.583 299.272 258.057 298.882 257.445 298.722C256.834 298.561 256.184 298.643 255.631 298.95C239.981 306.136 224.184 313.023 208.395 319.894C206.28 320.815 204.163 321.731 202.044 322.643C201.159 323.023 200.273 323.402 199.386 323.779C199.186 323.864 198.027 324.354 198.625 324.102L197.579 324.541C196.977 324.728 196.468 325.137 196.157 325.685C195.846 326.234 195.755 326.88 195.903 327.493C196.075 328.105 196.482 328.624 197.035 328.938C197.587 329.252 198.241 329.335 198.855 329.17Z" fill="#211715"/>
<path d="M40.5461 231.377C71.3341 231.888 141.618 232.048 166.714 232.216C168.573 232.227 170.381 232.827 171.878 233.93C173.374 235.034 174.482 236.583 175.042 238.356C181.014 257.242 194.442 299.997 200.761 320.211C201.026 321.056 201.088 321.953 200.941 322.826C200.795 323.7 200.444 324.527 199.918 325.24C199.392 325.953 198.705 326.532 197.913 326.929C197.122 327.327 196.247 327.532 195.361 327.528C168.166 327.428 94.8981 327.168 66.7291 326.598C65.5463 326.575 64.4007 326.18 63.4555 325.469C62.5104 324.757 61.8138 323.766 61.4651 322.635C55.9111 304.67 41.6471 259.403 35.0751 238.724C34.8036 237.871 34.7392 236.966 34.887 236.083C35.0349 235.2 35.3909 234.365 35.9256 233.647C36.4603 232.929 37.1582 232.348 37.9617 231.954C38.7651 231.559 39.651 231.361 40.5461 231.377Z" fill="white"/>
<path d="M40.5459 233.777C54.9259 234.014 69.3079 234.107 83.6889 234.199C100.489 234.308 117.289 234.394 134.089 234.457C141.156 234.488 148.222 234.52 155.289 234.552C158.049 234.566 160.809 234.581 163.569 234.596C166.637 234.614 169.79 234.429 171.819 237.218C172.637 238.595 173.229 240.095 173.571 241.66C174.043 243.153 174.514 244.646 174.985 246.139C176.109 249.703 177.232 253.267 178.354 256.831C180.961 265.114 183.566 273.398 186.167 281.682C188.731 289.845 191.293 298.008 193.852 306.173C194.932 309.616 196.011 313.059 197.088 316.503C197.864 318.983 200.141 323.286 196.764 324.83C195.626 325.35 194.164 325.124 192.935 325.12L188.96 325.105L179.788 325.07C172.48 325.042 165.171 325.011 157.862 324.978C141.235 324.901 124.608 324.801 107.981 324.678C94.4899 324.578 80.9979 324.472 67.5089 324.209C66.0089 324.18 64.5819 323.823 63.8929 322.319C63.4132 321.072 63.0124 319.796 62.6929 318.498C61.7289 315.396 60.7622 312.296 59.7929 309.198C57.3729 301.454 54.9445 293.712 52.5079 285.972C47.7245 270.759 42.9245 255.552 38.1079 240.351C37.6869 239.025 36.9079 237.491 37.3349 236.11C37.5427 235.424 37.9689 234.825 38.5485 234.404C39.1281 233.983 39.8295 233.763 40.5459 233.777C43.6319 233.736 43.6409 228.936 40.5459 228.977C39.3456 228.98 38.1609 229.25 37.0769 229.765C35.9929 230.28 35.0363 231.029 34.2759 231.958C33.5155 232.887 32.9701 233.972 32.6788 235.137C32.3874 236.301 32.3574 237.516 32.5909 238.693C32.9858 240.257 33.4611 241.799 34.0149 243.314C34.5389 244.966 35.0625 246.618 35.5859 248.271C38.0892 256.173 40.5862 264.077 43.0769 271.984C48.0135 287.647 52.9292 303.317 57.8239 318.992C58.9239 322.539 59.6729 326.455 63.3859 328.203C66.1929 329.524 69.9269 329.061 72.9769 329.109C79.8215 329.216 86.6672 329.299 93.5139 329.357C110.426 329.521 127.338 329.639 144.25 329.712C159.228 329.79 174.206 329.855 189.185 329.906L193.237 329.921C194.951 330.066 196.676 329.875 198.317 329.359C199.453 328.907 200.472 328.205 201.3 327.304C202.127 326.404 202.741 325.329 203.096 324.159C203.748 322.011 203.212 320.005 202.568 317.947C200.257 310.558 197.942 303.17 195.623 295.784C190.408 279.162 185.184 262.543 179.949 245.926C178.935 242.711 178.168 239.205 176.734 236.15C174.702 231.82 170.388 229.836 165.803 229.807C159.824 229.768 153.846 229.737 147.867 229.714C131.267 229.639 114.667 229.562 98.0669 229.482C81.8759 229.393 65.6839 229.298 49.4929 229.1C46.5089 229.064 43.5249 229.022 40.5409 228.974C37.4559 228.925 37.4549 233.725 40.5459 233.777Z" fill="#211715"/>
<path d="M193.92 58.543C195.915 64.493 198.203 70.693 201.613 75.998C204.772 80.914 208.932 86.29 214.286 88.939C214.839 89.2444 215.489 89.3253 216.1 89.1651C216.711 89.0048 217.238 88.6156 217.57 88.078C217.885 87.5269 217.971 86.8742 217.81 86.2601C217.649 85.646 217.254 85.1196 216.709 84.794C211.969 82.449 208.341 77.662 205.575 73.294C202.475 68.394 200.383 62.741 198.549 57.271C197.572 54.357 192.934 55.607 193.92 58.547V58.543Z" fill="#211715"/>
<path d="M194.439 55.957C190.903 60.0346 186.753 63.5369 182.139 66.338C179.727 67.8208 177.225 69.1511 174.646 70.321C173.436 70.8723 172.208 71.3827 170.962 71.852C169.586 72.4709 168.151 72.9487 166.679 73.278H167.955C168.429 74.678 168.703 75.0227 168.776 74.312C168.804 74.157 168.831 74.001 168.858 73.846C168.925 73.46 168.989 73.0733 169.051 72.686C169.173 71.919 169.284 71.151 169.389 70.386C169.607 68.786 169.792 67.184 169.942 65.58C170.136 63.511 167.181 62.408 165.842 63.88C158.663 71.7482 150.188 78.3278 140.786 83.333C138.055 84.779 140.478 88.923 143.209 87.478C148.061 84.8352 152.677 81.7796 157.004 78.345C161.398 75.0182 165.491 71.3123 169.236 67.27L165.136 65.57C164.924 67.835 164.645 70.089 164.264 72.332C164.041 73.64 163.654 74.932 164.323 76.183C164.564 76.6247 164.9 77.0078 165.306 77.3048C165.712 77.6017 166.179 77.8053 166.673 77.901C167.767 78.0017 168.867 77.8044 169.857 77.33C170.919 76.9693 171.972 76.5837 173.016 76.173C174.962 75.409 176.883 74.573 178.762 73.66C186.025 70.2341 192.513 65.3636 197.83 59.346C198.266 58.8883 198.508 58.2807 198.508 57.649C198.508 57.0173 198.266 56.4097 197.83 55.952C197.377 55.507 196.768 55.2577 196.133 55.2577C195.498 55.2577 194.889 55.507 194.436 55.952L194.439 55.957Z" fill="#211715"/>
<path d="M229.181 138.542C226.95 137.71 224.779 136.727 222.681 135.601C220.681 134.539 218.929 133.451 217.905 131.719C217.749 131.465 217.612 131.2 217.493 130.926C217.663 131.342 217.403 130.596 217.402 130.591C217.218 130.003 217.081 129.4 216.957 128.798C216.932 128.673 216.757 128.198 216.816 128.068C216.747 128.21 216.887 128.662 216.845 128.355C216.816 128.143 216.793 127.93 216.766 127.718L216.357 124.404C216.338 123.773 216.079 123.174 215.633 122.728C215.187 122.282 214.588 122.023 213.957 122.004C213.322 122.007 212.713 122.261 212.264 122.711C211.815 123.16 211.561 123.769 211.557 124.404C211.967 127.72 212.057 131.465 213.894 134.359C215.454 136.618 217.573 138.434 220.043 139.631C222.579 140.992 225.206 142.175 227.906 143.17C228.52 143.334 229.173 143.25 229.725 142.936C230.277 142.623 230.684 142.105 230.858 141.494C231.014 140.881 230.926 140.231 230.614 139.681C230.302 139.131 229.787 138.723 229.181 138.542Z" fill="#211715"/>
<path d="M160.481 148.924C161.057 151.329 162.115 153.592 163.59 155.576C165.066 157.561 166.928 159.226 169.065 160.47C173.81 163.378 179.586 164.241 185.065 164.085C195.498 163.785 205.573 160.185 214.365 154.665C219.309 151.512 223.939 147.891 228.19 143.852C230.449 141.735 227.05 138.346 224.796 140.458C218.086 146.746 210.453 152.33 201.843 155.713C197.548 157.44 193.036 158.569 188.433 159.07C183.595 159.552 178.499 159.461 173.938 157.589C169.638 155.823 166.072 152.284 165.11 147.65C164.482 144.627 159.854 145.907 160.481 148.926V148.924Z" fill="#211715"/>
<path d="M293.088 118.732C292.654 117.996 292.522 117.121 292.718 116.29C293.666 111.719 295.054 107.25 296.862 102.946C296.862 102.946 297.143 102.528 297.526 101.954C302.695 104.686 308.127 106.89 313.739 108.532C313.715 109.221 313.703 109.732 313.703 109.732C314.113 110.705 310.919 118.556 309.271 121.762C308.982 122.327 308.606 122.844 308.158 123.294C307.237 123.95 306.132 124.3 305.001 124.294C301.889 123.385 298.853 122.236 295.92 120.855C294.848 120.43 293.9 119.742 293.163 118.855C293.137 118.814 293.112 118.77 293.088 118.732Z" fill="white"/>
<path d="M327.864 72.962C328.291 73.443 328.714 73.962 329.123 74.522C331.272 77.2929 332.617 80.6019 333.01 84.0863C333.403 87.5707 332.829 91.0961 331.351 94.276C330.07 97.2132 328.21 99.862 325.882 102.064C324.188 103.784 322.271 105.27 320.182 106.482C318.463 107.463 316.635 108.241 314.737 108.802C308.341 107.039 302.179 104.518 296.381 101.294C293.344 98.46 291.881 91.718 292.081 88.068C292.155 85.397 292.627 82.7519 293.481 80.22C294.508 77.441 296.066 74.8885 298.069 72.705C300.667 69.6939 304.12 67.545 307.969 66.544C312.197 65.7081 316.576 66.1006 320.588 67.675C323.374 68.879 325.858 70.6845 327.864 72.962Z" fill="#FFDA71"/>
<path d="M326.166 74.659C328.404 77.143 329.88 80.2188 330.417 83.5191C330.954 86.8193 330.53 90.2044 329.195 93.27C327.759 96.4182 325.67 99.2251 323.067 101.504C320.464 103.784 317.405 105.483 314.095 106.49H315.371C310.233 105.129 305.253 103.229 300.513 100.823C299.394 100.414 298.366 99.7881 297.488 98.982C296.833 98.1187 296.308 97.1647 295.928 96.15C295.033 93.9073 294.537 91.5255 294.463 89.112C294.298 83.7143 296.193 78.456 299.763 74.404C303.177 70.688 307.502 68.344 312.663 68.469C313.785 68.4921 314.902 68.6176 316.001 68.844C316.622 68.962 317.239 69.099 317.848 69.27C318.256 69.384 318.66 69.5117 319.06 69.653C319.358 69.7577 319.653 69.8703 319.946 69.991C319.515 69.8077 319.423 69.7693 319.669 69.876C322.112 71.0573 324.315 72.6795 326.169 74.661C328.253 76.951 331.639 73.549 329.564 71.267C323.074 64.133 312.22 61.467 303.356 65.667C299.95 67.379 297.001 69.8793 294.756 72.96C291.49 77.4187 289.71 82.7923 289.669 88.319C289.507 92.8622 290.73 97.3473 293.175 101.18C293.837 102.219 294.73 103.091 295.785 103.728C296.878 104.355 298 104.928 299.135 105.48C301.56 106.65 304.051 107.693 306.567 108.647C308.647 109.435 310.752 110.168 312.889 110.785C313.874 111.17 314.957 111.221 315.974 110.93C321.616 109.115 326.565 105.612 330.153 100.895C333.675 96.556 335.572 91.124 335.517 85.536C335.243 80.2346 333.138 75.1926 329.561 71.27C327.525 68.934 324.142 72.341 326.166 74.659Z" fill="#211715"/>
<path d="M294.908 113.233C299.726 115.338 304.655 117.182 309.671 118.757C310.284 118.921 310.938 118.837 311.49 118.523C312.042 118.21 312.449 117.692 312.623 117.081C312.779 116.468 312.691 115.818 312.379 115.268C312.066 114.718 311.553 114.31 310.947 114.129C308.613 113.396 306.301 112.592 304.007 111.743C302.785 111.291 301.568 110.824 300.357 110.343C299.772 110.111 299.188 109.874 298.607 109.633L298.184 109.457C298.409 109.552 298.392 109.544 298.135 109.435C297.866 109.32 297.598 109.205 297.335 109.088C296.782 108.783 296.132 108.703 295.521 108.863C294.91 109.023 294.384 109.412 294.051 109.949C293.737 110.5 293.651 111.152 293.812 111.766C293.973 112.38 294.368 112.906 294.912 113.232L294.908 113.233Z" fill="#211715"/>
<path d="M294.795 101.734C293.259 104.476 292.44 107.829 291.582 110.828C291.1 112.412 290.708 114.023 290.409 115.652C290.141 117.023 290.34 118.444 290.973 119.689C291.605 120.935 292.637 121.932 293.902 122.524C295.695 123.44 297.543 124.245 299.434 124.934C301.02 125.652 302.673 126.214 304.368 126.611C305.547 126.786 306.752 126.641 307.856 126.192C308.96 125.742 309.923 125.005 310.644 124.056C311.562 122.674 312.319 121.191 312.899 119.636C313.752 117.666 314.574 115.677 315.274 113.647C315.732 112.316 316.48 110.513 316.022 109.094C315.076 106.167 310.44 107.419 311.393 110.371C311.421 110.456 311.344 109.596 311.333 110.171C311.34 109.806 311.4 109.771 311.287 110.257C311.155 110.826 310.977 111.384 310.793 111.938C310.319 113.369 309.769 114.776 309.193 116.17C308.753 117.241 308.154 118.612 307.549 119.856C307.28 120.44 306.95 120.995 306.565 121.51C306.665 121.395 307.037 121.259 306.625 121.432C306.476 121.494 306.337 121.595 306.19 121.664C305.552 121.964 305.913 121.779 305.978 121.755C305.957 121.763 305.309 122.024 305.506 121.924C305.255 122.052 305.172 121.905 305.478 121.955C305.357 121.933 305.236 121.904 305.118 121.869C304.797 121.777 304.477 121.688 304.159 121.586C303.326 121.32 302.505 121.013 301.689 120.698C300.166 120.109 298.889 119.576 297.436 118.926C296.721 118.662 296.05 118.291 295.446 117.826C295.019 117.441 295.001 117.191 295.103 116.554C295.374 115.098 295.73 113.659 296.169 112.244C296.666 110.497 297.211 108.764 297.803 107.044C298.031 106.382 298.267 105.723 298.522 105.071C298.577 104.93 298.635 104.791 298.689 104.65C298.61 104.85 298.513 105.028 298.66 104.722C298.751 104.534 298.834 104.345 298.937 104.162C300.448 101.462 296.303 99.041 294.792 101.739L294.795 101.734Z" fill="#211715"/>
<path d="M340.266 58.195C338.516 59.5283 336.759 60.853 334.994 62.169C334.468 62.5009 334.078 63.0094 333.894 63.603C333.728 64.2275 333.815 64.8922 334.136 65.453C334.454 65.9907 334.968 66.3848 335.57 66.553C335.878 66.642 336.202 66.6664 336.52 66.6248C336.838 66.5831 337.144 66.4763 337.419 66.311C339.184 64.9963 340.941 63.6713 342.692 62.336C343.213 61.9992 343.602 61.4926 343.792 60.902C343.958 60.2778 343.871 59.6135 343.55 59.053C343.232 58.5148 342.717 58.1207 342.115 57.953C341.807 57.8631 341.483 57.8381 341.165 57.8798C340.847 57.9214 340.541 58.0288 340.266 58.195Z" fill="#211715"/>
<path d="M328.54 56.493C328.826 55.745 329.124 55.002 329.435 54.264L329.193 54.837C329.622 53.823 330.076 52.82 330.554 51.828C330.863 51.2633 330.949 50.6032 330.796 49.978C330.626 49.3772 330.232 48.8642 329.696 48.544C329.419 48.3835 329.113 48.2795 328.796 48.238C328.478 48.1965 328.156 48.2182 327.847 48.302C327.242 48.465 326.726 48.8604 326.412 49.402C325.497 51.302 324.666 53.244 323.912 55.214C323.828 55.523 323.806 55.8457 323.847 56.1633C323.889 56.4809 323.993 56.7871 324.154 57.064C324.475 57.6135 325.001 58.0129 325.617 58.1744C326.233 58.3359 326.887 58.2462 327.437 57.925L327.923 57.549C328.217 57.2557 328.43 56.8907 328.54 56.49V56.493Z" fill="#211715"/>
<path d="M316.227 54.182C315.927 51.973 315.574 49.767 315.087 47.591C314.914 46.9799 314.507 46.4615 313.955 46.1479C313.402 45.8343 312.749 45.7506 312.135 45.915C311.529 46.096 311.016 46.5042 310.704 47.0543C310.392 47.6043 310.304 48.2538 310.459 48.867C310.946 51.043 311.298 53.249 311.598 55.458C311.764 56.0611 312.159 56.5756 312.698 56.892C313.259 57.2129 313.924 57.2998 314.548 57.134C315.15 56.9654 315.663 56.5715 315.982 56.034L316.224 55.461C316.338 55.0433 316.338 54.6027 316.224 54.185L316.227 54.182Z" fill="#211715"/>
<path d="M322.122 94.421C321.957 92.0305 320.973 89.7699 319.335 88.021C317.835 86.278 315.791 84.342 313.455 83.941C308.508 83.092 303.73 87.61 305.355 92.653C305.704 93.7334 306.323 94.707 307.153 95.4819C307.983 96.2569 308.996 96.8075 310.098 97.082C311.214 97.4311 312.407 97.4498 313.534 97.136C314.741 96.6902 315.814 95.942 316.649 94.963C317.47 94.0614 318.053 92.9685 318.343 91.7839C318.633 90.5994 318.622 89.3611 318.31 88.182C317.648 86.0463 316.333 84.1719 314.55 82.822C313.472 81.8849 312.218 81.1706 310.862 80.7203C309.506 80.2699 308.075 80.0924 306.65 80.198C305.244 80.3858 303.891 80.8526 302.668 81.5709C301.445 82.2892 300.378 83.2446 299.53 84.381C299.098 84.8404 298.857 85.4473 298.857 86.078C298.857 86.7087 299.098 87.3156 299.53 87.775C299.982 88.2214 300.592 88.4717 301.227 88.4717C301.862 88.4717 302.472 88.2214 302.924 87.775C304.65 85.575 306.916 84.163 309.724 85.385C311.007 85.9409 312.118 86.8308 312.94 87.962C312.876 87.874 313.266 88.49 313.324 88.594C313.413 88.7465 313.493 88.9033 313.566 89.064C313.542 89.009 313.479 88.837 313.566 89.092C313.636 89.292 313.779 89.892 313.778 89.886C313.765 89.754 313.688 90.757 313.757 90.446C313.717 90.6893 313.635 90.9238 313.515 91.139C313.419 91.3221 313.305 91.4953 313.175 91.656C312.982 91.8714 312.775 92.0735 312.555 92.261C312.54 92.272 311.707 92.708 312.041 92.581C312.516 92.4 311.634 92.531 311.893 92.569C311.591 92.5153 311.294 92.4397 311.003 92.343C310.603 92.222 311.303 92.512 310.921 92.314C310.769 92.2376 310.622 92.1525 310.48 92.059C310.535 92.096 310.092 91.634 310.246 91.852C310.009 91.5231 309.865 91.1361 309.829 90.732C309.807 90.3604 309.891 89.9902 310.07 89.664C310.192 89.52 310.333 89.399 310.46 89.264C310.493 89.229 310.731 89.05 310.505 89.219C310.25 89.41 310.612 89.157 310.676 89.119L311.055 88.905C311.381 88.717 310.748 89.005 311.115 88.866C311.227 88.824 311.341 88.785 311.455 88.75C311.611 88.704 311.772 88.662 311.932 88.631C311.546 88.707 312.269 88.621 312.3 88.62C312.838 88.6631 313.342 88.8968 313.723 89.279C314.41 89.8342 315.055 90.4399 315.652 91.091C316.149 91.6141 316.568 92.2054 316.898 92.847C317.152 93.3365 317.298 93.8745 317.326 94.425C317.339 95.0575 317.596 95.6606 318.043 96.1079C318.49 96.5553 319.094 96.8122 319.726 96.825C320.361 96.819 320.968 96.5642 321.416 96.1154C321.865 95.6666 322.12 95.0597 322.126 94.425L322.122 94.421Z" fill="#211715"/>
<path d="M124.551 183.577C126.92 178.916 128.1 173.741 127.985 168.514C127.862 163.714 126.802 157.981 123.751 154.127C120.017 149.41 114.232 151.116 109.582 153.257C105.113 155.315 100.32 159.342 101.625 164.875C101.923 166.186 102.61 167.376 103.597 168.29C104.583 169.204 105.822 169.798 107.152 169.996C108.687 170.066 110.218 169.802 111.642 169.224L116.409 167.683C119.336 166.736 118.084 162.1 115.133 163.054C113.056 163.726 110.988 164.482 108.884 165.064C107.696 165.392 106.802 165.191 106.344 163.929C105.131 160.584 110.144 158.237 112.403 157.221C113.922 156.42 115.59 155.941 117.303 155.814C118.996 155.808 119.992 156.848 120.752 158.26C122.395 161.577 123.232 165.235 123.196 168.936C123.258 173.173 122.303 177.364 120.409 181.155C119.022 183.906 123.161 186.339 124.554 183.577H124.551Z" fill="#211715"/>
<path d="M120.295 184.334C121.738 187.736 122.94 191.235 123.89 194.806C124.059 195.42 124.465 195.941 125.019 196.256C125.573 196.57 126.228 196.652 126.842 196.483C127.456 196.313 127.978 195.907 128.292 195.353C128.606 194.8 128.688 194.144 128.519 193.53C127.567 189.959 126.364 186.46 124.919 183.058C124.732 182.466 124.343 181.958 123.819 181.624C123.258 181.303 122.593 181.216 121.969 181.382C120.856 181.742 119.78 183.092 120.293 184.334H120.295Z" fill="#211715"/>
<path d="M128.206 191.232C118.13 195.37 107.444 197.972 97.1062 201.346C96.4982 201.524 95.9835 201.932 95.6707 202.483C95.3579 203.034 95.2716 203.685 95.4302 204.298C98.0072 212.981 100.855 221.554 104.149 229.998C104.335 230.6 104.743 231.107 105.291 231.418C105.838 231.729 106.484 231.819 107.095 231.67C107.706 231.497 108.225 231.09 108.539 230.538C108.852 229.985 108.936 229.332 108.771 228.718C105.471 220.278 102.629 211.705 100.051 203.018L98.3782 205.97C108.72 202.597 119.406 199.994 129.478 195.857C130.081 195.67 130.59 195.261 130.901 194.713C131.213 194.164 131.304 193.517 131.155 192.904C130.982 192.292 130.575 191.773 130.023 191.46C129.47 191.146 128.816 191.063 128.202 191.228L128.206 191.232Z" fill="#211715"/>
<path d="M101.474 145.201C99.6921 141.014 97.8601 136.844 96.1371 132.633C95.5111 131.103 94.8191 129.233 95.5761 127.611C96.0351 126.625 97.2641 126.803 98.1021 127.211C99.3121 127.8 100.033 129.179 100.702 130.276C101.467 131.535 102.164 132.834 102.831 134.147C104.347 137.13 105.718 140.191 106.987 143.287C108.322 146.539 109.577 149.832 110.636 153.187C111.562 156.122 116.198 154.869 115.264 151.911C112.931 144.475 109.922 137.269 106.276 130.381C104.536 127.116 102.448 123.104 98.4761 122.304C97.3823 122.015 96.2314 122.019 95.14 122.318C94.0486 122.617 93.0554 123.198 92.2611 124.004C91.5478 124.906 91.0285 125.945 90.736 127.057C90.4434 128.169 90.3839 129.33 90.5611 130.466C90.9181 133.411 92.4721 136.189 93.6191 138.89C94.8565 141.803 96.0941 144.716 97.3321 147.627C97.6561 148.174 98.1826 148.571 98.7973 148.732C99.4121 148.893 100.066 148.805 100.616 148.488C101.153 148.155 101.542 147.629 101.702 147.018C101.863 146.407 101.782 145.757 101.477 145.204L101.474 145.201Z" fill="#211715"/>
<path d="M94.6768 175.984C97.3958 178.127 101.498 181.596 105.125 179.714C105.869 179.278 106.519 178.699 107.039 178.01C107.558 177.321 107.936 176.537 108.151 175.701C108.366 174.866 108.414 173.996 108.292 173.142C108.169 172.288 107.879 171.467 107.438 170.726C106.001 168.899 104.339 167.263 102.49 165.855C100.046 163.768 97.1775 162.24 94.0828 161.376C91.3678 160.552 87.6108 160.527 85.6418 162.9C83.5788 165.385 81.8808 168.96 82.1558 172.271C82.4428 175.728 84.2138 178.428 86.5018 180.893C88.7357 183.369 91.1106 185.714 93.6148 187.917C94.9703 188.91 96.1288 190.148 97.0308 191.566C97.5471 192.574 97.987 193.62 98.3468 194.694C99.1938 196.977 100.005 199.294 100.647 201.649C101.459 204.626 106.09 203.362 105.275 200.373C104.311 196.676 103.016 193.073 101.408 189.608C100.255 187.208 98.1648 185.534 96.1978 183.826C94.1683 182.016 92.2414 180.094 90.4258 178.07C88.8198 176.328 87.2858 174.79 86.9558 172.27C86.8955 171.058 87.1241 169.849 87.6228 168.742C87.9691 167.689 88.5543 166.731 89.3328 165.942C89.1068 166.121 89.6778 165.784 89.4748 165.872C89.4488 165.884 90.1428 165.702 90.0408 165.718C90.5639 165.649 91.0937 165.649 91.6168 165.718C92.7233 165.931 93.8052 166.256 94.8458 166.688C96.665 167.417 98.3315 168.481 99.7588 169.824C100.673 170.624 101.582 171.434 102.444 172.289C102.821 172.63 103.17 173.002 103.486 173.4C103.242 173.06 103.538 173.6 103.544 173.97C103.557 174.717 103.276 175.464 102.614 175.407C101.809 175.153 101.059 174.751 100.403 174.221C99.5948 173.721 98.8162 173.176 98.0708 172.587C97.6113 172.155 97.0044 171.915 96.3738 171.915C95.7432 171.915 95.1363 172.155 94.6768 172.587C94.2305 173.039 93.9804 173.649 93.9804 174.284C93.9804 174.92 94.2305 175.53 94.6768 175.982V175.984Z" fill="#211715"/>
<path d="M92.262 161.25C92.654 161.737 92.309 161.282 92.234 161.15C92.2 161.091 91.943 160.514 92.119 160.971C92.0371 160.759 91.9673 160.543 91.91 160.324C91.898 160.278 91.799 159.588 91.835 160.029C91.8124 159.787 91.8107 159.543 91.83 159.301C91.795 159.693 91.892 159.086 91.917 159.001C91.935 158.936 92.091 158.383 91.989 158.725C91.889 159.042 92.097 158.535 92.13 158.464C92.1689 158.395 92.2113 158.328 92.257 158.264C92.043 158.527 91.9957 158.594 92.115 158.464C92.215 158.407 92.477 158.013 92.244 158.324C92.037 158.601 92.218 158.324 92.361 158.283C92.827 158.141 91.887 158.427 92.338 158.283C92.661 158.183 93.005 158.106 93.323 157.991C93.0657 158.009 93.03 158.012 93.216 157.999C93.329 157.989 93.442 157.984 93.556 157.984C93.78 157.984 94.005 157.993 94.229 158.007C95.0424 158.057 95.8476 158.199 96.629 158.43C97.51 158.655 98.379 158.899 99.238 159.199C99.747 159.377 99.088 159.099 99.523 159.322C99.729 159.428 99.935 159.53 100.135 159.649C100.149 159.658 100.749 160.061 100.406 159.798C100.586 159.94 100.756 160.095 100.914 160.261C100.986 160.335 101.355 160.833 101.105 160.461C101.231 160.646 101.334 160.843 101.453 161.032C101.677 161.39 101.445 160.941 101.525 161.173C101.61 161.419 101.681 161.669 101.738 161.923C101.912 162.534 102.318 163.052 102.871 163.366C103.423 163.68 104.076 163.764 104.69 163.6C105.296 163.419 105.809 163.01 106.121 162.46C106.433 161.91 106.521 161.26 106.366 160.647C106.005 159.255 105.3 157.976 104.316 156.927C103.332 155.879 102.1 155.095 100.733 154.647C98.3907 153.656 95.8693 153.157 93.326 153.183C91.118 153.306 88.775 154.319 87.79 156.408C87.1662 157.74 86.936 159.222 87.1266 160.68C87.3173 162.138 87.9208 163.511 88.866 164.638C89.3169 165.087 89.927 165.338 90.563 165.338C91.199 165.338 91.8092 165.087 92.26 164.638C92.6937 164.179 92.9353 163.572 92.9353 162.941C92.9353 162.31 92.6937 161.703 92.26 161.244L92.262 161.25Z" fill="#211715"/>
<path d="M95.2268 153.706C95.2375 153.547 95.2375 153.387 95.2268 153.228C95.1948 153.463 95.3528 152.883 95.2758 153.063C95.2348 153.163 95.4688 152.696 95.5108 152.622C95.5178 152.608 95.7428 152.28 95.6108 152.447C95.8365 152.179 96.084 151.929 96.3508 151.702C96.5328 151.58 96.5148 151.549 96.3508 151.702C96.5018 151.602 96.6508 151.502 96.8078 151.417C96.8728 151.38 97.3178 151.169 96.9598 151.317C97.1118 151.255 97.2708 151.205 97.4268 151.159C97.6389 151.097 97.8542 151.046 98.0718 151.006C98.5078 150.928 97.8218 151.026 98.2718 150.98C99.1555 150.897 100.045 150.888 100.93 150.952C101.102 150.964 101.273 150.977 101.445 150.993C101.503 150.993 102.139 151.075 101.831 151.032C101.562 150.995 102.092 151.076 102.14 151.083C102.367 151.12 102.593 151.156 102.819 151.197C103.512 151.318 104.197 151.489 104.866 151.708C105.073 151.799 105.273 151.905 105.466 152.024C105.533 152.064 105.974 152.399 105.694 152.159C105.818 152.265 105.928 152.384 106.047 152.495L106.214 152.678C106.128 152.552 106.131 152.556 106.224 152.691C106.321 152.831 106.411 152.976 106.493 153.126C106.54 153.209 106.719 153.649 106.622 153.373C106.678 153.537 106.725 153.704 106.763 153.873C106.685 153.545 106.78 154.205 106.78 154.259C106.78 154.896 107.033 155.506 107.483 155.956C107.933 156.406 108.543 156.659 109.18 156.659C109.816 156.659 110.427 156.406 110.877 155.956C111.327 155.506 111.58 154.896 111.58 154.259C111.557 152.97 111.206 151.709 110.56 150.593C109.914 149.478 108.995 148.545 107.889 147.884C105.734 146.779 103.354 146.188 100.933 146.157C98.5786 145.861 96.1909 146.312 94.1068 147.446C93.0063 148.087 92.0894 149 91.4447 150.098C90.7999 151.196 90.449 152.442 90.4258 153.715C90.4258 154.352 90.6786 154.962 91.1287 155.412C91.5788 155.862 92.1893 156.115 92.8258 156.115C93.4623 156.115 94.0727 155.862 94.5228 155.412C94.9729 154.962 95.2258 154.352 95.2258 153.715L95.2268 153.706Z" fill="#211715"/>
<path d="M129.86 192.8C130.413 188.479 131.373 184.221 132.276 179.964C133.152 175.719 134.492 171.584 136.27 167.631C138.233 163.331 140.723 158.925 144.287 155.747C147.931 152.499 152.594 150.247 157.087 148.422C158.522 147.839 159.992 147.353 161.435 146.792C161.514 146.762 162.471 146.372 161.746 146.66C161.946 146.58 162.146 146.499 162.355 146.421C162.79 146.254 163.228 146.094 163.665 145.932C165.97 145.172 168.215 144.24 170.38 143.143C173.08 141.643 170.663 137.497 167.957 138.998C164.308 141.022 160.168 142.06 156.406 143.554C151.184 145.469 146.28 148.16 141.861 151.537C137.91 154.726 135.027 159.269 132.806 163.782C130.674 168.12 129.041 172.686 127.939 177.393C126.718 182.476 125.758 187.619 125.064 192.8C125.067 193.436 125.321 194.044 125.77 194.494C126.22 194.943 126.828 195.197 127.464 195.2C128.096 195.185 128.697 194.927 129.144 194.48C129.591 194.033 129.848 193.432 129.864 192.8H129.86Z" fill="#211715"/>
<path d="M221.303 29.17C209.203 20.192 192.541 17.423 177.868 19.978C166.016 21.9673 155.23 28.0289 147.368 37.118C139.695 46.203 136.176 57.524 135.195 69.24C134.914 72.7405 134.82 76.2534 134.911 79.764C134.903 81.8264 135.055 83.8862 135.366 85.925C135.733 87.962 136.038 90.009 136.266 92.067C136.969 99.5325 137.113 107.04 136.695 114.527C136.556 118.136 136.395 121.746 136.351 125.358C136.307 128.774 136.019 132.512 136.746 135.87C137.902 141.21 142.361 147.047 147.687 148.693C149.131 149.118 150.657 149.183 152.132 148.885C152.743 148.711 153.261 148.304 153.574 147.751C153.888 147.199 153.972 146.546 153.808 145.932C153.627 145.326 153.219 144.813 152.669 144.501C152.119 144.189 151.469 144.101 150.856 144.256C149.994 144.346 149.123 144.198 148.338 143.829C147.282 143.31 146.325 142.609 145.511 141.758C143.797 140.053 142.487 137.984 141.68 135.704C141.52 135.226 141.394 134.737 141.304 134.241C141.372 134.63 141.295 134.141 141.286 133.996C141.251 133.42 141.234 132.842 141.214 132.266C141.154 130.512 141.129 128.758 141.138 127.003C141.15 123.571 141.275 120.141 141.41 116.712C141.807 109.761 141.809 102.793 141.416 95.841C141.116 91.859 140.339 87.97 139.889 84.016C139.581 80.5013 139.533 76.9687 139.745 73.447C140.145 62.547 142.558 51.679 149.011 42.741C155.194 34.4075 164.022 28.4189 174.051 25.755C181.097 23.8884 188.441 23.4206 195.667 24.378C202.023 25.0545 208.188 26.9534 213.823 29.97C215.576 30.9814 217.265 32.0999 218.88 33.319C219.431 33.6362 220.084 33.7237 220.699 33.5625C221.313 33.4014 221.84 33.0045 222.164 32.458C222.471 31.9051 222.552 31.2553 222.392 30.6438C222.232 30.0323 221.842 29.5062 221.303 29.175V29.17Z" fill="#211715"/>
<path d="M132.706 199.049C134.147 203.723 135.753 208.349 137.395 212.958C137.479 213.262 137.622 213.546 137.815 213.795C138.009 214.044 138.25 214.252 138.524 214.407C138.798 214.563 139.1 214.663 139.413 214.702C139.726 214.741 140.043 214.718 140.347 214.634C140.651 214.55 140.935 214.407 141.184 214.214C141.433 214.02 141.641 213.779 141.796 213.505C141.952 213.231 142.052 212.929 142.091 212.616C142.13 212.303 142.107 211.986 142.023 211.682C140.381 207.076 138.775 202.447 137.334 197.773C137.165 197.159 136.759 196.638 136.205 196.324C135.651 196.009 134.996 195.928 134.382 196.097C133.768 196.266 133.247 196.672 132.933 197.226C132.618 197.779 132.537 198.435 132.706 199.049Z" fill="#211715"/>
</g>
<defs>
<clipPath id="clip0_46_2">
<rect width="349.005" height="349.005" fill="white" transform="translate(-0.00488281)"/>
</clipPath>
</defs>
</svg>
