<svg width="367" height="366" viewBox="0 0 367 366" fill="none" xmlns="http://www.w3.org/2000/svg">
<g clip-path="url(#clip0_110_1211)">
<path d="M122.923 212.561C103.965 215.708 91.8579 200.655 91.9468 189.811C92.2588 180.688 93.5546 171.625 95.8116 162.779C98.8188 152.044 100.963 133.164 100.963 106.982C99.6817 68.353 109.842 40.3405 125.861 25.004C135.518 15.7589 157.278 3.16929 181.728 3.16929C193.899 2.97814 205.979 5.29236 217.218 9.96811L228.098 15.3614C232.814 18.1215 234.496 20.4867 239.343 25.136C251.527 36.8104 260 57.8148 261.345 76.6253C261.737 82.0513 262.495 95.0109 262.137 105.943C262.392 124.877 264.552 143.349 269.936 161.535C273.061 172.089 277.258 185.667 273.881 196.143C269.762 208.93 254.996 216.801 242.171 212.232L122.923 212.561Z" fill="#A88876"/>
<path d="M127.919 96.5249C139.506 87.0275 151.977 75.1962 163.395 63.9834C162.908 68.0889 161.207 75.1073 160.931 79.354C160.822 81.0615 161.185 81.6525 162.481 82.2657C163.623 82.5568 164.826 82.5018 165.936 82.1075C182.514 76.6885 196.956 66.1717 207.203 52.058C209.462 60.7396 212.668 71.5393 215.457 76.8123C222.356 89.8385 234.064 100.809 244.475 103.985C245.416 103.122 246.52 102.454 247.721 102.02C248.923 101.585 250.199 101.393 251.475 101.454C253.098 101.408 254.703 101.802 256.119 102.597C257.536 103.391 258.71 104.554 259.517 105.964C262.238 110.724 262.087 119.475 260.228 124.884C258.912 128.713 256.756 134.572 251.599 138.759C250.464 139.696 249.147 140.388 247.731 140.791C246.315 141.194 244.831 141.299 243.372 141.099L242.588 140.968C241.803 143.582 240.849 146.142 239.73 148.631C237.651 154.209 226.344 173.541 212.011 181.48C212.061 184.466 211.971 185.549 212.246 189.31C212.289 191.066 212.585 192.806 213.125 194.478C213.871 196.623 215.18 198.528 216.917 199.992C220.766 203.092 224.723 204.569 229.6 206.407L234.68 208.406C221.823 217.175 200.6 222.104 182.596 222.51C164.85 222.106 143.883 217.306 131.005 208.747L136.95 206.407C141.823 204.576 145.778 203.092 149.632 199.992C151.369 198.529 152.679 196.624 153.424 194.478C153.964 192.806 154.261 191.066 154.305 189.31C154.567 185.823 154.5 184.639 154.529 182.105C147.835 178.883 141.833 173.752 136.125 166.867C129.757 159.11 125.043 150.132 122.275 140.486C120.72 140.809 119.112 140.774 117.573 140.382C116.033 139.991 114.604 139.253 113.392 138.227C108.267 133.999 106.157 128.124 104.87 124.284C103.053 118.862 102.972 110.108 105.728 105.37C106.546 103.967 107.729 102.813 109.152 102.03C110.574 101.248 112.183 100.865 113.805 100.925C116.005 100.845 118.168 101.504 119.95 102.797C122.529 100.857 125.2 98.7554 127.919 96.5249Z" fill="white"/>
<path d="M166.921 182.607C156.744 181.063 148.369 175.621 141.434 168.182C133.9 160.06 128.369 150.288 125.283 139.648C125.047 138.855 124.513 138.185 123.794 137.777C123.075 137.368 122.225 137.254 121.424 137.456C116.361 138.56 112.474 133.414 110.385 129.521C108.367 125.877 107.135 121.85 106.77 117.701C106.574 115.445 106.674 113.174 107.068 110.945C107.243 109.938 107.517 108.95 107.885 107.997C108.067 107.571 108.282 107.16 108.528 106.768C108.601 106.647 109.194 105.843 108.744 106.4C109.967 105.03 111.677 104.193 113.509 104.066C115.341 103.94 117.15 104.534 118.55 105.723C121.53 108.439 125.98 104.013 122.987 101.285C120.97 99.4724 118.459 98.3019 115.773 97.9234C113.088 97.545 110.35 97.9758 107.911 99.1608C106.179 100.106 104.678 101.425 103.519 103.023C102.36 104.62 101.571 106.455 101.209 108.395C100.216 113.021 100.182 117.802 101.111 122.442C102.039 127.081 103.909 131.481 106.606 135.368C110.417 140.826 116.132 145.025 123.092 143.507L119.232 141.316C121.795 150.233 125.952 158.612 131.5 166.048C136.969 173.281 143.628 179.983 151.74 184.213C155.968 186.43 160.534 187.932 165.253 188.658C166.054 188.853 166.899 188.735 167.617 188.328C168.334 187.92 168.869 187.255 169.112 186.467C169.327 185.665 169.218 184.81 168.808 184.087C168.398 183.365 167.72 182.833 166.921 182.607Z" fill="#211715"/>
<path d="M246.693 106.204C247.51 105.513 248.475 105.02 249.514 104.763C250.553 104.505 251.637 104.491 252.681 104.721C253.624 104.883 254.52 105.249 255.306 105.794C255.082 105.637 255.818 106.242 255.921 106.348C256.025 106.454 256.732 107.372 256.314 106.775C258.641 110.119 258.679 114.863 258.319 118.791C257.846 122.928 256.515 126.922 254.411 130.515C252.151 134.491 248.462 138.81 243.413 137.936C242.611 137.738 241.764 137.855 241.046 138.263C240.328 138.67 239.793 139.338 239.552 140.128C238.839 142.48 237.991 144.789 237.012 147.043C236.838 147.435 236.687 147.827 236.525 148.227C236.334 148.697 236.859 147.523 236.525 148.221C236.294 148.703 236.078 149.194 235.84 149.673C234.445 152.441 232.884 155.122 231.166 157.702C226.897 164.507 221.523 170.552 215.267 175.59C211.845 178.35 207.862 180.331 203.597 181.395C199.66 182.288 201.326 188.339 205.265 187.446C213.996 185.465 221.387 179.382 227.294 172.912C232.613 167.126 237.158 160.674 240.814 153.717C241.488 152.418 242.057 151.088 242.644 149.745C242.674 149.676 242.787 149.42 242.644 149.757C242.436 150.234 242.855 149.305 242.891 149.22C243.214 148.475 243.523 147.726 243.818 146.971C244.482 145.271 245.072 143.54 245.616 141.796L241.754 143.989C247.637 145.004 252.629 142.835 256.507 138.366C259.535 134.68 261.81 130.436 263.204 125.874C264.742 121.08 265.14 115.994 264.366 111.019C263.774 106.943 262.182 103.044 258.763 100.569C256.269 98.9116 253.295 98.1294 250.309 98.345C247.322 98.5606 244.492 99.7618 242.262 101.76C239.255 104.464 243.701 108.89 246.7 106.198L246.693 106.204Z" fill="#211715"/>
<path d="M204.37 53.644C206.631 62.204 208.862 71.2948 213.13 79.1173C217.677 87.4701 223.933 94.7709 231.49 100.544C235.139 103.381 239.249 105.566 243.641 107.006C247.503 108.218 249.155 102.168 245.309 100.955C235.809 97.9736 227.853 89.9719 222.297 81.9885C216.022 72.9814 213.191 62.4641 210.418 51.9704C209.388 48.069 203.333 49.7242 204.367 53.6388L204.37 53.644Z" fill="#211715"/>
<path d="M204.437 50.5505C198.906 58.0182 192.141 64.4867 184.433 69.6774C180.533 72.2812 176.413 74.5411 172.122 76.4318C169.995 77.3692 167.807 78.1956 165.598 78.916C165.133 79.0969 164.651 79.2309 164.159 79.3161C164.003 79.303 163.846 79.303 163.69 79.3161C163.07 79.5514 163.704 79.0546 163.738 79.4207C163.762 79.6625 163.955 80.4104 164.059 80.0443C164.133 79.4905 164.164 78.932 164.154 78.3734C164.638 73.5358 165.934 68.808 166.534 63.9834C166.885 61.1501 162.946 60.027 161.173 61.7607C149.667 73.0598 137.976 84.236 125.496 94.4683C124.914 95.0597 124.587 95.8567 124.587 96.687C124.587 97.5173 124.914 98.3143 125.496 98.9058C126.094 99.4773 126.889 99.7963 127.716 99.7963C128.543 99.7963 129.338 99.4773 129.935 98.9058C142.414 88.6736 154.101 77.4974 165.611 66.1983L160.25 63.9756C159.69 68.468 158.349 73.5802 157.87 78.3655C157.601 81.0707 158.172 83.4934 160.709 84.8754C163.422 86.3541 166.566 85.2415 169.24 84.2766C179.561 80.5609 189.075 74.9041 197.27 67.6116C201.923 63.4189 206.139 58.7639 209.851 53.7185C210.266 52.9986 210.38 52.1443 210.17 51.3406C209.959 50.5369 209.44 49.8486 208.726 49.4248C208.003 49.0243 207.153 48.9177 206.354 49.1274C205.554 49.3371 204.866 49.8468 204.433 50.5505H204.437Z" fill="#211715"/>
<path d="M259.004 105.932C259.101 125.349 261.859 144.662 267.202 163.33C269.555 171.261 272.088 179.438 271.993 187.794C272.036 191.222 271.288 194.614 269.808 197.706C268.328 200.799 266.155 203.508 263.457 205.625C260.613 207.871 257.255 209.373 253.685 209.996C250.115 210.619 246.447 210.344 243.01 209.194C239.183 207.874 237.54 213.934 241.342 215.245C256.23 220.38 273.496 210.71 277.324 195.518C279.581 186.569 277.534 176.988 275.162 168.281C272.616 158.932 269.856 149.751 268.214 140.171C266.351 128.849 265.37 117.399 265.28 105.926C265.223 101.891 258.945 101.879 259.004 105.926V105.932Z" fill="#211715"/>
<path d="M226.515 18.06C228.967 19.5727 231.218 21.3897 233.214 23.4677C235.487 25.7374 237.865 27.9235 239.992 30.3332C244.142 35.1868 247.583 40.6044 250.211 46.4242C253.033 52.5005 255.165 58.8741 256.566 65.4256C257.687 71.015 258.359 76.6853 258.574 82.3821C259.005 90.2269 259.247 98.0834 259.004 105.932C258.88 109.972 265.156 109.967 265.28 105.932C265.507 98.6103 265.306 91.2781 264.934 83.9667C264.729 77.7925 264.08 71.6411 262.991 65.5602C260.312 51.9626 254.717 38.514 245.954 27.7C243.445 24.7881 240.787 22.0077 237.991 19.3701C235.516 16.7869 232.724 14.5267 229.683 12.6432C226.204 10.5735 223.044 15.9968 226.515 18.0613V18.06Z" fill="#211715"/>
<path d="M218.052 6.92957C205.442 1.81431 191.875 -0.51388 178.281 0.104598C164.501 0.906595 151.091 4.86843 139.087 11.6835C130.122 16.5128 122.314 23.2331 116.203 31.3792C109.916 40.2813 105.307 50.2572 102.605 60.8154C98.5103 75.7924 97.3401 91.5082 97.8304 106.982C97.9612 111.012 104.237 111.029 104.106 106.982C103.362 83.5091 106.252 58.1273 119.273 37.9649C124.183 30.4417 130.703 24.103 138.362 19.4067C149.064 12.5915 161.157 8.2614 173.752 6.73475C188.262 5.27512 202.908 7.42145 216.389 12.9831C217.191 13.1987 218.046 13.0897 218.768 12.6795C219.491 12.2694 220.022 11.5912 220.248 10.7918C220.449 9.98909 220.333 9.13977 219.924 8.42045C219.515 7.70113 218.844 7.16716 218.052 6.92957Z" fill="#211715"/>
<path d="M97.8254 106.978C97.8254 117.83 97.4907 128.694 96.4879 139.503C95.936 146.7 94.7969 153.839 93.0819 160.851C90.6819 169.779 89.2624 178.941 88.8484 188.177C88.7659 191.708 89.4071 195.218 90.7324 198.492C92.0577 201.765 94.0391 204.733 96.5546 207.212C103.708 214.555 113.795 217.16 123.758 215.587C124.557 215.36 125.235 214.829 125.645 214.106C126.056 213.384 126.165 212.529 125.95 211.727C125.712 210.936 125.177 210.266 124.458 209.858C123.74 209.45 122.891 209.335 122.089 209.536C118.445 210.155 114.708 209.927 111.166 208.87C107.624 207.813 104.373 205.956 101.664 203.442C99.4494 201.324 97.6666 198.796 96.4147 195.999C95.8665 194.651 95.4628 193.249 95.2105 191.816C95.0863 191.136 95.1791 191.803 95.1451 191.293C95.1255 190.996 95.1007 190.699 95.0915 190.402C95.0614 189.446 95.1085 188.485 95.1516 187.526C95.6153 179.025 96.9618 170.596 99.1695 162.374C100.826 155.541 101.959 148.591 102.561 141.585C103.655 130.082 104.169 118.531 104.101 106.975C104.101 102.938 97.8254 102.931 97.8254 106.975V106.978Z" fill="#211715"/>
<path d="M172.441 155.706C176.186 157.643 180.357 158.608 184.572 158.514C188.938 158.699 193.243 157.43 196.811 154.906C197.395 154.315 197.723 153.518 197.723 152.687C197.723 151.856 197.395 151.059 196.811 150.468C196.212 149.899 195.418 149.581 194.592 149.581C193.766 149.581 192.972 149.899 192.373 150.468C193.324 149.728 192.582 150.297 192.338 150.454C192.093 150.611 191.844 150.753 191.587 150.888C191.457 150.957 191.318 151.019 191.185 151.088C190.696 151.34 191.291 151.115 191.308 151.049C191.276 151.172 190.403 151.384 190.272 151.425C189.326 151.722 188.358 151.941 187.376 152.079C187.836 152.011 187.279 152.079 187.095 152.104C186.811 152.133 186.526 152.156 186.241 152.175C185.556 152.219 184.87 152.236 184.182 152.232C183.567 152.232 182.952 152.207 182.338 152.165C182.056 152.147 181.775 152.124 181.494 152.096C181.465 152.096 180.448 151.951 181.082 152.05C180.167 151.911 179.263 151.711 178.376 151.45C177.996 151.336 177.626 151.2 177.252 151.072C176.45 150.798 177.709 151.309 176.991 150.968C176.526 150.749 176.068 150.52 175.615 150.281C174.893 149.879 174.043 149.772 173.242 149.981C172.442 150.191 171.754 150.702 171.322 151.407C170.911 152.128 170.799 152.981 171.009 153.783C171.219 154.585 171.736 155.273 172.447 155.699L172.441 155.706Z" fill="#211715"/>
<path d="M182.984 127.12C183.543 129.138 183.991 131.185 184.324 133.253L184.213 132.419C184.253 132.699 184.26 132.984 184.235 133.266L184.348 132.432C184.329 132.561 184.298 132.689 184.255 132.812L184.571 132.063C184.535 132.148 184.491 132.23 184.441 132.308L184.931 131.672C184.872 131.745 184.805 131.812 184.731 131.87L185.366 131.379C185.21 131.478 185.048 131.565 184.88 131.641L185.629 131.324C185.367 131.437 185.092 131.517 184.811 131.562L185.645 131.451C185.389 131.481 185.131 131.481 184.876 131.451L185.71 131.562C185.421 131.522 185.136 131.453 184.847 131.413C184.443 131.283 184.011 131.263 183.596 131.357C183.181 131.375 182.777 131.503 182.428 131.73C181.71 132.15 181.188 132.838 180.977 133.643C180.766 134.448 180.883 135.304 181.303 136.022C181.502 136.376 181.771 136.686 182.093 136.933C182.415 137.18 182.784 137.36 183.178 137.46C183.831 137.549 184.477 137.722 185.147 137.747C186.155 137.753 187.15 137.516 188.048 137.056C188.616 136.798 189.119 136.417 189.52 135.94C189.921 135.462 190.211 134.901 190.367 134.298C190.574 133.317 190.564 132.303 190.339 131.326C190.005 129.349 189.548 127.392 189.04 125.453C188.819 124.65 188.288 123.968 187.564 123.557C186.84 123.146 185.983 123.039 185.18 123.261C184.377 123.482 183.696 124.013 183.285 124.737C182.874 125.461 182.767 126.318 182.988 127.121L182.984 127.12Z" fill="#211715"/>
<path d="M150.548 109.753C149.524 113.081 150.191 120.735 156.497 121.389C164.832 121.339 165.275 112.082 162.469 107.73C160.168 104.166 153.418 102.684 150.548 109.753Z" fill="#211715"/>
<path d="M217.288 109.753C218.313 113.081 217.645 120.735 211.339 121.389C203.006 121.339 202.561 112.082 205.367 107.73C207.664 104.166 214.418 102.684 217.288 109.753Z" fill="#211715"/>
<path d="M181.087 222.044C182.184 222.196 183.267 222.35 184.338 222.507C197.666 220.546 213.376 219.012 227.782 217.399C227.625 216.298 227.455 215.107 227.205 213.402C226.924 211.464 227.243 209.487 228.12 207.736C228.996 205.985 230.388 204.545 232.108 203.609C233.914 202.723 235.641 201.686 237.273 200.51C247.845 192.528 253.59 187.263 256.903 177.687C268.719 182.525 278.565 188.288 286.494 196.8C295.285 207.334 301.66 219.114 302.411 244.348C303.485 274.504 297.689 304.51 285.461 332.096C280.693 342.22 272.935 350.639 263.234 356.216C257.311 359.612 250.754 361.758 243.969 362.52C237.184 363.282 230.314 362.645 223.785 360.649L223.253 360.472C212.771 356.921 205.29 351.105 199.849 342.213C197.977 339.09 196.404 335.797 195.15 332.379H173.824C172.618 335.802 171.074 339.097 169.214 342.213C163.77 351.104 156.29 356.921 145.811 360.472L145.278 360.649C138.749 362.646 131.88 363.283 125.095 362.521C118.31 361.758 111.754 359.613 105.831 356.216C96.4315 350.778 88.9436 342.243 83.4523 332.682C68.5223 306.718 64.4744 273.849 64.3999 244.348C65.7937 219.197 73.777 207.334 82.5737 196.8C90.157 188.666 99.4792 183.036 110.608 178.334C113.952 187.505 119.673 192.716 130.003 200.51C131.635 201.686 133.362 202.723 135.168 203.609C136.888 204.545 138.28 205.985 139.156 207.736C140.033 209.487 140.352 211.464 140.071 213.402C139.833 215.03 139.668 216.189 139.516 217.248C153.145 218.786 168.064 220.244 181.087 222.044Z" fill="#034C8C"/>
<path d="M174.598 317.015C172.752 327.474 169.463 338.402 162.207 346.449C155.25 353.908 145.796 358.551 135.641 359.499C124.498 360.593 113.326 357.727 104.084 351.406C94.958 345.118 88.4037 335.872 83.4536 326.1C72.9939 305.442 69.0924 281.887 67.9196 258.966C67.4835 253.201 67.4158 247.415 67.717 241.642C68.0992 236.282 68.9688 230.968 70.3149 225.767C72.3883 218.001 75.9023 210.694 80.674 204.226C82.8871 201.14 85.3924 198.273 88.1553 195.667C91.5773 192.549 95.316 189.796 99.3106 187.455C108.332 182.087 118.26 178.459 128.206 175.215C130.99 174.307 133.786 173.434 136.586 172.574C140.436 171.397 138.795 165.332 134.918 166.523C115 172.639 92.3679 179.648 78.7507 196.52C73.3486 202.997 69.0702 210.333 66.0931 218.224C62.1969 228.987 61.0685 240.511 61.3692 251.878C62.023 276.368 65.4786 301.307 75.4716 323.859C80.2935 334.742 86.7746 345.18 95.9072 352.972C105.139 360.893 116.772 365.469 128.926 365.959C140.57 366.449 152.02 362.86 161.301 355.812C170.192 348.909 175.422 338.826 178.484 328.171C179.371 325.048 180.094 321.88 180.649 318.68C180.847 317.879 180.73 317.032 180.323 316.314C179.915 315.596 179.248 315.061 178.458 314.821C177.656 314.606 176.802 314.716 176.079 315.126C175.357 315.536 174.825 316.213 174.598 317.012V317.015Z" fill="#211715"/>
<path d="M188.218 318.683C190.213 329.966 194.232 341.408 201.809 350.193C209.071 358.297 218.918 363.633 229.673 365.29C241.591 367.207 253.808 365.061 264.36 359.196C274.455 353.554 282.605 344.987 287.736 334.622C298.849 311.336 304.407 285.136 305.469 259.443C306.3 239.3 305.278 217.554 293.29 200.504C287.893 192.97 280.95 186.675 272.926 182.038C263.533 176.449 253.143 172.636 242.79 169.251C239.914 168.313 237.038 167.412 234.147 166.525C230.278 165.337 228.623 171.392 232.478 172.576C242.745 175.729 253.076 178.996 262.755 183.699C270.862 187.637 279.146 192.729 284.918 199.789C289.327 205.138 292.773 211.212 295.103 217.74C298.432 227.56 299.239 237.977 299.358 248.281C299.721 272.851 295.516 297.276 286.955 320.309C285.09 325.759 282.702 331.016 279.826 336.007C276.997 340.521 273.489 344.573 269.427 348.02C261.255 355.091 250.937 359.2 240.14 359.684C229.86 360.187 219.731 357.058 211.525 350.845C203.627 344.623 199.075 335.439 196.328 325.954C195.483 323.012 194.796 320.027 194.27 317.012C194.043 316.213 193.511 315.536 192.788 315.126C192.066 314.716 191.212 314.606 190.409 314.821C189.617 315.057 188.947 315.591 188.538 316.31C188.13 317.029 188.015 317.878 188.218 318.68V318.683Z" fill="#211715"/>
<path d="M232.115 203.613C233.917 202.724 235.644 201.688 237.277 200.517C248.38 192.128 254.161 186.741 257.388 176.218C260.563 165.84 261.656 151.899 261.695 135.192C261.564 129.78 261.58 126.976 261.198 122.873C261.056 121.345 260.858 119.636 260.576 117.544C260.389 116.739 260.044 115.979 259.563 115.308C259.081 114.637 258.472 114.067 257.77 113.632C256.915 113.113 255.934 112.837 254.934 112.835C253.934 112.833 252.952 113.104 252.094 113.619C248.275 115.634 246.497 123.102 246.497 123.102C246.497 123.102 245.843 125.828 245.238 128.387C239.042 124.669 236.852 140.342 235.693 144.577C234.146 151.666 231.001 158.308 226.499 163.999C221.997 169.689 216.257 174.278 209.714 177.415C187.356 184.792 189.884 202.585 191.376 221.545C203.023 220.028 215.825 218.735 227.791 217.396C227.63 216.295 227.46 215.102 227.221 213.398C226.939 211.462 227.256 209.486 228.131 207.737C229.006 205.987 230.397 204.548 232.115 203.613Z" fill="white"/>
<path d="M194.497 221.534C193.761 212.138 192.192 201.922 195.519 193.12C197.053 189.286 199.762 186.036 203.258 183.837C205.84 182.407 208.524 181.168 211.287 180.131C214.017 178.866 216.605 177.316 219.009 175.506C228.988 168.089 235.989 157.351 238.752 145.228C239.48 141.305 240.512 137.446 241.839 133.683C242.185 132.888 242.602 132.126 243.083 131.405C243.397 130.957 242.66 131.957 243.189 131.29C243.3 131.162 243.421 131.041 243.55 130.931C242.896 131.535 243.485 130.987 243.485 130.987C243.793 130.821 243.745 130.828 243.341 131.007L243.551 130.941L243.766 130.892C243.334 130.94 243.243 130.965 243.486 130.964C243.878 131.094 242.794 130.864 243.678 130.986C243.867 131.022 244.052 131.076 244.23 131.147C243.694 130.947 244.116 131.126 244.23 131.173C244.936 131.473 244.025 130.937 244.352 131.224C244.518 131.37 244.676 131.526 244.824 131.691C244.41 131.242 245.124 132.2 245.241 132.421C245.518 132.944 245.322 132.586 245.272 132.461C245.382 132.735 245.471 133.023 245.555 133.305C245.7 133.801 245.802 134.304 245.897 134.81C245.964 135.215 246.007 135.624 246.028 136.034C246.068 136.618 246.088 137.204 246.092 137.79C246.083 139.653 245.965 141.514 245.74 143.364C245.025 151 243.859 158.588 242.249 166.087C241.342 170.019 247.391 171.696 248.301 167.756C249.99 159.922 251.207 151.993 251.944 144.013C252.526 140.204 252.488 136.326 251.83 132.529C250.838 127.986 246.804 123.404 241.674 124.956C237.006 126.368 235.35 132.67 234.28 136.797C233.03 141.618 232.271 146.55 230.401 151.194C228.04 156.954 224.507 162.159 220.025 166.48C217.772 168.674 215.287 170.617 212.613 172.273C209.822 173.807 206.935 175.161 203.971 176.326C198.876 178.544 194.566 182.242 191.601 186.941C185.408 197.177 187.33 210.231 188.217 221.538C188.237 222.364 188.574 223.15 189.158 223.735C189.743 224.319 190.529 224.656 191.355 224.676C192.185 224.67 192.979 224.337 193.567 223.75C194.154 223.163 194.486 222.368 194.493 221.538L194.497 221.534Z" fill="#211715"/>
<path d="M249.521 123.929C249.975 121.717 250.872 119.619 252.156 117.761C252.293 117.569 253.091 116.687 253.104 116.677C253.721 116.173 254.508 115.926 255.303 115.988C257.352 116.287 257.554 118.341 257.746 119.931C258.722 129.568 258.887 139.269 258.239 148.933C257.803 157.887 256.979 167.008 254.291 175.606C251.937 183.151 247.028 188.666 241.025 193.622C238.926 195.425 236.731 197.113 234.45 198.678C232.184 200.169 229.576 201.116 227.643 203.085C225.848 204.906 224.645 207.228 224.194 209.746C223.718 212.598 224.355 215.4 224.759 218.225C224.984 219.025 225.516 219.704 226.239 220.114C226.961 220.525 227.816 220.634 228.619 220.418C229.41 220.178 230.078 219.644 230.486 218.925C230.894 218.207 231.011 217.359 230.811 216.557C230.507 214.431 229.89 212.17 230.55 210.061C230.87 209.156 231.373 208.325 232.027 207.621C232.68 206.917 233.471 206.354 234.351 205.968C239.014 203.305 243.362 200.126 247.313 196.49C250.568 193.735 253.434 190.553 255.835 187.029C258.148 183.387 259.869 179.402 260.934 175.221C263.596 165.468 264.333 155.176 264.666 145.112C264.851 139.533 264.851 133.955 264.666 128.376C264.596 126.253 264.464 124.135 264.248 122.022C263.987 119.458 263.98 116.594 262.649 114.316C261.919 113.058 260.896 111.996 259.668 111.218C258.439 110.441 257.041 109.971 255.592 109.849C254.144 109.727 252.687 109.956 251.345 110.518C250.004 111.079 248.818 111.956 247.888 113.073C245.726 115.755 244.212 118.899 243.462 122.261C242.513 126.183 248.561 127.86 249.515 123.929H249.521Z" fill="#211715"/>
<path d="M135.161 203.613C133.358 202.723 131.632 201.688 129.998 200.517C118.896 192.128 113.113 186.741 109.888 176.218C106.713 165.84 105.62 151.899 105.581 135.192C105.712 129.78 105.695 126.976 106.078 122.873C106.219 121.345 106.418 119.636 106.7 117.544C106.887 116.739 107.231 115.98 107.713 115.308C108.194 114.637 108.803 114.067 109.505 113.632C110.36 113.113 111.341 112.837 112.341 112.835C113.342 112.832 114.324 113.104 115.182 113.619C119.001 115.634 120.779 123.102 120.779 123.102L122.037 128.387C128.234 124.669 130.424 140.342 131.581 144.577C133.13 151.666 136.275 158.308 140.777 163.998C145.279 169.689 151.019 174.278 157.562 177.415C179.92 184.792 177.391 202.585 175.9 221.545C164.254 220.028 151.443 218.735 139.485 217.396C139.644 216.295 139.816 215.102 140.055 213.398C140.337 211.462 140.019 209.487 139.144 207.737C138.269 205.987 136.879 204.548 135.161 203.613Z" fill="white"/>
<path d="M179.054 221.534C179.852 211.371 181.453 200.187 177.419 190.481C175.336 185.499 171.761 181.284 167.185 178.418C164.483 176.864 161.65 175.551 158.717 174.496C155.84 173.205 153.15 171.533 150.718 169.527C145.695 165.543 141.565 160.548 138.595 154.867C136.334 150.154 134.707 145.162 133.757 140.022C132.769 135.619 131.738 130.239 128.515 126.852C124.855 123.008 118.874 124.842 116.608 129.253C114.445 133.465 114.732 138.604 115.23 143.173C115.989 151.433 117.237 159.641 118.967 167.753C119.882 171.687 125.928 170.023 125.019 166.085C123.44 158.826 122.302 151.479 121.611 144.083C121.463 142.701 121.306 141.321 121.234 139.933C121.186 139.008 121.165 138.083 121.191 137.157C121.19 136.267 121.27 135.379 121.432 134.504C121.53 134.053 121.626 133.606 121.761 133.165C121.82 132.976 121.883 132.788 121.949 132.6C122.132 132.093 121.609 133.201 122.032 132.424C122.196 132.093 122.387 131.777 122.603 131.477C122.263 131.915 123.32 130.954 122.927 131.245C123.065 131.144 123.605 130.94 123.041 131.149C123.22 131.078 123.404 131.024 123.593 130.988C124.27 130.894 123.76 130.918 123.67 130.969C124.054 130.749 123.569 130.875 123.612 130.919C123.725 131.038 124.397 131.034 123.588 130.875C123.729 130.938 123.861 131.021 123.98 131.12C123.55 130.324 124.559 131.893 124.111 131.29C125.244 132.92 126.044 134.757 126.464 136.697C127.067 138.744 127.53 140.828 127.991 142.911C129.04 148.162 130.786 153.248 133.181 158.037C137.541 166.323 144.091 173.254 152.117 178.077C154.792 179.476 157.539 180.734 160.346 181.845C164.619 183.639 168.212 186.745 170.605 190.715C172.903 194.804 173.575 199.653 173.681 204.471C173.666 210.172 173.365 215.869 172.778 221.539C172.786 222.37 173.118 223.163 173.705 223.75C174.292 224.337 175.086 224.67 175.916 224.677C176.744 224.662 177.533 224.326 178.118 223.741C178.703 223.156 179.039 222.367 179.054 221.539V221.534Z" fill="#211715"/>
<path d="M123.807 122.261C123.176 119.534 122.069 116.938 120.539 114.594C117.47 110.078 111.54 107.926 106.902 111.673C102.914 114.896 103.058 120.503 102.753 125.203C102.423 130.302 102.4 135.442 102.492 140.549C102.676 151.057 103.246 161.729 105.545 172.01C106.427 176.319 107.887 180.489 109.883 184.409C111.916 188.101 114.519 191.448 117.597 194.327C119.442 196.101 121.404 197.749 123.405 199.344C125.823 201.413 128.396 203.295 131.1 204.974C133.262 206.209 135.511 207.066 136.547 209.521C137.495 211.764 136.801 214.254 136.472 216.555C136.278 217.357 136.397 218.202 136.804 218.919C137.211 219.636 137.875 220.172 138.663 220.416C139.465 220.632 140.32 220.522 141.043 220.112C141.766 219.702 142.298 219.023 142.524 218.224C143.045 215.866 143.292 213.455 143.26 211.041C143.073 208.715 142.252 206.484 140.887 204.592C139.425 202.727 137.555 201.221 135.422 200.19C133.194 198.941 131.076 197.503 129.094 195.892C122.99 191.129 117.011 185.898 114.034 178.557C110.78 170.526 109.857 161.478 109.274 152.911C108.488 143.105 108.453 133.253 109.169 123.442C109.338 121.48 109.195 118.527 110.299 117.089C110.555 116.764 110.881 116.501 111.254 116.321C111.626 116.141 112.035 116.048 112.449 116.05C112.863 116.051 113.27 116.147 113.642 116.33C114.013 116.512 114.338 116.777 114.591 117.104C116.213 119.072 117.304 121.421 117.762 123.929C118.711 127.852 124.765 126.193 123.814 122.261H123.807Z" fill="#211715"/>
<path d="M259.113 284.582C256.237 271.376 253.476 258.145 250.719 244.914C249.405 238.609 248.09 232.304 246.773 225.999C246.229 223.403 245.807 220.739 245.124 218.175C244.705 216.523 243.695 215.081 242.286 214.122C240.571 213.117 238.538 212.802 236.6 213.244C221.213 215.115 205.77 216.502 190.402 218.531C188.595 218.584 186.815 218.976 185.154 219.688C183.562 220.639 182.411 222.18 181.949 223.975C181.594 225.875 181.463 227.811 181.557 229.741C181.502 231.863 181.462 233.986 181.436 236.11C181.336 244.485 181.463 252.86 181.818 261.233C182.624 280.521 185.348 299.619 188.214 318.689C188.44 319.489 188.972 320.167 189.694 320.577C190.417 320.987 191.272 321.096 192.074 320.881C192.865 320.642 193.534 320.108 193.942 319.389C194.351 318.671 194.467 317.823 194.267 317.021C191.899 301.24 189.586 285.438 188.54 269.51C188.017 261.543 187.775 253.55 187.707 245.565C187.673 241.67 187.689 237.775 187.755 233.881C187.787 231.963 187.83 230.045 187.886 228.128C187.906 227.439 187.642 225.513 188.325 225.096C188.91 224.923 189.517 224.835 190.127 224.834C190.875 224.734 191.623 224.636 192.372 224.541C194.281 224.296 196.191 224.059 198.103 223.831C201.829 223.385 205.558 222.959 209.291 222.554C216.627 221.746 223.968 220.979 231.302 220.135C232.978 219.943 234.654 219.745 236.33 219.543C236.885 219.475 238.441 218.959 238.957 219.398C239.208 219.611 239.315 220.956 239.385 221.287C239.492 221.79 239.598 222.293 239.704 222.797C239.986 224.137 240.268 225.478 240.55 226.819C241.77 232.648 242.986 238.477 244.199 244.308C247.113 258.298 250.018 272.287 253.067 286.246C253.928 290.189 259.98 288.521 259.118 284.578L259.113 284.582Z" fill="#211715"/>
<path d="M115.607 286.25C118.305 273.893 120.889 261.513 123.471 249.131C124.75 242.99 126.03 236.852 127.31 230.715C127.849 228.141 128.389 225.568 128.93 222.995C128.99 221.839 129.236 220.701 129.657 219.623C130.189 218.952 131.204 219.408 132.069 219.513C146.713 221.292 161.393 222.639 176.02 224.509C176.862 224.616 177.704 224.726 178.547 224.838C179.156 224.833 179.763 224.921 180.346 225.1C180.983 225.552 180.757 227.045 180.779 227.806C180.899 231.834 180.967 235.863 180.983 239.894C181.011 247.738 180.842 255.578 180.475 263.414C179.434 281.368 177.47 299.257 174.592 317.009C174.397 317.811 174.515 318.656 174.922 319.373C175.33 320.091 175.995 320.626 176.783 320.869C177.585 321.084 178.44 320.975 179.162 320.565C179.885 320.155 180.416 319.477 180.643 318.678C183.19 301.72 185.527 284.703 186.526 267.574C187.017 259.2 187.239 250.804 187.253 242.416C187.259 238.186 187.208 233.958 187.1 229.733C187.005 226.018 187.202 221.813 183.509 219.68C181.941 218.987 180.254 218.607 178.54 218.561C176.461 218.286 174.381 218.022 172.3 217.769C168.391 217.291 164.48 216.839 160.565 216.413C152.833 215.557 145.095 214.75 137.366 213.862C135.598 213.658 133.83 213.449 132.063 213.236C130.196 212.814 128.239 213.085 126.557 213.998C123.72 215.768 123.377 218.923 122.748 221.908C121.485 227.904 120.232 233.902 118.988 239.902C115.884 254.807 112.797 269.712 109.549 284.58C108.689 288.517 114.739 290.202 115.6 286.249L115.607 286.25Z" fill="#211715"/>
<path d="M195.153 329.246H173.828C172.996 329.246 172.198 329.576 171.61 330.165C171.021 330.753 170.69 331.552 170.69 332.384C170.69 333.216 171.021 334.014 171.61 334.603C172.198 335.191 172.996 335.522 173.828 335.522H195.153C195.985 335.522 196.783 335.191 197.372 334.603C197.96 334.014 198.291 333.216 198.291 332.384C198.291 331.552 197.96 330.753 197.372 330.165C196.783 329.576 195.985 329.246 195.153 329.246Z" fill="#211715"/>
</g>
<defs>
<clipPath id="clip0_110_1211">
<rect width="366" height="366" fill="white" transform="translate(0.5)"/>
</clipPath>
</defs>
</svg>
