<svg width="366" height="366" viewBox="0 0 366 366" fill="none" xmlns="http://www.w3.org/2000/svg">
<g clip-path="url(#clip0_1_19)">
<path d="M149.403 180.96C140.579 183.27 134.057 185.428 134.057 185.428C116.907 189.067 105.275 177.293 105.372 166.556C105.637 158.53 106.777 150.557 108.772 142.778C111.414 133.342 113.301 116.734 113.297 93.711C112.169 59.741 121.106 35.111 135.197 21.62C143.678 13.49 162.817 2.415 184.317 2.415C195.019 2.24629 205.642 4.28078 215.525 8.392L218.325 9.526L223.995 12.604C229.054 15.351 230.405 17.443 235.053 21.927C245.802 32.298 253.273 50.958 254.463 67.667C254.807 72.488 255.596 85.03 254.836 93.711C255.218 122.396 260.506 138.451 263.236 146.354C265.383 152.104 266.505 158.186 266.551 164.324C266.651 175.06 253.304 188.963 237.963 183.461C237.963 183.461 201.963 175.905 183.741 175.461C173.812 175.219 159.96 178.2 149.403 180.96Z" fill="#B5886A"/>
<path d="M138.205 183.738C139.205 183.396 155.641 175.709 155.985 175.585C161.185 173.708 160.977 170.367 161.632 166.63C162.18 163.664 162.537 160.666 162.701 157.654C156.284 154.64 150.361 149.683 145.178 143.479C140.104 137.241 136.444 129.976 134.452 122.186L133.821 122.246C130.586 123.054 128.039 121.426 126.236 119.988C123.976 118.066 122.157 115.678 120.905 112.988C118.248 107.67 117.104 101.724 117.597 95.8C117.666 94.285 118.052 92.8014 118.73 91.445C119.316 90.4624 120.114 89.6236 121.067 88.9902C122.02 88.3568 123.102 87.945 124.235 87.785C125.389 87.6164 126.567 87.6989 127.686 88.0268C128.806 88.3547 129.842 88.9203 130.723 89.685L132.314 90.829C143.025 80.823 160.878 64 170.483 54.572C169.814 60.227 166.257 72.197 170.031 71.072C185.899 66.539 198.676 57.264 208.738 44.179C210.851 51.215 213.518 61.179 215.97 65.779C219.33 72.079 228.779 88.979 238.46 92.742C239.302 91.5615 240.457 90.6391 241.794 90.0784C243.132 89.5177 244.599 89.341 246.031 89.568C247.163 89.7286 248.244 90.1407 249.196 90.774C250.148 91.4074 250.946 92.2459 251.531 93.228C252.21 94.5838 252.596 96.0672 252.665 97.582C253.16 103.51 252.016 109.46 249.357 114.782C248.104 117.472 246.286 119.859 244.026 121.782C242.139 123.287 238.726 123.182 236.362 123.598C235.904 125.198 235.433 126.53 235.185 127.283C233.331 132.317 222.904 150.238 209.823 156.658C209.967 160.005 210.335 163.338 210.923 166.636C211.578 170.373 211.373 173.714 216.569 175.591C216.913 175.715 231.651 182.726 232.177 182.943C232.177 182.943 210.51 204.652 181.472 204.652C152.434 204.652 138.205 183.738 138.205 183.738Z" fill="white"/>
<path d="M241.24 93.164C243.655 91.102 247.88 91.564 249.464 94.44C250.189 96.1249 250.504 97.9578 250.383 99.788C250.426 101.931 250.231 104.072 249.803 106.172C249.051 110.199 247.418 114.01 245.019 117.331C244.061 118.587 242.891 120.001 241.319 120.447C239.581 120.823 237.82 121.083 236.047 121.225C235.435 121.398 234.916 121.804 234.602 122.357C234.289 122.91 234.206 123.564 234.371 124.178C234.554 124.783 234.963 125.294 235.512 125.606C236.062 125.918 236.71 126.007 237.323 125.854C238.965 125.617 240.638 125.563 242.255 125.165C244.112 124.67 245.788 123.654 247.085 122.237C249.879 119.222 251.979 115.632 253.24 111.72C254.638 107.749 255.295 103.555 255.178 99.346C255.052 95.172 254.146 91.183 250.472 88.746C248.539 87.5314 246.266 86.9751 243.99 87.1604C241.715 87.3457 239.562 88.2626 237.851 89.774C237.406 90.2268 237.157 90.8362 237.157 91.471C237.157 92.1058 237.406 92.7152 237.851 93.168C238.307 93.6062 238.915 93.8509 239.548 93.8509C240.181 93.8509 240.789 93.6062 241.245 93.168L241.24 93.164Z" fill="#211715"/>
<path d="M235.19 116.6C235.051 118.996 234.601 121.363 233.851 123.642C233.607 124.451 233.341 125.252 233.072 126.053C232.982 126.321 232.886 126.588 232.794 126.853C232.766 126.932 232.73 127.008 232.701 127.086C232.548 127.497 232.937 126.567 232.729 127.02C231.657 129.332 230.443 131.576 229.094 133.739C225.268 140.15 220.398 145.878 214.685 150.685C211.589 153.312 207.932 155.197 203.996 156.194C200.987 156.886 202.26 161.515 205.272 160.823C213.361 158.963 220.091 153.041 225.372 146.909C229.922 141.783 233.73 136.043 236.686 129.859C238.631 125.693 239.752 121.19 239.986 116.598C240.086 113.509 235.286 113.512 235.186 116.598L235.19 116.6Z" fill="#211715"/>
<path d="M132.42 87.982C130.869 86.6196 128.954 85.7385 126.91 85.4462C124.867 85.1539 122.782 85.4631 120.911 86.336C116.999 88.174 115.511 91.936 115.179 96.016C114.507 104.231 116.992 113.446 122.49 119.708C125.523 123.163 129.772 125.584 134.459 124.56C137.476 123.901 136.199 119.273 133.183 119.931C129.871 120.655 126.775 117.686 125.012 115.218C121.564 110.147 119.773 104.131 119.884 98C119.912 96.179 119.924 93.93 120.979 92.355C121.431 91.746 122.002 91.2353 122.658 90.8541C123.313 90.4729 124.039 90.229 124.792 90.1375C125.545 90.0459 126.309 90.1084 127.036 90.3214C127.764 90.5343 128.441 90.8931 129.026 91.376C129.484 91.8114 130.091 92.0543 130.723 92.0543C131.355 92.0543 131.962 91.8114 132.42 91.376C132.865 90.9232 133.114 90.3138 133.114 89.679C133.114 89.0442 132.865 88.4348 132.42 87.982Z" fill="#211715"/>
<path d="M129.778 109.991C130.605 118.08 132.707 125.987 136.006 133.418C140.559 143.045 147.699 151.216 156.628 157.018C161.177 160.028 166.315 162.034 171.7 162.901C172.313 163.049 172.96 162.958 173.508 162.647C174.056 162.335 174.465 161.826 174.652 161.224C174.816 160.61 174.733 159.957 174.419 159.404C174.105 158.852 173.587 158.445 172.976 158.272C163.729 156.9 155.878 151.516 149.578 144.831C143.248 138.035 138.762 129.733 136.545 120.714C136.03 118.714 135.603 116.682 135.251 114.642C134.928 112.777 134.769 111.606 134.572 109.991C134.553 109.36 134.294 108.761 133.848 108.315C133.402 107.869 132.803 107.61 132.172 107.591C131.537 107.595 130.928 107.849 130.479 108.298C130.03 108.747 129.776 109.356 129.772 109.991H129.778Z" fill="#211715"/>
<path d="M206.612 45.448C209.03 53.583 211.059 61.919 215.2 69.388C218.94 76.135 223.162 82.853 228.539 88.427C231.47 91.465 234.96 94.327 239.1 95.476C242.081 96.301 243.353 91.676 240.376 90.847C237.456 90.039 234.791 87.896 232.503 85.612C229.825 82.8711 227.41 79.8847 225.291 76.692C221.591 71.265 218.027 65.485 215.863 59.276C214.13 54.303 212.74 49.217 211.24 44.176C210.362 41.222 205.728 42.476 206.612 45.452V45.448Z" fill="#211715"/>
<path d="M207.012 42.523C201.265 50.1245 194.148 56.5847 186.027 61.571C181.961 64.0125 177.651 66.0233 173.168 67.571C172.047 67.957 170.916 68.32 169.776 68.648C169.595 68.6772 169.418 68.7269 169.248 68.796C169.313 68.756 169.83 68.796 169.494 68.744C169.768 68.7565 170.036 68.8246 170.282 68.944C170.323 68.968 170.982 69.713 170.759 69.387C170.513 69.033 170.849 69.807 170.82 69.513C170.782 69.3864 170.752 69.2575 170.73 69.127C170.713 69.697 170.73 69.074 170.73 68.827C170.715 68.0333 170.757 67.2396 170.856 66.452C171.256 62.781 172.4 58.512 172.886 54.567C173.153 52.4 170.143 51.54 168.786 52.867C158.451 63.015 147.886 72.93 137.324 82.842C134.628 85.3753 131.928 87.9013 129.224 90.42C126.96 92.532 130.36 95.92 132.618 93.815C143.248 83.905 153.817 73.9267 164.324 63.88C166.955 61.3547 169.574 58.8177 172.18 56.269L168.08 54.569C168.077 54.6702 168.063 54.7708 168.038 54.869C168.012 55.038 167.986 55.206 167.959 55.374C167.886 55.824 167.807 56.274 167.725 56.72C167.525 57.8 167.315 58.877 167.107 59.954C166.707 62.021 166.328 64.092 166.08 66.183C165.807 67.7327 165.851 69.3218 166.21 70.854C166.448 71.762 167.033 72.54 167.84 73.0199C168.647 73.4998 169.61 73.6432 170.521 73.419C172.988 72.797 175.401 71.978 177.737 70.97C180.198 69.9944 182.607 68.893 184.955 67.67C189.63 65.1995 194.029 62.2392 198.078 58.839C202.643 54.9899 206.778 50.6572 210.409 45.917C210.84 45.4571 211.08 44.8504 211.08 44.22C211.08 43.5896 210.84 42.9829 210.409 42.523C209.957 42.0763 209.347 41.8259 208.712 41.8259C208.077 41.8259 207.467 42.0763 207.015 42.523H207.012Z" fill="#211715"/>
<path d="M216.163 6.078C205.226 1.64502 193.47 -0.403253 181.678 0.0699995C169.501 0.711111 157.641 4.17939 147.038 10.2C139.188 14.4172 132.35 20.2925 126.999 27.418C121.49 35.215 117.45 43.9522 115.078 53.2C111.484 66.341 110.458 80.129 110.891 93.707C110.991 96.788 115.791 96.801 115.691 93.707C115.032 72.956 117.612 50.483 129.178 32.685C133.561 26.0255 139.367 20.422 146.178 16.279C155.614 10.3141 166.261 6.52922 177.345 5.2C190.122 3.92192 203.017 5.81517 214.887 10.712C215.501 10.8769 216.155 10.7934 216.708 10.4795C217.26 10.1656 217.667 9.64666 217.84 9.035C217.993 8.42172 217.905 7.77297 217.592 7.22333C217.28 6.67368 216.768 6.26534 216.163 6.083V6.078Z" fill="#211715"/>
<path d="M257.233 93.711C257.659 87.5524 257.683 81.3727 257.306 75.211C257.149 69.719 256.619 64.2441 255.719 58.824C253.391 46.172 248.219 33.473 239.87 23.582C237.708 21.02 235.232 18.718 232.86 16.354C230.597 14.0611 228.019 12.1015 225.204 10.534C222.495 9.046 220.07 13.189 222.781 14.679C225.058 15.919 227.152 17.4703 229.001 19.288C231.123 21.367 233.301 23.437 235.301 25.633C239.179 30.0374 242.38 34.9935 244.801 40.339C247.455 46.0189 249.435 51.9898 250.701 58.13C251.689 63.3154 252.27 68.5701 252.438 73.846C252.884 80.4609 252.882 87.0984 252.432 93.713C252.437 94.348 252.691 94.9555 253.14 95.4046C253.589 95.8536 254.197 96.108 254.832 96.113C255.465 96.1005 256.068 95.8436 256.515 95.3962C256.963 94.9488 257.219 94.3456 257.232 93.713L257.233 93.711Z" fill="#211715"/>
<path d="M110.894 93.711C110.894 103.12 110.61 112.542 109.758 121.916C109.281 128.234 108.307 134.505 106.845 140.67C104.828 148.305 103.559 156.119 103.056 164C102.768 167.176 103.177 170.377 104.256 173.379C105.482 176.507 107.386 179.325 109.831 181.629C116.531 187.918 125.892 189.554 134.696 187.744C137.72 187.123 136.44 182.495 133.42 183.116C126.67 184.503 119.22 183.433 113.89 178.833C111.729 177.002 110.017 174.699 108.885 172.103C107.717 169.216 107.694 166.935 107.867 163.83C108.352 156.473 109.551 149.181 111.447 142.057C112.886 136.017 113.869 129.879 114.39 123.692C115.38 113.735 115.69 103.715 115.69 93.713C115.69 90.624 110.89 90.619 110.89 93.713L110.894 93.711Z" fill="#211715"/>
<path d="M252.433 93.711C252.651 108.956 254.194 124.343 258.387 139.045C259.936 144.474 262.125 149.732 263.253 155.274C263.702 157.504 263.98 159.765 264.084 162.037C264.222 163.687 264.15 165.347 263.87 166.979C263.198 169.898 261.825 172.609 259.87 174.879C257.467 177.808 254.317 180.032 250.752 181.314C246.8 182.64 242.514 182.581 238.6 181.146C237.986 180.977 237.33 181.058 236.777 181.373C236.223 181.687 235.817 182.208 235.648 182.822C235.479 183.436 235.56 184.091 235.875 184.645C236.189 185.199 236.71 185.605 237.324 185.774C241.204 187.087 245.361 187.363 249.38 186.574C253.4 185.784 257.144 183.957 260.239 181.274C263.021 178.966 265.278 176.09 266.856 172.838C268.42 169.541 269.122 165.902 268.895 162.26C268.644 157.236 267.719 152.269 266.144 147.492C265.437 145.302 264.655 143.137 263.967 140.94C262.256 135.438 260.896 129.832 259.898 124.157C258.192 114.096 257.302 103.913 257.235 93.709C257.191 90.623 252.391 90.614 252.435 93.709L252.433 93.711Z" fill="#211715"/>
<path d="M160.251 158.519C160.085 160.869 159.8 163.209 159.397 165.53C159.147 166.996 159.009 168.502 158.621 169.941C158.519 170.477 158.306 170.986 157.994 171.434C157.682 171.882 157.279 172.259 156.812 172.541C156.003 172.994 155.162 173.388 154.297 173.721C150.188 175.588 146.108 177.521 142.008 179.406C140.925 179.904 139.842 180.399 138.757 180.891C138.383 181.06 138.008 181.225 137.634 181.391C137.024 181.665 138.134 181.216 137.567 181.417C136.962 181.6 136.451 182.009 136.139 182.558C135.827 183.108 135.738 183.757 135.891 184.37C136.065 184.981 136.472 185.499 137.024 185.812C137.576 186.126 138.229 186.21 138.843 186.046C140.464 185.466 142.03 184.651 143.593 183.934C146.136 182.768 148.675 181.595 151.212 180.414C153.048 179.563 154.884 178.714 156.72 177.865C156.745 177.853 157.164 177.678 157.162 177.665C157.162 177.681 155.925 178.172 157.013 177.746C157.327 177.622 157.648 177.487 157.954 177.346C158.446 177.133 158.92 176.88 159.372 176.59C160.959 175.568 162.184 174.071 162.872 172.313C163.407 170.671 163.766 168.976 163.941 167.257C164.429 164.357 164.847 161.447 165.046 158.508C165.046 157.871 164.793 157.261 164.343 156.811C163.893 156.361 163.283 156.108 162.646 156.108C162.01 156.108 161.399 156.361 160.949 156.811C160.499 157.261 160.246 157.871 160.246 158.508L160.251 158.519Z" fill="#211715"/>
<path d="M207.447 157.142C207.697 161.519 208.242 165.875 209.079 170.179C209.378 171.906 210.137 173.52 211.275 174.853C212.413 176.185 213.889 177.187 215.548 177.752C216.526 178.139 214.971 177.452 215.648 177.784C215.929 177.92 216.214 178.047 216.496 178.184C217.367 178.592 218.237 179.002 219.106 179.414C221.46 180.526 223.813 181.639 226.166 182.754C227.766 183.51 229.346 184.322 230.972 185.014C231.526 185.314 232.174 185.393 232.784 185.233C233.394 185.073 233.92 184.687 234.256 184.153C234.573 183.602 234.66 182.949 234.499 182.334C234.338 181.72 233.941 181.193 233.395 180.869C229.919 179.389 226.538 177.638 223.123 176.023C221.478 175.245 219.839 174.452 218.184 173.697C217.347 173.372 216.534 172.989 215.75 172.551C215.302 172.28 214.913 171.92 214.608 171.494C214.302 171.068 214.087 170.584 213.974 170.072C213.584 168.417 213.286 166.741 213.084 165.052C212.66 162.434 212.381 159.795 212.248 157.147C212.089 154.074 207.288 154.055 207.448 157.147L207.447 157.142Z" fill="#211715"/>
<path d="M113.853 362.172C113.913 361.822 114.573 357.172 114.573 357.172L114.873 355.492C114.913 355.212 115.053 354.382 115.253 353.102C108.033 359.922 98.773 365.372 89.353 363.092C84.073 361.812 79.573 358.172 76.393 353.762C67.783 341.802 68.643 325.652 70.493 311.022C74.333 280.522 80.833 253.582 89.953 224.222C92.323 216.582 95.053 208.702 100.693 203.022C101.613 202.092 104.503 199.652 104.813 199.422C113.501 193.06 128.64 186.997 141.856 182.082C153.269 188.019 170.569 193.199 186.89 193.233C202.352 193.283 222.707 187.833 233.163 181.726C239.775 184.562 246.075 187.293 252.85 190.058C258.95 192.771 264.669 196.271 269.86 200.469C282.989 210.76 285.76 229.195 287.547 245.78C290.147 269.896 292.917 290.562 295.518 314.68C296.666 325.32 297.773 336.362 294.318 346.491C290.863 356.62 281.482 364.258 270.803 363.56C266.631 363.269 262.565 362.121 258.856 360.189V362.053C231.728 362.053 151.056 362.153 114.71 362.153" fill="#034C8C"/>
<path d="M114.713 364.554C133.792 364.554 152.872 364.542 171.951 364.519C192.774 364.5 213.597 364.481 234.42 364.463C242.567 364.457 250.713 364.453 258.859 364.451C261.948 364.451 261.953 359.651 258.859 359.651C241.975 359.651 225.091 359.663 208.207 359.686C186.763 359.705 165.318 359.724 143.873 359.741C134.153 359.748 124.433 359.752 114.713 359.754C111.625 359.754 111.619 364.554 114.713 364.554Z" fill="#211715"/>
<path d="M115.489 230.775C115.719 235.761 116.589 240.766 117.289 245.701C118.11 251.517 118.951 257.341 120.022 263.117C120.751 267.049 121.732 271.293 120.282 275.174C120.118 275.788 120.202 276.441 120.516 276.993C120.829 277.545 121.347 277.952 121.958 278.126C122.571 278.281 123.221 278.194 123.771 277.881C124.321 277.569 124.729 277.056 124.91 276.45C126.342 272.618 125.818 268.35 125.13 264.415C124.65 261.676 124.13 258.947 123.688 256.201C122.688 250.001 121.775 243.76 121.003 237.601C120.718 235.336 120.397 233.056 120.292 230.773C120.151 227.698 115.35 227.68 115.492 230.773L115.489 230.775Z" fill="#211715"/>
<path d="M116.167 362.81C116.527 360.659 116.767 358.492 117.149 356.346C117.303 355.48 117.431 354.608 117.567 353.74C117.717 353.115 117.63 352.456 117.325 351.89C117.087 351.482 116.734 351.154 116.31 350.946C115.886 350.738 115.41 350.66 114.941 350.721C114.473 350.783 114.034 350.981 113.677 351.291C113.321 351.601 113.064 352.009 112.939 352.464C112.552 354.932 112.139 357.391 111.783 359.864C111.704 360.42 111.632 360.979 111.539 361.534C111.389 362.159 111.475 362.818 111.781 363.383C112.019 363.791 112.372 364.119 112.796 364.327C113.22 364.535 113.696 364.613 114.164 364.552C114.632 364.491 115.072 364.293 115.428 363.983C115.785 363.673 116.042 363.265 116.167 362.81Z" fill="#211715"/>
<path d="M255.303 359.572C255.337 359.872 255.383 360.164 255.423 360.46L255.337 359.822C255.437 360.715 255.592 361.604 255.725 362.493L255.769 362.793C255.955 363.396 256.363 363.906 256.912 364.217C257.461 364.529 258.108 364.619 258.721 364.469C259.323 364.301 259.837 363.907 260.155 363.369L260.397 362.796C260.512 362.378 260.512 361.938 260.397 361.52L260.097 359.527L260.054 359.24L260.14 359.878C260.106 359.578 260.061 359.285 260.02 358.99L260.106 359.628L260.1 359.578C260.084 358.947 259.826 358.345 259.379 357.899C258.932 357.452 258.331 357.194 257.7 357.178L257.062 357.263C256.662 357.374 256.297 357.586 256.003 357.88L255.628 358.366C255.413 358.734 255.299 359.152 255.3 359.578L255.303 359.572Z" fill="#211715"/>
<path d="M255.104 295.813C255.104 291.535 254.998 287.26 255.395 282.994C255.713 279.588 256.419 276.259 256.911 272.88C258.23 263.81 259.067 254.666 259.865 245.538C260.418 239.222 260.918 232.901 261.365 226.576C261.365 225.939 261.112 225.329 260.662 224.879C260.212 224.429 259.602 224.176 258.965 224.176C258.328 224.176 257.718 224.429 257.268 224.879C256.818 225.329 256.565 225.939 256.565 226.576C255.803 237.367 254.918 248.152 253.799 258.911C253.384 262.911 252.921 267.121 252.383 270.934C251.898 274.376 251.19 277.773 250.783 281.227C250.338 286.075 250.179 290.946 250.306 295.813C250.306 298.901 255.106 298.906 255.106 295.813H255.104Z" fill="#211715"/>
<path d="M108.517 298.323C111.478 295.229 117.478 289.736 118.878 285.694C121.109 279.256 122.078 277.25 124.257 271.62C125.311 268.898 126.632 265.35 128.757 263.347C129.929 262.241 132.513 259.895 134.357 259.466C135.896 257.545 138.034 256.195 140.43 255.63C141.953 253.955 147.959 252.5 149.771 252.33C150.606 252.237 151.45 252.249 152.283 252.365C160.001 249.458 162.16 248.733 167.212 246.078C170.638 244.278 173.4 242.222 177.137 243.231C178.28 243.646 179.257 244.42 179.922 245.438C180.922 247.896 179.772 249.986 178.033 251.583C171.539 257.548 166.64 259.063 161.987 261.529C162.133 261.764 162.292 262.015 162.463 262.28C163.691 263.995 164.669 265.875 165.368 267.865C166.139 271.199 166.397 274.63 166.134 278.042C165.8 280.841 165.293 283.617 164.615 286.354C164.346 287.61 163.599 288.712 162.531 289.426C162.373 290.126 162.283 290.535 162.283 290.535C160.965 296.463 156.846 300.652 149.466 304.213C146.556 305.375 143.573 306.344 140.536 307.113C134.536 312.229 131.855 318.407 128.927 322.828" fill="white"/>
<path d="M110.214 300.02C114.103 295.97 119.039 291.958 121.099 286.581C123.257 280.95 125.199 275.222 127.599 269.681C128.664 267.075 130.415 264.805 132.666 263.114C133.216 262.665 133.815 262.282 134.453 261.97C135.13 261.746 135.751 261.378 136.273 260.892C137.246 259.787 138.443 258.901 139.784 258.292C140.205 258.118 140.648 258.078 141.073 257.942C141.515 257.774 141.919 257.52 142.261 257.193C142.775 256.793 141.826 257.438 142.461 257.052C143.458 256.475 144.525 256.03 145.636 255.727C146.755 255.378 147.891 255.088 149.041 254.86C149.265 254.816 149.489 254.777 149.714 254.737C150.369 254.619 149.229 254.769 149.777 254.728C150.488 254.649 151.207 254.649 151.918 254.728C153.115 255.034 154.198 255.677 155.041 256.58C156.172 257.546 157.195 258.631 158.092 259.818C158.999 261.135 159.792 262.536 160.649 263.886C161.648 265.315 162.458 266.867 163.06 268.504C163.997 271.435 168.633 270.182 167.689 267.228C166.589 263.782 164.389 260.615 162.389 257.628C160.63 254.862 158.233 252.56 155.398 250.914C152.652 249.514 149.626 249.782 146.72 250.464C144.044 251.091 140.72 251.911 138.737 253.936L139.796 253.319C136.972 253.926 134.449 255.501 132.664 257.772L133.723 257.155C132.101 257.693 130.605 258.553 129.323 259.683C128.139 260.572 127.059 261.591 126.104 262.723C123.815 265.595 122.67 269.162 121.342 272.537C120.252 275.308 119.113 278.059 118.075 280.85C117.52 282.35 116.975 284.272 116.375 285.502C115.738 286.754 114.953 287.925 114.038 288.991C111.806 291.698 109.248 294.102 106.822 296.629C104.682 298.857 108.072 302.256 110.216 300.023L110.214 300.02Z" fill="#211715"/>
<path d="M138.194 305.987C135.576 308.429 133.285 311.198 131.377 314.227C129.807 316.653 128.445 319.208 126.855 321.627C126.538 322.178 126.451 322.831 126.612 323.445C126.773 324.059 127.17 324.586 127.716 324.91C128.269 325.217 128.919 325.299 129.531 325.139C130.143 324.978 130.669 324.588 131 324.049C132.547 321.7 133.877 319.217 135.4 316.849C135.825 316.187 136.263 315.532 136.717 314.89C137.206 314.197 137.506 313.796 137.896 313.312C139.025 311.909 140.263 310.596 141.596 309.385C142.042 308.933 142.292 308.323 142.292 307.688C142.292 307.053 142.042 306.443 141.596 305.991C141.139 305.554 140.531 305.31 139.899 305.31C139.266 305.31 138.658 305.554 138.201 305.991L138.194 305.987Z" fill="#211715"/>
<path d="M159.97 289.9C158.877 294.63 155.661 297.95 151.42 300.458C150.782 300.836 150.133 301.195 149.474 301.534C149.129 301.713 148.783 301.889 148.433 302.057C148.333 302.105 147.618 302.415 148.222 302.167C147.285 302.552 146.322 302.874 145.359 303.191C143.144 303.951 140.891 304.594 138.608 305.117C135.59 305.769 136.868 310.397 139.884 309.746C150.092 307.54 162.008 302.383 164.598 291.176C165.298 288.17 160.666 286.887 159.97 289.9Z" fill="#211715"/>
<path d="M154.37 254.137C157.414 252.993 160.47 251.873 163.451 250.569C166.325 249.312 169.008 247.721 171.812 246.328C173.111 245.611 174.596 245.303 176.073 245.443C176.569 245.525 177.028 245.757 177.388 246.107C177.819 246.466 177.841 246.516 177.888 247.121C177.994 248.498 176.716 249.557 175.788 250.382C174.387 251.641 172.898 252.8 171.334 253.849C168.54 255.604 165.63 257.166 162.623 258.524C162.078 258.849 161.682 259.376 161.521 259.99C161.36 260.604 161.447 261.257 161.762 261.808C162.092 262.348 162.618 262.739 163.23 262.899C163.842 263.06 164.493 262.977 165.045 262.669C168.171 261.26 171.19 259.626 174.078 257.778C175.934 256.513 177.7 255.122 179.364 253.615C181.021 252.276 182.159 250.402 182.585 248.315C183.274 243.827 179.536 240.625 175.277 240.565C171.107 240.507 167.45 243.32 163.866 245.095C160.351 246.745 156.756 248.217 153.093 249.505C152.489 249.689 151.978 250.097 151.666 250.647C151.354 251.196 151.265 251.844 151.416 252.457C151.59 253.068 151.997 253.586 152.549 253.9C153.102 254.213 153.755 254.297 154.369 254.133L154.37 254.137Z" fill="#211715"/>
<path d="M147.364 264.587C150.061 267.282 152.228 270.46 153.753 273.954C155.582 278.335 154.528 283.131 153.347 287.534C152.547 290.521 157.175 291.795 157.976 288.81C159.405 283.482 160.444 277.71 158.276 272.429C156.513 268.236 153.96 264.422 150.756 261.193C148.583 258.993 145.189 262.386 147.362 264.587H147.364Z" fill="#211715"/>
<path d="M139.14 271.39C141.255 273.607 143.037 276.119 144.43 278.848C144.439 278.867 144.625 279.372 144.687 279.581C144.74 279.759 144.787 279.939 144.826 280.121C144.854 280.25 144.869 280.421 144.842 280.193C144.929 281.144 144.912 282.102 144.792 283.05C144.531 285.01 144.172 286.956 143.716 288.88C143.563 289.493 143.651 290.142 143.963 290.691C144.275 291.241 144.787 291.649 145.392 291.832C146.006 291.995 146.658 291.911 147.211 291.597C147.763 291.284 148.17 290.766 148.344 290.156C149.167 286.126 150.617 281.402 148.99 277.401C147.551 273.865 145.013 270.853 142.534 267.996C142.081 267.551 141.472 267.302 140.837 267.302C140.202 267.302 139.593 267.551 139.14 267.996C138.701 268.452 138.456 269.06 138.456 269.693C138.456 270.326 138.701 270.934 139.14 271.39Z" fill="#211715"/>
<path d="M163.055 268.5C164.278 273.4 163.878 278.326 162.878 283.214C162.453 285.28 162.404 286.999 160.408 287.872C160.224 287.952 160.027 288.001 159.843 288.072C160.378 287.858 160.223 288.058 159.943 288.019C159.774 287.995 159.597 288.007 159.426 287.987C159.847 288.036 159.295 287.95 159.218 287.93C158.901 287.848 158.589 287.748 158.284 287.63C158.192 287.585 157.764 287.43 158.02 287.494C157.802 287.438 157.852 287.183 157.974 287.528C157.356 285.778 154.527 284.928 153.587 286.955C153.009 288.202 152.178 289.804 150.687 290.092C149.301 290.359 148.651 289.315 147.931 288.207C147.714 287.853 147.409 287.56 147.046 287.357C146.683 287.154 146.275 287.047 145.859 287.047C145.443 287.047 145.035 287.154 144.672 287.357C144.309 287.56 144.004 287.853 143.787 288.207C143.484 288.649 143.055 288.99 142.556 289.185C142.056 289.38 141.51 289.42 140.987 289.3C139.602 288.972 139.811 287.563 139.787 286.243C139.862 284.332 139.527 282.427 138.806 280.656C137.86 278.654 136.654 276.785 135.22 275.097C134.768 274.651 134.158 274.4 133.523 274.4C132.888 274.4 132.278 274.651 131.826 275.097C131.389 275.554 131.146 276.162 131.146 276.794C131.146 277.426 131.389 278.034 131.826 278.491C133.108 280.091 134.76 282.351 134.986 284.309C135.241 286.516 134.715 289.165 136.004 291.34C136.654 292.287 137.543 293.045 138.58 293.538C139.617 294.031 140.766 294.241 141.91 294.148C143.121 294.084 144.299 293.731 145.345 293.119C146.392 292.507 147.277 291.654 147.927 290.63H143.787C145.438 293.171 147.587 295.18 150.836 294.882C154.085 294.584 156.419 292.215 157.736 289.382L153.349 288.809C154.309 291.525 157.274 292.869 160.041 292.823C163.077 292.772 165.826 290.311 166.768 287.542C167.291 285.815 167.677 284.051 167.925 282.264C168.278 280.443 168.516 278.602 168.638 276.752C168.774 273.548 168.453 270.341 167.686 267.227C166.935 264.227 162.304 265.501 163.057 268.503L163.055 268.5Z" fill="#211715"/>
<path d="M223.044 319.138C214.415 316.687 206.201 312.956 198.678 308.07C192.119 303.777 186.245 298.52 181.252 292.477C180.645 291.784 180.195 290.969 179.931 290.086C179.667 289.204 179.596 288.275 179.723 287.363C180.005 285.463 182.8 282.92 183.973 284.44C181.218 282.218 179.555 280.905 179.791 278.312C180.097 274.949 183.018 273.212 185.871 274.949C179.162 271.017 177.985 268.379 179.071 265.308C180.264 261.938 183.656 261.556 188.528 264.543C188.045 264.038 187.673 263.437 187.437 262.779C187.202 262.122 187.107 261.421 187.16 260.725C187.213 260.028 187.412 259.35 187.744 258.735C188.076 258.12 188.534 257.582 189.088 257.156C191.522 255.474 195.525 256.275 198.336 257.862C200.107 258.862 209.297 264.223 217.674 269.171C219.998 264.836 222.774 259.671 222.774 259.671L228.289 263.118C233.476 266.15 235.789 270.591 238.965 275.694C243.575 283.106 241.877 291.274 247.16 297.658" fill="white"/>
<path d="M166.615 295.475L177.715 218.885C178.048 216.589 179.28 214.518 181.139 213.13C182.999 211.741 185.333 211.148 187.63 211.481L222.36 216.515C224.657 216.848 226.728 218.079 228.116 219.939C229.505 221.799 230.098 224.134 229.765 226.431L218.665 303.019C218.332 305.316 217.1 307.386 215.241 308.775C213.382 310.163 211.047 310.757 208.75 310.424L174.019 305.39C171.722 305.057 169.652 303.825 168.263 301.966C166.875 300.107 166.282 297.772 166.615 295.475Z" fill="#BF2C0B"/>
<path d="M173.383 307.706L201.183 311.735C205.078 312.3 209.922 313.668 213.722 312.269C215.587 311.598 217.241 310.446 218.516 308.929C219.791 307.412 220.643 305.585 220.984 303.633C221.084 303.033 221.159 302.421 221.247 301.815L225.13 275.029L230.203 240.029L231.778 229.17C231.878 228.498 231.978 227.826 232.07 227.154C232.376 225.348 232.242 223.495 231.679 221.752C231.115 220.009 230.139 218.427 228.834 217.142C225.551 214.01 220.998 213.911 216.767 213.298L199.231 210.757C195.591 210.229 191.952 209.685 188.309 209.173C186.816 208.934 185.291 208.997 183.823 209.358C182.355 209.719 180.975 210.37 179.763 211.274C178.551 212.177 177.532 213.314 176.767 214.618C176.002 215.922 175.507 217.365 175.309 218.864L171.865 242.627L166.71 278.191L164.887 290.767C164.496 293.467 163.843 296.302 164.363 299.011C164.826 301.195 165.933 303.19 167.539 304.739C169.146 306.289 171.18 307.322 173.379 307.706C173.992 307.856 174.639 307.766 175.188 307.454C175.737 307.143 176.146 306.633 176.331 306.03C176.495 305.416 176.411 304.763 176.098 304.21C175.784 303.658 175.266 303.251 174.655 303.077C173.769 302.968 172.913 302.682 172.139 302.237C171.365 301.793 170.687 301.197 170.146 300.487C169.654 299.808 169.298 299.039 169.098 298.224C168.998 297.834 168.94 297.434 168.927 297.032C168.919 296.799 169.007 295.425 168.927 296.11C168.984 295.627 169.067 295.145 169.137 294.664L170.522 285.105L175.334 251.911L179.472 223.361C179.786 221.195 179.855 218.475 181.088 216.618C181.561 215.915 182.168 215.312 182.875 214.844C183.582 214.377 184.375 214.054 185.207 213.894C185.606 213.821 186.011 213.787 186.416 213.794C186.637 213.794 187.671 213.877 187.001 213.794C187.089 213.804 187.177 213.819 187.265 213.832C188.699 214.039 190.132 214.247 191.565 214.456L221.042 218.728C222.073 218.791 223.079 219.076 223.99 219.563C224.901 220.05 225.696 220.729 226.321 221.552C226.795 222.245 227.132 223.022 227.314 223.842C227.404 224.236 227.451 224.638 227.453 225.042C227.453 225.287 227.366 226.489 227.453 225.794C227.437 225.93 227.414 226.066 227.394 226.202L226.299 233.755L221.67 265.69L217.245 296.217C216.951 298.248 216.684 300.285 216.362 302.312C216.224 303.939 215.464 305.449 214.24 306.529C213.016 307.61 211.423 308.177 209.792 308.112C209.622 308.112 208.637 308.021 209.379 308.112C209.279 308.099 209.169 308.081 209.064 308.066L207.482 307.837L177.282 303.459L174.663 303.079C174.05 302.931 173.403 303.022 172.855 303.333C172.307 303.645 171.898 304.154 171.711 304.756C171.547 305.369 171.63 306.022 171.943 306.573C172.256 307.125 172.773 307.532 173.383 307.706Z" fill="#211715"/>
<path d="M195.768 220.925C193.495 220.592 191.222 220.261 188.949 219.933C188.324 219.785 187.666 219.871 187.1 220.175C186.55 220.496 186.151 221.023 185.99 221.638C185.828 222.254 185.918 222.908 186.239 223.458C186.391 223.729 186.597 223.966 186.843 224.155C187.09 224.344 187.372 224.481 187.673 224.558C189.946 224.888 192.219 225.219 194.492 225.55C195.118 225.698 195.775 225.612 196.342 225.308C196.892 224.987 197.291 224.46 197.452 223.845C197.614 223.229 197.524 222.575 197.203 222.025C197.05 221.754 196.844 221.518 196.598 221.329C196.351 221.14 196.069 221.002 195.768 220.925Z" fill="#211715"/>
<path d="M223.044 319.138C208.104 315 191.657 304.549 181.878 292.521C180.667 291.031 179.448 289.263 179.729 287.363C180.01 285.463 182.806 282.92 183.979 284.44C181.359 281.965 179.649 280.779 179.912 278.188C180.212 275.248 183.212 273.572 186.166 275.11C180.073 271.01 178.102 267.793 179.079 265.31C180.579 261.487 183.664 261.558 188.536 264.545C188.053 264.04 187.681 263.439 187.445 262.781C187.21 262.124 187.115 261.423 187.168 260.727C187.221 260.03 187.42 259.352 187.752 258.737C188.084 258.122 188.542 257.584 189.096 257.158C191.53 255.476 195.203 256.358 197.969 258.025C205.154 262.351 216.44 268.979 225.638 274.489L230.405 277.252" fill="white"/>
<path d="M226.9 271.857C220.3 267.905 213.674 263.995 207.023 260.126C204.778 258.813 202.533 257.499 200.277 256.203C197.197 254.433 193.341 253.086 189.792 254.203C188.708 254.536 187.72 255.125 186.911 255.919C186.102 256.713 185.495 257.69 185.141 258.767C184.739 260.052 184.684 261.42 184.983 262.733C185.281 264.046 185.923 265.256 186.841 266.241L189.749 262.471C187.202 260.946 184.049 259.542 181.028 260.366C179.876 260.735 178.846 261.412 178.051 262.325C177.257 263.237 176.727 264.35 176.52 265.542C175.369 271.06 180.539 274.577 184.668 277.022L187.091 272.878C186.268 272.363 185.336 272.046 184.37 271.952C183.403 271.858 182.428 271.989 181.521 272.336C180.614 272.683 179.799 273.235 179.142 273.95C178.484 274.665 178.002 275.522 177.732 276.455C177.433 277.361 177.32 278.318 177.402 279.269C177.483 280.219 177.756 281.143 178.205 281.985C179.286 283.618 180.671 285.027 182.284 286.138C184.649 288.045 187.817 285.063 185.678 282.743C182.371 279.157 177.661 284.124 177.308 287.567C176.82 292.324 180.992 296.073 184.036 299.16C190.843 306.014 198.784 311.638 207.509 315.783C212.303 318.099 217.288 319.996 222.409 321.453C225.389 322.287 226.66 317.653 223.685 316.825C208.59 312.71 195.004 304.325 184.557 292.678C183.401 291.359 181.867 289.885 182.073 287.968C182.121 287.525 182.332 287.115 182.665 286.818C182.78 286.691 183.19 286.418 183.199 286.381C183.257 286.124 183.354 286.481 183.12 286.371C182.907 286.271 182.468 286.338 182.284 286.138L185.678 282.743C184.626 281.987 183.651 281.129 182.769 280.181C182.547 279.962 182.379 279.694 182.279 279.399C182.178 279.104 182.147 278.79 182.188 278.481C182.381 276.842 183.352 276.286 184.667 277.025C187.367 278.541 189.751 274.457 187.09 272.881C185.23 271.873 183.525 270.602 182.026 269.109C181.836 268.936 181.68 268.729 181.565 268.5C181.488 268.372 181.416 268.241 181.342 268.112C181.022 267.556 181.396 268.337 181.291 268.012C181.225 267.812 181.097 267.054 181.144 267.607C181.122 267.323 181.122 267.039 181.144 266.755C181.168 266.411 181.056 267.155 181.144 266.82C181.177 266.693 181.199 266.562 181.237 266.435C181.294 266.195 181.379 265.962 181.492 265.742C181.524 265.68 181.838 265.205 181.742 265.342C181.61 265.523 182.029 265.086 181.831 265.242C181.969 265.131 182.128 265.048 182.299 264.998C182.875 264.891 183.468 264.925 184.028 265.098C185.192 265.445 186.301 265.957 187.321 266.617C189.79 268.096 191.89 264.856 190.23 262.848C189.816 262.384 189.579 261.789 189.559 261.167C189.54 260.546 189.74 259.937 190.124 259.448C189.966 259.657 190.604 258.989 190.366 259.186C190.261 259.273 190.824 258.916 190.907 258.881C191.644 258.619 192.433 258.539 193.207 258.65C195.407 258.85 197.254 259.999 199.116 261.078C204.36 264.115 209.59 267.177 214.806 270.264C218.034 272.167 221.257 274.079 224.474 276.002C227.131 277.593 229.547 273.445 226.897 271.857H226.9Z" fill="#211715"/>
<path d="M221.309 282.578C212.15 277.059 203.198 271.171 194.238 265.336C192.686 264.325 191.13 263.319 189.595 262.282C187.029 260.547 184.624 264.704 187.173 266.427C195.507 272.061 204.045 277.427 212.553 282.789C214.653 284.115 216.753 285.44 218.886 286.723C221.539 288.323 223.954 284.173 221.309 282.578Z" fill="#211715"/>
<path d="M212.171 289.1C203.435 283.669 194.853 277.984 186.284 272.294C183.704 270.58 181.297 274.736 183.862 276.439C192.43 282.129 201.012 287.814 209.748 293.245C212.379 294.88 214.792 290.73 212.171 289.1Z" fill="#211715"/>
<path d="M204.717 296.282C197.939 292.208 191.491 287.608 185.432 282.526C184.974 282.092 184.366 281.85 183.735 281.85C183.104 281.85 182.496 282.092 182.038 282.526C181.593 282.979 181.343 283.588 181.343 284.223C181.343 284.858 181.593 285.468 182.038 285.92C188.4 291.279 195.173 296.129 202.295 300.427C204.964 301.994 207.382 297.847 204.717 296.282Z" fill="#211715"/>
<path d="M227.078 265.187C229.653 266.787 231.842 268.936 233.489 271.481C235.495 274.167 237.182 277.076 238.517 280.15C239.527 283.311 240.346 286.529 240.971 289.788C241.735 293.272 243.27 296.54 245.464 299.352C245.917 299.8 246.527 300.051 247.164 300.051C247.801 300.051 248.411 299.8 248.864 299.352C249.3 298.895 249.544 298.287 249.544 297.655C249.544 297.023 249.3 296.415 248.864 295.958C246.792 293.386 245.953 290.158 245.255 286.994C244.632 283.485 243.63 280.054 242.268 276.761C240.764 273.675 238.966 270.742 236.898 268.002C234.934 265.203 232.419 262.834 229.506 261.043C226.849 259.453 224.432 263.601 227.083 265.187H227.078Z" fill="#211715"/>
<path d="M86.47 318.659L106.15 296.849H102.756C109.041 304.611 115.467 312.256 121.829 319.954C123.489 321.963 125.141 323.978 126.786 325.999C127.612 326.931 128.38 327.913 129.086 328.939C129.381 329.351 129.552 329.838 129.579 330.344C129.606 330.85 129.488 331.353 129.239 331.794C127.948 334.214 126.422 336.501 124.683 338.622C123.033 340.867 121.294 343.042 119.467 345.146C116.137 349.19 112.319 352.806 108.099 355.91C104.177 358.65 99.634 360.95 94.772 361.193C85.165 361.673 77.839 353.876 74.61 345.493C71.09 336.351 71.31 326.27 72.252 316.673C73.327 305.697 75.122 294.758 77.185 283.929C79.267 273.007 81.766 262.167 84.603 251.417C87.417 240.756 90.336 230.017 93.982 219.61C95.4218 215.015 97.6257 210.695 100.501 206.832C101.727 205.352 103.087 203.988 104.564 202.758C105.125 202.274 105.727 201.822 106.264 201.316C106.422 201.169 106.629 201.156 106.021 201.497C106.203 201.397 106.383 201.234 106.556 201.112C107.018 200.784 107.485 200.464 107.956 200.152C116.319 194.625 125.837 190.807 135.14 187.189C137.582 186.239 140.032 185.309 142.489 184.399L140.64 184.157C152.691 190.294 165.807 194.065 179.278 195.265C192.017 196.437 204.933 194.465 217.149 190.835C223.148 189.174 228.931 186.813 234.378 183.8H231.955C236.855 185.9 241.748 188.013 246.663 190.075C251.206 191.86 255.615 193.972 259.853 196.394C263.567 198.547 267.05 201.077 270.246 203.944C273.092 206.632 275.465 209.778 277.268 213.253C281.085 220.439 282.818 228.603 284.01 236.588C285.45 246.233 286.264 255.988 287.402 265.669C288.602 275.924 289.863 286.169 291.063 296.429C291.697 301.853 292.312 307.279 292.908 312.706C293.463 317.796 294.047 322.895 294.208 328.017C294.484 336.862 293.559 346.724 287.526 353.7C285.143 356.545 282.071 358.73 278.602 360.049C274.874 361.34 270.855 361.536 267.019 360.613C258.268 358.671 251.154 352.521 244.583 346.768C237.429 340.406 230.615 333.672 224.167 326.595C222.894 325.219 221.625 323.839 220.361 322.455V325.849C230.751 315.874 241.761 306.554 252.361 296.812H248.967C256.792 303.679 263.995 311.221 271.486 318.442C273.71 320.587 277.109 317.197 274.88 315.048C267.389 307.827 260.186 300.285 252.361 293.418C251.903 292.983 251.296 292.74 250.664 292.74C250.032 292.74 249.425 292.983 248.967 293.418C238.361 303.16 227.356 312.48 216.967 322.455C216.527 322.911 216.282 323.519 216.282 324.152C216.282 324.785 216.527 325.393 216.967 325.849C224.746 334.572 233.014 342.847 241.73 350.634C250.369 358.142 260.174 366.049 272.244 366.004C282.944 365.964 292.039 358.425 296.004 348.812C300.995 336.712 298.832 322.848 297.441 310.258C295.986 297.088 294.373 283.937 292.809 270.78C292.013 264.086 291.24 257.39 290.49 250.691C289.859 244.996 289.29 239.291 288.38 233.633C286.709 223.26 283.8 212.724 277.161 204.365C273.766 200.092 269.285 196.79 264.754 193.808C259.492 190.54 253.937 187.772 248.16 185.538C245.16 184.281 242.168 183.007 239.184 181.718C237.73 181.094 236.275 180.469 234.82 179.844C234.394 179.582 233.911 179.428 233.412 179.395C232.913 179.363 232.414 179.452 231.957 179.655C231.436 179.915 230.939 180.236 230.423 180.51C226.012 182.774 221.392 184.607 216.628 185.983C205.965 189.23 194.721 191.243 183.546 190.757C171.432 190.166 159.526 187.382 148.406 182.541C147.202 182.018 146.01 181.47 144.829 180.896C144.241 180.609 143.666 180.287 143.073 180.011C142.58 179.817 142.05 179.735 141.522 179.771C140.993 179.807 140.479 179.96 140.017 180.219C137.133 181.298 134.258 182.403 131.393 183.534C125.681 185.803 120.003 188.192 114.502 190.934C110.06 192.988 105.879 195.565 102.048 198.61C98.134 201.847 94.9316 205.858 92.642 210.392C89.927 215.822 88.207 221.682 86.442 227.469C84.5087 233.811 82.67 240.181 80.926 246.58C77.535 259.087 74.589 271.715 72.216 284.456C71.022 290.868 69.97 297.305 69.06 303.766C68.199 309.881 67.36 316.019 67.023 322.19C66.407 333.422 67.541 345.577 74.323 354.973C77.702 359.657 82.337 363.59 87.968 365.207C93.748 366.867 99.746 365.755 105.092 363.239C110.584 360.463 115.514 356.692 119.631 352.118C124.137 347.338 128.228 342.184 131.861 336.711C133.72 333.918 135.267 330.87 133.769 327.543C133.124 326.29 132.32 325.125 131.377 324.078C130.315 322.766 129.248 321.458 128.177 320.153C124.557 315.731 120.896 311.345 117.243 306.953C113.519 302.475 109.821 297.975 106.148 293.453C105.696 293.006 105.087 292.755 104.451 292.755C103.815 292.755 103.206 293.006 102.754 293.453L83.078 315.264C81.013 317.553 84.397 320.958 86.472 318.659H86.47Z" fill="#211715"/>
<path d="M174.221 134.88C177.269 137.865 182.103 138.727 186.192 138.724C190.281 138.721 195.117 137.866 198.167 134.88C200.378 132.716 196.983 129.323 194.773 131.486C194.673 131.586 194.173 132.011 194.464 131.778C194.738 131.56 194.088 132.029 193.938 132.121C193.671 132.285 193.398 132.437 193.118 132.576C192.93 132.67 192.74 132.76 192.547 132.844C192.871 132.703 192.524 132.85 192.377 132.902C190.391 133.601 188.298 133.947 186.192 133.924C184.125 133.957 182.068 133.625 180.116 132.944C180.093 132.936 179.392 132.65 179.836 132.844C179.675 132.774 179.515 132.699 179.358 132.621C179.047 132.468 178.742 132.303 178.447 132.121C178.221 131.981 178.009 131.821 177.789 131.676C178.399 132.091 177.764 131.632 177.615 131.486C175.406 129.324 172.008 132.715 174.221 134.88Z" fill="#211715"/>
<path d="M185.647 112.3C186.129 114.041 186.515 115.808 186.803 117.592L186.718 116.954C186.752 117.196 186.759 117.441 186.738 117.684L186.823 117.046C186.807 117.158 186.78 117.268 186.743 117.375L186.985 116.802C186.953 116.876 186.914 116.946 186.869 117.013L187.244 116.527C187.193 116.59 187.135 116.647 187.071 116.698L187.557 116.322C187.423 116.406 187.283 116.48 187.138 116.544L187.711 116.302C187.485 116.399 187.248 116.468 187.005 116.508L187.643 116.422C187.423 116.448 187.2 116.448 186.98 116.422L187.618 116.508C187.368 116.473 187.123 116.408 186.872 116.379C186.247 116.233 185.59 116.319 185.023 116.621C184.474 116.942 184.074 117.469 183.913 118.084C183.751 118.7 183.841 119.354 184.162 119.904C184.314 120.175 184.52 120.412 184.766 120.601C185.013 120.79 185.295 120.927 185.596 121.004C186.138 121.077 186.663 121.216 187.213 121.24C188.029 121.245 188.834 121.056 189.561 120.687C190.016 120.484 190.42 120.18 190.742 119.799C191.064 119.418 191.296 118.97 191.421 118.487C191.585 117.694 191.577 116.876 191.396 116.087C191.108 114.387 190.714 112.693 190.275 111.02C190.191 110.716 190.048 110.432 189.855 110.183C189.661 109.934 189.42 109.726 189.146 109.571C188.872 109.415 188.57 109.315 188.257 109.276C187.944 109.237 187.627 109.26 187.323 109.344C187.019 109.428 186.735 109.571 186.486 109.764C186.237 109.958 186.029 110.199 185.874 110.473C185.718 110.747 185.618 111.049 185.579 111.362C185.54 111.675 185.563 111.992 185.647 112.296V112.3Z" fill="#211715"/>
<path d="M157.52 98.011C156.636 100.882 157.212 107.488 162.652 108.051C169.843 108.008 170.225 100.021 167.805 96.266C165.823 93.191 159.996 91.912 157.52 98.011Z" fill="#211715"/>
<path d="M213.868 98.011C214.752 100.883 214.176 107.489 208.735 108.051C201.545 108.007 201.162 100.02 203.582 96.265C205.564 93.191 211.391 91.912 213.868 98.011Z" fill="#211715"/>
</g>
<defs>
<clipPath id="clip0_1_19">
<rect width="366.002" height="366.002" fill="white" transform="translate(-0.00201416)"/>
</clipPath>
</defs>
</svg>
